<svg width="750" height="496" viewBox="0 0 750 496" fill="none" xmlns="http://www.w3.org/2000/svg">
<mask id="mask0_65_76" style="mask-type:alpha" maskUnits="userSpaceOnUse" x="0" y="0" width="750" height="496">
<path d="M750 9.99999C750 4.47714 745.523 0 740 0H10C4.47717 0 0 4.47715 0 10V486C0 491.523 4.47717 496 10 496H740C745.523 496 750 491.523 750 486V9.99999Z" fill="white"/>
</mask>
<g mask="url(#mask0_65_76)">
<path fill-rule="evenodd" clip-rule="evenodd" d="M582.083 180.905L448.332 288.011C445.408 290.355 438.928 291.156 433.861 289.805L27.8775 181.435C22.811 180.082 21.0753 177.088 23.9997 174.746L157.75 67.6391C160.677 65.2976 167.155 64.4941 172.223 65.8453L578.205 174.215C583.272 175.568 585.009 178.563 582.083 180.905ZM872.796 428.825L739.046 535.931C736.121 538.275 729.641 539.076 724.575 537.725L318.591 429.355C313.524 428.002 311.789 425.008 314.713 422.665L448.464 315.559C451.39 313.217 457.868 312.414 462.937 313.765L868.919 422.135C873.985 423.488 875.723 426.483 872.796 428.825ZM1493.05 -54.0074L1359.3 53.0991C1356.37 55.4425 1349.89 56.244 1344.83 54.8929L938.843 -53.4769C933.776 -54.8299 932.041 -57.8241 934.965 -60.1666L1068.72 -167.273C1071.64 -169.615 1078.12 -170.418 1083.19 -169.067L1489.17 -60.6971C1494.24 -59.3441 1495.97 -56.3489 1493.05 -54.0074ZM233.554 -261.771L99.8031 -154.665C96.8788 -152.322 90.3985 -151.52 85.332 -152.871L-320.652 -261.241C-325.718 -262.594 -327.454 -265.588 -324.53 -267.931L-190.779 -375.037C-187.853 -377.379 -181.374 -378.182 -176.306 -376.831L229.676 -268.461C234.742 -267.108 236.48 -264.113 233.554 -261.771ZM94.1516 94.8466C91.2252 97.1881 84.7471 97.9915 79.6785 96.6385L-103.815 47.6577C-108.884 46.3066 -110.619 43.3095 -107.693 40.967L26.0577 -66.1384C28.9821 -68.48 35.4623 -69.2834 40.5289 -67.9304L224.024 -18.9496C229.091 -17.5985 230.827 -14.6033 227.902 -12.2599L94.1516 94.8466ZM-216.742 100.586C-219.667 102.929 -226.147 103.732 -231.214 102.379L-414.709 53.3998C-419.776 52.0468 -421.511 49.0497 -418.587 46.7082L-284.836 -60.3963C-281.91 -62.7398 -275.432 -63.5413 -270.365 -62.1902L-86.8698 -13.2103C-81.8033 -11.8583 -80.0656 -8.86121 -82.992 -6.51965L-216.742 100.586ZM-57.571 -26.7741C-60.4953 -24.4307 -66.9755 -23.6282 -72.0421 -24.9813L-255.538 -73.9601C-260.604 -75.3132 -262.34 -78.3102 -259.415 -80.6518L-125.665 -187.756C-122.738 -190.1 -116.26 -190.901 -111.194 -189.55L72.3017 -140.57C77.3682 -139.218 79.106 -136.221 76.1795 -133.88L-57.571 -26.7741ZM-449.215 38.0891C-452.139 40.4326 -458.62 41.235 -463.686 39.882L-647.182 -9.09689C-652.248 -10.4499 -653.984 -13.447 -651.059 -15.7885L-517.309 -122.893C-514.383 -125.237 -507.904 -126.038 -502.838 -124.687L-319.342 -75.7071C-314.276 -74.355 -312.538 -71.3579 -315.465 -69.0164L-449.215 38.0891ZM392.533 100.25C389.609 102.593 383.128 103.396 378.062 102.043L194.566 53.064C189.5 51.7109 187.764 48.7139 190.689 46.3723L324.439 -60.7322C327.366 -63.0757 333.844 -63.8772 338.91 -62.5261L522.406 -13.5462C527.472 -12.1942 529.21 -9.19708 526.284 -6.85553L392.533 100.25ZM614.175 159.708C611.251 162.051 604.771 162.854 599.704 161.501L416.209 112.522C411.142 111.169 409.406 108.172 412.331 105.83L546.081 -1.27423C549.008 -3.61768 555.486 -4.41919 560.552 -3.06808L744.048 45.9118C749.115 47.2638 750.852 50.2609 747.926 52.6024L614.175 159.708ZM-240.582 119.676L-501.462 328.582C-504.387 330.926 -510.867 331.729 -515.933 330.375L-921.917 222.008C-926.984 220.656 -928.719 217.66 -925.795 215.315L-664.914 6.40869C-661.988 4.06525 -655.51 3.26279 -650.443 4.61484L-244.46 112.984C-239.393 114.337 -237.655 117.332 -240.582 119.676ZM1329.04 71.8243L1068.16 280.73C1065.23 283.074 1058.75 283.877 1053.69 282.523L647.703 174.156C642.637 172.804 640.901 169.808 643.825 167.463L904.706 -41.4433C907.632 -43.7867 914.11 -44.5892 919.177 -43.2371L1325.16 65.1317C1330.23 66.4847 1331.96 69.4799 1329.04 71.8243ZM-451.651 316.942C-448.724 314.6 -442.246 313.796 -437.178 315.148L-253.684 364.129C-248.616 365.482 -246.88 368.476 -249.806 370.819L-383.557 477.925C-386.481 480.268 -392.961 481.07 -398.028 479.719L-581.523 430.738C-586.59 429.385 -588.326 426.39 -585.401 424.046L-451.651 316.942ZM-92.9619 243.915L-226.712 351.019C-229.637 353.363 -236.117 354.164 -241.184 352.811L-424.679 303.833C-429.746 302.481 -431.481 299.484 -428.557 297.141L-294.806 190.036C-291.88 187.693 -285.402 186.891 -280.335 188.244L-96.8397 237.223C-91.7711 238.576 -90.0355 241.573 -92.9619 243.915ZM-134.569 61.7222C-131.645 59.3787 -125.164 58.5772 -120.098 59.9283L63.3977 108.909C68.4642 110.262 70.1999 113.257 67.2756 115.601L-66.475 222.704C-69.4014 225.048 -75.8796 225.851 -80.9482 224.497L-264.444 175.518C-269.51 174.165 -271.246 171.17 -268.319 168.827L-134.569 61.7222ZM11.9812 194.161L195.477 243.142C200.543 244.494 202.279 247.489 199.354 249.832L-40.3373 441.773C-43.2637 444.115 -49.7419 444.919 -54.8085 443.566L-238.304 394.585C-243.37 393.232 -245.108 390.239 -242.182 387.895L-2.48993 195.953C0.434387 193.611 6.91461 192.808 11.9812 194.161ZM294.912 -278.471C297.837 -280.814 304.317 -281.616 309.383 -280.263L492.879 -231.282C497.945 -229.93 499.681 -226.935 496.757 -224.592L257.065 -32.6511C254.138 -30.3086 247.66 -29.5052 242.594 -30.8582L59.0981 -79.839C54.0316 -81.192 52.2939 -84.1853 55.2203 -86.5287L294.912 -278.471ZM62.4099 381.536C65.3363 379.192 71.8145 378.39 76.8831 379.744L260.379 428.723C265.445 430.076 267.181 433.071 264.254 435.414L130.504 542.519C127.579 544.862 121.099 545.664 116.033 544.311L-67.4628 495.332C-72.5294 493.98 -74.265 490.982 -71.3406 488.64L62.4099 381.536ZM-266.729 406.273C-263.802 403.93 -257.324 403.127 -252.255 404.481L-68.7599 453.46C-63.6934 454.813 -61.9578 457.808 -64.8842 460.152L-198.635 567.256C-201.559 569.6 -208.039 570.401 -213.106 569.048L-396.601 520.069C-401.668 518.717 -403.404 515.719 -400.479 513.378L-266.729 406.273ZM-355.335 -249.208C-352.409 -251.551 -345.931 -252.354 -340.862 -251L-157.367 -202.021C-152.3 -200.668 -150.565 -197.673 -153.491 -195.329L-287.242 -88.2247C-290.166 -85.8813 -296.646 -85.0797 -301.713 -86.4328L-485.208 -135.412C-490.275 -136.764 -492.01 -139.762 -489.086 -142.103L-355.335 -249.208ZM86.2451 362.447L219.995 255.343C222.922 253 229.402 252.197 234.469 253.548L417.964 302.529C423.031 303.883 424.766 306.877 421.842 309.219L288.092 416.325C285.165 418.669 278.685 419.471 273.618 418.119L90.1229 369.138C85.0563 367.785 83.3207 364.79 86.2451 362.447ZM707.117 352.434L840.867 245.33C843.794 242.987 850.274 242.184 855.341 243.535L1038.84 292.516C1043.9 293.87 1045.64 296.864 1042.71 299.206L908.963 406.312C906.037 408.656 899.557 409.458 894.49 408.106L710.995 359.125C705.928 357.772 704.193 354.777 707.117 352.434ZM352.687 -80.652L486.437 -187.756C489.364 -190.099 495.844 -190.902 500.91 -189.55L684.406 -140.57C689.472 -139.216 691.208 -136.221 688.284 -133.88L554.533 -26.7734C551.607 -24.43 545.126 -23.6275 540.06 -24.9796L356.564 -73.9604C351.498 -75.3134 349.762 -78.3086 352.687 -80.652ZM574.207 -19.2007L707.957 -126.304C710.884 -128.648 717.364 -129.45 722.431 -128.099L905.926 -79.1183C910.993 -77.7643 912.728 -74.7701 909.804 -72.4285L776.053 34.6779C773.127 37.0214 766.647 37.8239 761.58 36.4718L578.085 -12.509C573.018 -13.8621 571.282 -16.8572 574.207 -19.2007ZM613.019 186.805C615.946 184.462 622.426 183.659 627.492 185.01L810.988 233.991C816.054 235.345 817.79 238.339 814.866 240.681L681.115 347.787C678.189 350.131 671.708 350.933 666.642 349.581L483.146 300.6C478.08 299.247 476.344 296.252 479.269 293.909L613.019 186.805ZM866.182 -252.504C869.109 -254.848 875.589 -255.65 880.656 -254.299L1064.15 -205.318C1069.22 -203.964 1070.95 -200.97 1068.03 -198.628L934.279 -91.522C931.352 -89.1785 924.872 -88.376 919.805 -89.7281L736.31 -138.709C731.243 -140.062 729.508 -143.057 732.432 -145.401L866.182 -252.504ZM644.665 -315.648C647.592 -317.991 654.072 -318.793 659.139 -317.442L842.634 -268.462C847.701 -267.108 849.436 -264.113 846.512 -261.772L712.761 -154.665C709.835 -152.322 703.355 -151.519 698.288 -152.872L514.793 -201.852C509.726 -203.205 507.99 -206.201 510.915 -208.544L644.665 -315.648ZM156.484 548.493L290.235 441.389C293.161 439.046 299.642 438.243 304.708 439.594L488.204 488.575C493.27 489.929 495.006 492.923 492.082 495.265L358.331 602.371C355.405 604.715 348.924 605.517 343.858 604.165L160.362 555.184C155.296 553.831 153.56 550.836 156.484 548.493ZM378.002 609.944L511.752 502.84C514.679 500.497 521.159 499.694 526.225 501.045L709.721 550.026C714.787 551.38 716.523 554.374 713.599 556.716L579.848 663.822C576.922 666.166 570.442 666.968 565.375 665.616L381.88 616.635C376.813 615.282 375.077 612.287 378.002 609.944Z" fill="#BFD4E4"/>
</g>
</svg>
