<svg width="56" height="56" viewBox="0 0 56 56" fill="none" xmlns="http://www.w3.org/2000/svg">
<g clip-path="url(#clip0_574_10649)">
<path d="M7 49.0001L10.85 40.1334C7.90455 35.9522 6.58622 30.8398 7.14244 25.7556C7.69865 20.6715 10.0912 15.965 13.871 12.5196C17.6508 9.07415 22.5581 7.12655 27.6719 7.04228C32.7857 6.95802 37.7545 8.74288 41.6458 12.0619C45.5371 15.381 48.0833 20.006 48.8068 25.0691C49.5302 30.1322 48.381 35.2852 45.5749 39.5612C42.7688 43.8372 38.4987 46.9421 33.5659 48.2933C28.6331 49.6445 23.3768 49.1491 18.7833 46.9001L7 49.0001Z" stroke="#3C3F3F" stroke-width="2" stroke-linecap="round" stroke-linejoin="round"/>
<path d="M32.6667 35H35C35.3094 35 35.6062 34.8771 35.825 34.6583C36.0438 34.4395 36.1667 34.1428 36.1667 33.8334C36.1667 33.524 36.0438 33.2272 35.825 33.0084C35.6062 32.7896 35.3094 32.6667 35 32.6667H32.6667C32.3572 32.6667 32.0605 32.7896 31.8417 33.0084C31.6229 33.2272 31.5 33.524 31.5 33.8334C31.5 34.1428 31.6229 34.4395 31.8417 34.6583C32.0605 34.8771 32.3572 35 32.6667 35Z" fill="#3C3F3F"/>
<path d="M21 23.3334C21 23.6428 21.1229 23.9395 21.3417 24.1583C21.5605 24.3771 21.8572 24.5 22.1667 24.5C22.4761 24.5 22.7728 24.3771 22.9916 24.1583C23.2104 23.9395 23.3333 23.6428 23.3333 23.3334V21C23.3333 20.6906 23.2104 20.3939 22.9916 20.1751C22.7728 19.9563 22.4761 19.8334 22.1667 19.8334C21.8572 19.8334 21.5605 19.9563 21.3417 20.1751C21.1229 20.3939 21 20.6906 21 21V23.3334Z" fill="#3C3F3F"/>
<path d="M21 23.3334C21 23.6428 21.1229 23.9395 21.3417 24.1583C21.5605 24.3771 21.8572 24.5 22.1667 24.5C22.4761 24.5 22.7728 24.3771 22.9916 24.1583C23.2104 23.9395 23.3333 23.6428 23.3333 23.3334V21C23.3333 20.6906 23.2104 20.3939 22.9916 20.1751C22.7728 19.9563 22.4761 19.8334 22.1667 19.8334C21.8572 19.8334 21.5605 19.9563 21.3417 20.1751C21.1229 20.3939 21 20.6906 21 21V23.3334ZM21 23.3334C21 26.4276 22.2292 29.395 24.4171 31.583C26.605 33.7709 29.5725 35 32.6667 35M32.6667 35H35C35.3094 35 35.6062 34.8771 35.825 34.6583C36.0438 34.4395 36.1667 34.1428 36.1667 33.8334C36.1667 33.524 36.0438 33.2272 35.825 33.0084C35.6062 32.7896 35.3094 32.6667 35 32.6667H32.6667C32.3572 32.6667 32.0605 32.7896 31.8417 33.0084C31.6229 33.2272 31.5 33.524 31.5 33.8334C31.5 34.1428 31.6229 34.4395 31.8417 34.6583C32.0605 34.8771 32.3572 35 32.6667 35Z" stroke="#3C3F3F" stroke-width="2" stroke-linecap="round" stroke-linejoin="round"/>
</g>
<defs>
<clipPath id="clip0_574_10649">
<rect width="56" height="56" fill="white"/>
</clipPath>
</defs>
</svg>
