<svg width="1440" height="624" viewBox="0 0 1440 624" fill="none" xmlns="http://www.w3.org/2000/svg">
<path fill-rule="evenodd" clip-rule="evenodd" d="M1440 24H1330.66L1332.08 23.9808C1340.14 23.8715 1348.17 23.7627 1356.27 23.7002C1359.4 23.6744 1362.45 23.5769 1365.5 23.4793C1369.06 23.3654 1372.62 23.2515 1376.3 23.2515C1390.64 23.2795 1405.04 22.9149 1418.97 22.1016C1420.36 22.024 1421.85 22.0436 1423.33 22.0632C1426.14 22.1001 1428.9 22.1364 1430.82 21.5126L1430.91 21.4831C1434 20.4642 1435.69 19.9091 1440 19.4091C1438.01 19.0596 1435.72 19.073 1433.44 19.0865C1432.43 19.0924 1431.41 19.0984 1430.42 19.0725C1428.98 19.0287 1427.58 18.9636 1426.18 18.8988C1423.99 18.7975 1421.82 18.697 1419.57 18.6799C1413.78 18.626 1408 18.5928 1402.22 18.5596C1392.96 18.5065 1383.7 18.4534 1374.43 18.3152C1370.31 18.2551 1366.16 18.2666 1362.02 18.2781C1360.37 18.2826 1358.72 18.2872 1357.08 18.2872C1351.06 18.3012 1345.05 18.1823 1339.04 18.0633C1333.01 17.9439 1326.98 17.8244 1320.91 17.8384C1303.79 17.8811 1286.69 17.657 1269.6 17.4329C1252.98 17.2151 1236.38 16.9974 1219.77 17.0251C1206.44 17.0531 1193.18 17.0531 1179.92 16.8288C1176.81 16.7767 1173.69 16.6461 1170.56 16.5155C1166.95 16.3647 1163.35 16.2138 1159.76 16.1837C1153.26 16.1276 1146.96 16.0154 1140.4 15.791C1138.57 15.7263 1136.57 15.7043 1134.52 15.6817C1130.36 15.6358 1125.99 15.5877 1122.45 15.174C1119.29 14.8116 1119.66 14.1041 1120.05 13.3447C1120.36 12.7522 1120.69 12.1283 1119.37 11.6121C1117.89 11.039 1113.23 10.8297 1110.01 10.6847C1109.13 10.6451 1108.35 10.6104 1107.78 10.5743C1104.43 10.378 1101.15 10.2097 1097.8 10.0695C1092.37 9.84512 1088.02 9.5366 1082.93 9.03176C1081.68 8.89704 1080.56 8.73836 1079.45 8.5813C1078.49 8.44406 1077.53 8.30806 1076.5 8.19035C1072.63 7.74228 1068.09 7.7974 1063.82 7.84943C1062.47 7.86579 1061.15 7.88184 1059.89 7.88184C1056.63 7.88814 1053.36 7.90438 1050.09 7.92065C1038.78 7.97675 1027.38 8.03336 1016.22 7.68551C1003.13 7.28272 989.811 7.35716 976.567 7.43115C971.368 7.4602 966.18 7.48918 961.025 7.48918H937.917C933.173 7.48918 928.523 7.5948 923.876 7.70035C918.945 7.81237 914.016 7.92432 908.982 7.90988C908.181 7.90988 907.368 7.9174 906.552 7.92494C904.639 7.94264 902.709 7.96049 900.877 7.88184C899.452 7.81247 898.061 7.66761 896.661 7.52195C895.231 7.37314 893.793 7.22348 892.304 7.15262C889.173 7.01746 885.917 6.92301 882.618 6.82729C872.225 6.52574 861.396 6.21156 852.651 4.57231C851.06 4.27615 849.735 3.94409 848.448 3.62126C846.321 3.08806 844.294 2.58003 841.332 2.30052C840.992 2.2706 840.655 2.24118 840.32 2.21193C838.142 2.0218 836.045 1.83869 833.897 1.57131C831.059 1.23862 828.222 1.24821 825.059 1.2589C824.488 1.26083 823.907 1.26279 823.314 1.26279C807.976 1.29084 792.57 1.29084 777.232 1.26279C772.172 1.26279 767.144 1.36801 762.11 1.47336C756.747 1.58558 751.376 1.69796 745.952 1.6835C741.397 1.66947 736.943 1.77465 732.489 1.87982C728.035 1.985 723.581 2.09017 719.026 2.07615C716.225 2.0594 713.496 2.16274 710.753 2.26661C708.904 2.33663 707.049 2.40688 705.161 2.44076C701.939 2.49347 698.726 2.56996 695.515 2.64639C690.184 2.77329 684.859 2.90005 679.508 2.91755C672.108 2.95466 664.912 3.21274 657.67 3.47251C653.966 3.60538 650.249 3.7387 646.487 3.8431C639.115 4.04634 631.716 4.11151 624.314 4.1767C615.373 4.25544 606.429 4.33422 597.524 4.65645C592.674 4.83051 587.883 5.04132 583.112 5.25123C571.74 5.75159 560.484 6.24683 548.83 6.22708C546.398 6.22708 543.96 6.22397 541.519 6.22085C536.629 6.21462 531.73 6.20837 526.86 6.22708C520.631 6.22708 513.933 5.77833 507.905 5.27348C507.41 5.23367 506.909 5.19612 506.406 5.15842L506.406 5.15839C503.365 4.93053 500.252 4.69731 498.126 3.92724C497.118 3.56849 496.555 3.17004 496.021 2.79163C495.136 2.1642 494.328 1.59186 491.696 1.34693C487.677 0.954273 484.328 0.898184 479.974 0.870138C475.376 0.83111 470.821 0.635198 466.263 0.439133C460.994 0.212491 455.72 -0.014355 450.369 0.000682801H428.064C421.232 0.000682801 414.601 0.140925 407.77 0.337252C402.551 0.485916 397.407 0.760661 392.249 1.03618C387.675 1.28045 383.091 1.52533 378.432 1.6835C372.587 1.89032 366.717 2.01241 360.853 2.13438C357.175 2.21089 353.498 2.28736 349.832 2.38467C346.451 2.47642 343.045 2.58042 339.624 2.68486C328.406 3.02739 317.031 3.37469 305.893 3.31021C297.624 3.26638 289.683 3.54785 281.621 3.83358L281.621 3.83359C279.365 3.91356 277.099 3.99387 274.814 4.06747C271.9 4.16564 268.987 4.18667 266.073 4.2077C263.159 4.22874 260.246 4.24977 257.332 4.34793C252.356 4.51618 247.38 4.5411 242.411 4.56599C236.611 4.59504 230.819 4.62404 225.048 4.88083C221.596 5.02834 218.088 5.09826 214.583 5.16813C211.423 5.23111 208.266 5.29405 205.155 5.41372L203.641 5.47494C195.803 5.79178 187.705 6.11913 179.903 6.61973C177.82 6.75321 175.616 6.86693 173.379 6.98238L173.379 6.98239C168.564 7.23082 163.593 7.48728 159.34 7.96597C159.726 8.05759 160.083 8.13575 160.41 8.2076C161.788 8.5097 162.658 8.70047 163.091 9.31222C163.789 10.4087 162.213 10.5314 159.679 10.7287C159.296 10.7585 158.891 10.7899 158.469 10.8267C157.851 10.8753 157.332 10.9263 156.845 10.9741L156.845 10.9741C155.645 11.092 154.634 11.1914 152.776 11.1914C150.27 11.1914 148.016 11.2969 145.719 11.4044C144.273 11.4721 142.809 11.5406 141.256 11.584C125.357 12.078 109.223 12.059 93.0912 12.0401H93.091C89.9889 12.0364 86.8869 12.0328 83.7867 12.0328H53.7796C53.0688 12.0328 51.9115 12.0121 50.5175 11.9873C45.2121 11.8926 36.4793 11.7369 35.8959 12.4254C35.6279 12.79 38.1062 14.1643 39.0439 14.4448C39.548 14.6031 40.2627 14.7421 40.9981 14.8851C42.6084 15.1982 44.3183 15.5307 44.1344 16.1276C40.0935 16.4272 35.4177 16.3392 30.8552 16.2533C28.1576 16.2025 25.4995 16.1524 23.0357 16.1837C19.6867 16.2117 18.749 16.4642 19.6197 17.6421C20.1556 18.3994 21.3612 18.6238 23.7055 18.8762C25.9818 19.1192 28.5258 19.0881 31.0798 19.057C32.3585 19.0414 33.6398 19.0257 34.8912 19.0445C38.5751 19.1006 43.2637 19.3249 46.8806 19.5774C49.3914 19.7674 51.8065 20.0603 54.2186 20.3529C57.1473 20.7082 60.0715 21.0629 63.1568 21.2321C63.2101 21.8131 61.8178 21.949 60.3349 22.0937C59.9567 22.1306 59.5725 22.1681 59.2049 22.2137C57.5633 22.4188 56.0206 22.7223 54.4759 23.0263C52.4616 23.4227 50.4437 23.8197 48.1979 24H0V26.9093V600H51.2439C52.2403 600.136 53.2298 600.28 54.2188 600.424C57.1475 600.85 60.0716 601.276 63.1568 601.479C63.2101 602.176 61.8178 602.339 60.3349 602.513C59.9566 602.557 59.5725 602.602 59.2049 602.656C57.5634 602.903 56.0208 603.267 54.4762 603.632C52.4285 604.115 50.3771 604.599 48.0863 604.81C46.2965 604.974 44.3586 604.927 42.4225 604.879C41.1704 604.848 39.9191 604.818 38.709 604.844C37.0846 604.883 35.5271 605 33.9593 605.119C32.812 605.205 31.6592 605.292 30.4705 605.349C29.2828 605.394 28.3583 605.498 27.4521 605.6C26.314 605.729 25.2046 605.854 23.6385 605.854C19.2178 605.82 -3.75635 605.787 0.53038 609.051C1.06622 609.455 3.27657 610.566 3.94637 610.801C5.51497 611.377 10.5614 611.653 13.2611 611.8C13.5586 611.817 13.8276 611.831 14.0604 611.845C42.393 610.835 58.4682 610.599 74.6104 610.97C85.364 611.127 96.1076 611.39 106.853 611.654C123.749 612.069 140.649 612.484 157.599 612.484C170.191 612.484 182.582 612.753 195.108 613.225C200.391 613.432 205.69 613.564 210.982 613.696C216.827 613.842 222.664 613.987 228.464 614.234C232.485 614.411 236.318 614.417 240.217 614.424C241.513 614.426 242.817 614.428 244.137 614.436C247.998 614.47 251.741 614.724 255.476 614.977C259.193 615.228 262.901 615.48 266.709 615.513C266.969 615.516 267.232 615.518 267.497 615.521C274.33 615.59 282.699 615.675 287.406 613.763C288.293 613.396 288.978 613.033 289.617 612.693C291.151 611.877 292.431 611.197 295.645 610.936C302.104 610.382 308.728 610.428 315.323 610.473C317.14 610.486 318.954 610.498 320.762 610.498C321.922 610.498 323.076 610.493 324.225 610.488C329.71 610.464 335.082 610.441 340.454 610.97C344.733 611.373 349.012 611.809 353.29 612.246L353.315 612.249C355.859 612.517 358.304 612.646 360.755 612.775C362.304 612.857 363.856 612.939 365.438 613.056C366.767 613.174 368.004 613.384 369.23 613.591C370.106 613.739 370.975 613.886 371.868 613.999C373.99 614.252 376.264 614.372 378.46 614.488C379.176 614.526 379.884 614.563 380.576 614.604C385.465 614.907 390.355 615.177 395.311 615.446C415.74 616.489 436.638 617.061 457.268 617.398C462.965 617.483 468.65 617.473 474.333 617.462C482.147 617.448 489.958 617.433 497.791 617.667C503.283 617.835 508.575 617.936 514.067 617.903C528.16 617.827 542.03 618.314 555.982 618.804C560.729 618.97 565.485 619.137 570.263 619.283C574.226 619.408 578.189 619.527 582.152 619.647C592.054 619.946 601.956 620.244 611.858 620.629C625.388 621.167 638.985 621.672 652.582 621.874C657.379 621.94 662.176 622.157 666.973 622.375C672.022 622.603 677.071 622.832 682.12 622.884C689.278 622.946 695.8 623.329 702.706 623.734C703.232 623.764 703.76 623.795 704.29 623.826C708.752 624.078 713.523 624.003 718.225 623.929C720.44 623.894 722.641 623.86 724.786 623.86C725.51 623.86 726.321 623.891 727.15 623.922C728.622 623.977 730.151 624.035 731.35 623.927C734.029 623.693 734.278 623.332 734.781 622.6C734.857 622.49 734.938 622.372 735.034 622.244C735.188 622.051 735.282 621.89 735.364 621.749C735.637 621.279 735.774 621.044 737.58 620.629C739.251 620.235 741.656 620.067 743.81 619.916C744.417 619.873 745.005 619.832 745.55 619.788C756.87 618.812 768.39 618.307 780.045 617.903C784.617 617.729 789.21 617.503 793.811 617.275C800.805 616.93 807.818 616.584 814.808 616.422C819.968 616.283 825.159 616.319 830.339 616.355C832.69 616.372 835.038 616.388 837.38 616.388C845.384 616.388 853.338 616.514 861.292 616.641C869.246 616.767 877.2 616.893 885.204 616.893H906.637C907.354 616.893 908.052 616.897 908.736 616.9C911.63 616.916 914.282 616.93 917.153 616.657C919.213 616.462 920.439 616.074 921.733 615.665C922.669 615.368 923.64 615.061 924.99 614.806C928.015 614.242 931.206 614 934.44 613.754C936.218 613.619 938.01 613.483 939.793 613.292C943.314 612.892 946.595 612.904 950.126 612.917C950.758 612.919 951.399 612.922 952.05 612.922C953.816 612.922 955.594 612.911 957.373 612.9C960.046 612.884 962.725 612.868 965.379 612.888C971.892 612.921 978.264 613.284 984.623 613.647C991.41 614.034 998.183 614.42 1005.1 614.403C1013.9 614.383 1022.25 614.999 1030.62 615.617C1036.41 616.044 1042.2 616.471 1048.17 616.691C1059.56 617.109 1071.14 617.042 1082.66 616.976C1086.91 616.951 1091.16 616.927 1095.39 616.927H1145.96C1167.26 616.927 1188.36 617.129 1209.66 617.398C1220.19 617.515 1230.78 617.486 1241.35 617.457C1246.04 617.444 1250.73 617.432 1255.4 617.432C1258.48 617.432 1261.57 617.448 1264.66 617.464C1272.41 617.506 1280.18 617.547 1287.89 617.331C1291.2 617.23 1294.52 617.078 1297.83 616.927C1301.15 616.775 1304.47 616.624 1307.78 616.523C1310.73 616.439 1313.66 616.447 1316.58 616.456C1319.5 616.464 1322.42 616.472 1325.33 616.388C1327.12 616.335 1328.9 616.266 1330.67 616.196C1334.54 616.045 1338.39 615.894 1342.34 615.917C1343.31 615.917 1344.27 615.926 1345.24 615.935C1347.52 615.956 1349.8 615.978 1352.06 615.883C1356.01 615.681 1368.6 614.571 1365.85 612.484C1356.95 611.544 1347.15 611.698 1337.54 611.848C1333.06 611.919 1328.61 611.988 1324.33 611.946C1321.14 611.915 1318.02 611.797 1314.89 611.679C1311.03 611.534 1307.18 611.389 1303.23 611.407H1292.04H1206.71H1185.48H1173.89H1164.35C1171.13 611.343 1310.61 609.283 1308.85 609.152C1303.03 606.531 1220.17 606.941 1191.88 607.081C1185.66 607.112 1182.08 607.129 1182.53 607.099C1194.12 606.263 1205.77 606.316 1217.46 606.37C1219.41 606.379 1221.36 606.388 1223.32 606.392C1228.12 606.41 1232.88 606.267 1237.65 606.123C1241.86 605.996 1246.07 605.87 1250.31 605.854C1253.96 605.837 1257.61 605.862 1261.27 605.888C1264.92 605.913 1268.56 605.938 1272.21 605.921C1282.5 605.881 1292.79 605.622 1303.08 605.364C1309.94 605.192 1316.8 605.019 1323.66 604.911C1326.47 604.868 1329.28 604.822 1332.08 604.777C1340.14 604.646 1348.17 604.515 1356.27 604.44C1359.4 604.409 1362.45 604.292 1365.5 604.175C1369.06 604.039 1372.62 603.902 1376.3 603.902C1390.64 603.935 1405.04 603.498 1418.97 602.522C1420.36 602.429 1421.85 602.452 1423.33 602.476C1426.14 602.52 1428.9 602.564 1430.82 601.815L1430.91 601.78C1432.87 601.004 1434.27 600.453 1436.12 600H1440V599.291V24Z" fill="#E4F7FA"/>
</svg>
