<svg width="115" height="32" viewBox="0 0 115 32" fill="none" xmlns="http://www.w3.org/2000/svg">
<path d="M26.0886 5.69477C25.7051 11.0981 23.259 16.1291 19.2802 19.6978C18.5793 18.8773 17.7419 17.5396 17.1322 16.0851C19.6143 14.0664 21.4163 11.3015 22.2849 8.17921C22.2849 8.14145 14.1588 4.44554 5.11837 8.48828C5.06496 7.98918 5.0255 7.48638 5 6.97987C8.23219 5.26751 11.7789 4.26841 15.4113 4.04705C19.0437 3.8257 22.681 4.38701 26.0886 5.69477Z" fill="#AED43D"/>
<path d="M28.9122 6.98358C28.7188 10.6767 27.7775 14.2882 26.1483 17.5886C24.519 20.889 22.2374 23.8061 19.4484 26.1544C15.0751 23.1085 12.049 18.4204 11.0254 13.1052C12.0698 12.8945 13.6194 12.822 15.1539 13.0091C15.6166 16.2208 17.0503 19.2032 19.2535 21.5368C19.286 21.556 26.4012 16.2573 27.569 6.31885C28.0237 6.52736 28.4715 6.74894 28.9122 6.98358Z" fill="#5E9034"/>
<path d="M16.8952 28C13.8624 25.9936 11.2702 23.3629 9.28333 20.2749C7.29645 17.187 5.95833 13.7094 5.354 10.0632C10.1067 7.68755 15.5816 7.32544 20.5931 9.05529C20.2529 10.0886 19.5446 11.5024 18.6239 12.7739C15.6731 11.59 12.4343 11.3835 9.36292 12.1835C9.33051 12.2028 10.2855 21.1611 18.1255 27.1358C17.723 27.4365 17.3129 27.7246 16.8952 28Z" fill="#90BB3A"/>
<path d="M34.6768 12.3919C34.6768 11.7153 34.8843 11.1729 35.2993 10.7648C35.7142 10.3568 36.2658 10.1528 36.9542 10.1527H38.8218C39.5101 10.1527 40.0617 10.3567 40.4768 10.7648C40.8917 11.1729 41.0992 11.7153 41.0993 12.3919V20.9607C41.0993 21.6376 40.8918 22.18 40.4768 22.5879C40.0616 22.9961 39.51 23.2001 38.8218 23.2H36.9542C36.2658 23.2 35.7142 22.996 35.2993 22.5879C34.8841 22.1799 34.6766 21.6375 34.6768 20.9607V12.3919ZM37.3187 21.1697H38.4574C38.5334 21.1706 38.6088 21.1565 38.6792 21.1283C38.7497 21.1001 38.8136 21.0584 38.8674 21.0055C38.9211 20.9527 38.9636 20.8898 38.9923 20.8206C39.021 20.7513 39.0353 20.6772 39.0344 20.6024V12.8249C39.0406 12.7383 39.0289 12.6514 39.0002 12.5693C38.9715 12.4873 38.9264 12.4117 38.8674 12.3472C38.814 12.2937 38.7502 12.2516 38.6796 12.2234C38.6091 12.1951 38.5335 12.1814 38.4574 12.1829H37.3187C37.2426 12.1813 37.1669 12.195 37.0964 12.2233C37.0259 12.2515 36.962 12.2937 36.9087 12.3472C36.8497 12.4117 36.8045 12.4872 36.7758 12.5693C36.7471 12.6514 36.7355 12.7383 36.7417 12.8249V20.6024C36.7408 20.6772 36.7551 20.7513 36.7838 20.8206C36.8125 20.8898 36.8549 20.9527 36.9087 21.0055C36.9625 21.0584 37.0264 21.1001 37.0968 21.1283C37.1672 21.1565 37.2427 21.1706 37.3187 21.1697Z" fill="#5E9034"/>
<path d="M51.7583 12.3919C51.7583 11.7153 51.9658 11.1729 52.3808 10.7648C52.7957 10.3568 53.3474 10.1528 54.0358 10.1527H55.9033C56.5915 10.1527 57.1432 10.3567 57.5583 10.7648C57.9732 11.1729 58.1807 11.7153 58.1808 12.3919V20.9607C58.1808 21.6376 57.9733 22.18 57.5583 22.5879C57.1432 22.9961 56.5915 23.2001 55.9033 23.2H54.0358C53.3472 23.2 52.7956 22.996 52.3808 22.5879C51.9656 22.1799 51.7581 21.6375 51.7583 20.9607V12.3919ZM54.4001 21.1697H55.5389C55.6149 21.1706 55.6904 21.1565 55.7608 21.1283C55.8312 21.1001 55.8951 21.0583 55.9489 21.0055C56.0026 20.9526 56.0451 20.8898 56.0737 20.8205C56.1024 20.7513 56.1167 20.6772 56.1159 20.6024V12.8249C56.122 12.7383 56.1104 12.6514 56.0817 12.5693C56.053 12.4873 56.0078 12.4117 55.9488 12.3472C55.8955 12.2937 55.8316 12.2516 55.7611 12.2234C55.6907 12.1951 55.615 12.1814 55.5389 12.1829H54.4001C54.324 12.1813 54.2484 12.1951 54.1779 12.2233C54.1074 12.2515 54.0435 12.2937 53.9903 12.3472C53.9312 12.4117 53.886 12.4872 53.8573 12.5693C53.8286 12.6514 53.817 12.7383 53.8232 12.8249V20.6024C53.8223 20.6772 53.8366 20.7513 53.8653 20.8205C53.894 20.8898 53.9365 20.9526 53.9902 21.0055C54.044 21.0583 54.1079 21.1001 54.1783 21.1283C54.2487 21.1565 54.3241 21.1706 54.4001 21.1697Z" fill="#5E9034"/>
<path d="M59.7139 10.2274H61.7788V15.6613H63.859V10.2274H65.9239V23.1254H63.859V17.6915H61.7788V23.1254H59.7139V10.2274Z" fill="#5E9034"/>
<path d="M67.2903 17.8408V15.8105H71.7389V17.8408H67.2903Z" fill="#5E9034"/>
<path d="M73.2571 21.1847V12.183C73.2571 11.5959 73.4367 11.1257 73.7961 10.7723C74.1553 10.4191 74.6335 10.2425 75.2309 10.2423H77.4932C78.0904 10.2423 78.5687 10.419 78.9281 10.7723C79.2873 11.1256 79.4669 11.5959 79.4671 12.183V14.6462L77.4022 13.9744V12.8399C77.403 12.7651 77.3887 12.6909 77.36 12.6217C77.3313 12.5525 77.2889 12.4896 77.2351 12.4368C77.1814 12.3839 77.1174 12.3422 77.047 12.314C76.9766 12.2858 76.9011 12.2717 76.8251 12.2726H75.899C75.823 12.2717 75.7476 12.2858 75.6772 12.314C75.6067 12.3422 75.5428 12.3839 75.489 12.4368C75.4353 12.4896 75.3928 12.5525 75.3641 12.6217C75.3354 12.6909 75.3211 12.7651 75.322 12.8399V20.5279C75.3211 20.6026 75.3354 20.6768 75.3641 20.746C75.3928 20.8152 75.4353 20.8781 75.489 20.9309C75.5428 20.9838 75.6068 21.0255 75.6772 21.0537C75.7476 21.0819 75.823 21.096 75.899 21.0951H76.8251C76.9011 21.096 76.9766 21.0819 77.047 21.0537C77.1174 21.0255 77.1813 20.9838 77.2351 20.9309C77.2889 20.8781 77.3313 20.8152 77.36 20.746C77.3887 20.6768 77.403 20.6026 77.4022 20.5279V19.3933L79.4671 20.0651V21.1847C79.4671 21.7721 79.2874 22.2423 78.9281 22.5955C78.5687 22.9488 78.0904 23.1255 77.4932 23.1254H75.2309C74.6335 23.1254 74.1553 22.9487 73.7961 22.5955C73.4367 22.2423 73.257 21.772 73.2571 21.1847Z" fill="#5E9034"/>
<path d="M80.4082 10.2423H86.8763V12.2576H84.6747V23.1254H82.6098V12.2576H80.4082V10.2423Z" fill="#5E9034"/>
<path d="M88.0908 10.2423H92.327C92.924 10.2423 93.4023 10.419 93.7617 10.7723C94.1209 11.1256 94.3006 11.5959 94.3008 12.183V16.1987C94.3008 16.786 94.1211 17.2563 93.7617 17.6094C93.4023 17.9628 92.9241 18.1394 92.327 18.1393H90.1557V23.1254H88.0908V10.2423ZM90.1557 12.2576V16.1091H91.6589C91.7349 16.11 91.8103 16.0959 91.8807 16.0677C91.9511 16.0395 92.0151 15.9978 92.0688 15.9449C92.1226 15.8921 92.165 15.8292 92.1937 15.76C92.2224 15.6908 92.2367 15.6166 92.2358 15.5419V12.8249C92.2367 12.7502 92.2224 12.676 92.1937 12.6068C92.1651 12.5376 92.1226 12.4747 92.0688 12.4218C92.0151 12.369 91.9511 12.3272 91.8807 12.299C91.8103 12.2708 91.7349 12.2568 91.6589 12.2576L90.1557 12.2576Z" fill="#5E9034"/>
<path d="M95.5913 12.3919C95.5913 11.7153 95.7988 11.1729 96.2138 10.7648C96.6287 10.3568 97.1804 10.1528 97.8688 10.1527H99.7363C100.425 10.1527 100.976 10.3567 101.391 10.7648C101.806 11.1729 102.014 11.7153 102.014 12.3919V20.9607C102.014 21.6376 101.806 22.18 101.391 22.5879C100.976 22.9961 100.424 23.2001 99.7363 23.2H97.8688C97.1802 23.2 96.6286 22.996 96.2138 22.5879C95.7986 22.1799 95.5911 21.6375 95.5913 20.9607V12.3919ZM98.2331 21.1697H99.3719C99.4479 21.1706 99.5234 21.1565 99.5938 21.1283C99.6642 21.1001 99.7281 21.0583 99.7819 21.0055C99.8356 20.9526 99.8781 20.8898 99.9068 20.8205C99.9354 20.7513 99.9498 20.6772 99.9489 20.6024V12.8249C99.955 12.7383 99.9434 12.6514 99.9147 12.5693C99.886 12.4873 99.8408 12.4117 99.7818 12.3472C99.7285 12.2937 99.6646 12.2516 99.5942 12.2234C99.5237 12.1951 99.448 12.1814 99.3719 12.1829H98.2331C98.157 12.1813 98.0814 12.195 98.0109 12.2233C97.9404 12.2515 97.8765 12.2937 97.8233 12.3472C97.7642 12.4117 97.719 12.4872 97.6903 12.5693C97.6616 12.6514 97.65 12.7383 97.6562 12.8249V20.6024C97.6553 20.6772 97.6696 20.7513 97.6983 20.8205C97.727 20.8898 97.7695 20.9526 97.8232 21.0055C97.877 21.0583 97.9409 21.1001 98.0113 21.1283C98.0817 21.1565 98.1571 21.1706 98.2331 21.1697Z" fill="#5E9034"/>
<path d="M105.612 10.2273L105.536 17.6467L107.494 11.3619C107.595 11.028 107.806 10.7365 108.094 10.5334C108.379 10.3306 108.722 10.2233 109.074 10.2273H110V23.1253H107.935L108.011 15.706L106.052 21.9908C105.951 22.3247 105.74 22.6162 105.452 22.8193C105.168 23.0221 104.824 23.1294 104.473 23.1253H103.547V10.2273H105.612ZM108.664 7.59998L108.314 8.28665C108.204 8.48436 108.045 8.65132 107.851 8.77181C107.659 8.89472 107.435 8.95961 107.206 8.95844H105.202V7.59998L108.664 7.59998Z" fill="#5E9034"/>
<path d="M49.5258 21.0951V10.2274H45.3049C44.7075 10.2274 44.2292 10.404 43.8701 10.7573C43.5106 11.1107 43.331 11.5809 43.331 12.168V21.0951H42.405L41.7217 23.1254H50.8088V21.0951H49.5258ZM45.396 21.0951V12.8249C45.4011 12.676 45.4634 12.5346 45.5706 12.4292C45.6777 12.3239 45.8216 12.2626 45.973 12.2576H47.461V21.0951L45.396 21.0951Z" fill="#5E9034"/>
</svg>
