<svg width="200" height="40" viewBox="0 0 200 40" fill="none" xmlns="http://www.w3.org/2000/svg">
<path d="M58.1181 6.25969C57.6068 13.4642 54.3453 20.1722 49.0402 24.9305C48.1058 23.8364 46.9893 22.0528 46.1763 20.1134C49.4857 17.4219 51.8884 13.7354 53.0465 9.57227C53.0465 9.52193 42.2117 4.59405 30.1578 9.98438C30.0866 9.31891 30.034 8.6485 30 7.97316C34.3096 5.69001 39.0386 4.35788 43.8818 4.06274C48.7249 3.7676 53.5747 4.51602 58.1181 6.25969Z" fill="#AED43D"/>
<path d="M61.8828 7.97811C61.6249 12.9023 60.3699 17.7176 58.1975 22.1181C56.0252 26.5186 52.983 30.4081 49.2644 33.5393C43.4333 29.478 39.3985 23.2271 38.0337 16.1403C39.4262 15.8593 41.4924 15.7627 43.5384 16.0121C44.1553 20.2945 46.0669 24.271 49.0045 27.3824C49.0479 27.408 58.5348 20.3431 60.0919 7.0918C60.6981 7.36982 61.2951 7.66526 61.8828 7.97811Z" fill="#5E9034"/>
<path d="M45.8604 35.9999C41.8167 33.3248 38.3604 29.8172 35.7113 25.6999C33.0621 21.5827 31.2779 16.9459 30.4722 12.0842C36.8091 8.91673 44.109 8.43393 50.791 10.7404C50.3373 12.1181 49.3929 14.0032 48.1654 15.6985C44.231 14.12 39.9125 13.8447 35.8174 14.9113C35.7742 14.9371 37.0475 26.8814 47.5008 34.8477C46.9641 35.2487 46.4173 35.6328 45.8604 35.9999Z" fill="#90BB3A"/>
<path d="M69.5688 15.1894C69.5688 14.2871 69.8455 13.564 70.3989 13.0198C70.9521 12.4758 71.6876 12.2038 72.6055 12.2037H75.0956C76.0133 12.2037 76.7488 12.4758 77.3022 13.0198C77.8554 13.564 78.1321 14.2872 78.1323 15.1894V26.6144C78.1323 27.517 77.8556 28.2402 77.3022 28.784C76.7487 29.3282 76.0131 29.6003 75.0956 29.6001H72.6055C71.6876 29.6001 70.9521 29.3281 70.3989 28.784C69.8453 28.2401 69.5686 27.5169 69.5688 26.6144V15.1894ZM73.0914 26.8931H74.6097C74.711 26.8942 74.8116 26.8755 74.9055 26.8379C74.9994 26.8003 75.0847 26.7446 75.1563 26.6741C75.228 26.6037 75.2846 26.5198 75.3229 26.4275C75.3611 26.3352 75.3802 26.2364 75.3791 26.1367V15.7666C75.3872 15.6512 75.3717 15.5353 75.3335 15.4259C75.2952 15.3165 75.235 15.2157 75.1563 15.1297C75.0852 15.0584 75 15.0023 74.906 14.9646C74.812 14.9269 74.7112 14.9086 74.6097 14.9107H73.0914C72.9899 14.9085 72.8891 14.9269 72.795 14.9645C72.701 15.0022 72.6159 15.0584 72.5448 15.1297C72.4661 15.2157 72.4058 15.3164 72.3675 15.4259C72.3293 15.5353 72.3138 15.6512 72.3221 15.7666V26.1367C72.3209 26.2364 72.34 26.3352 72.3782 26.4275C72.4165 26.5198 72.4731 26.6037 72.5448 26.6741C72.6165 26.7446 72.7017 26.8003 72.7956 26.8379C72.8895 26.8755 72.9901 26.8943 73.0914 26.8931Z" fill="#5E9034"/>
<path d="M92.3442 15.1894C92.3442 14.2871 92.6209 13.564 93.1742 13.0198C93.7275 12.4758 94.463 12.2038 95.3809 12.2037H97.8709C98.7885 12.2037 99.5241 12.4758 100.078 13.0198C100.631 13.564 100.907 14.2872 100.908 15.1894V26.6144C100.908 27.517 100.631 28.2402 100.078 28.784C99.524 29.3282 98.7885 29.6003 97.8709 29.6001H95.3809C94.4628 29.6001 93.7273 29.3281 93.1742 28.784C92.6207 28.2401 92.344 27.5169 92.3442 26.6144V15.1894ZM95.8667 26.8931H97.3851C97.4864 26.8942 97.587 26.8755 97.6808 26.8378C97.7747 26.8002 97.86 26.7446 97.9316 26.6741C98.0033 26.6036 98.0599 26.5198 98.0982 26.4275C98.1364 26.3352 98.1555 26.2363 98.1543 26.1367V15.7666C98.1625 15.6512 98.147 15.5353 98.1087 15.4259C98.0705 15.3165 98.0102 15.2157 97.9316 15.1297C97.8605 15.0584 97.7754 15.0023 97.6814 14.9646C97.5874 14.9269 97.4866 14.9086 97.3851 14.9107H95.8667C95.7652 14.9085 95.6644 14.9269 95.5704 14.9645C95.4764 15.0022 95.3912 15.0584 95.3202 15.1297C95.2415 15.2157 95.1812 15.3164 95.1429 15.4259C95.1047 15.5353 95.0892 15.6512 95.0974 15.7666V26.1367C95.0963 26.2363 95.1154 26.3352 95.1536 26.4275C95.1918 26.5198 95.2485 26.6036 95.3201 26.6741C95.3918 26.7446 95.4771 26.8002 95.5709 26.8378C95.6648 26.8754 95.7653 26.8942 95.8667 26.8931Z" fill="#5E9034"/>
<path d="M102.952 12.3032H105.705V19.5484H108.479V12.3032H111.232V29.5006H108.479V22.2554H105.705V29.5006H102.952V12.3032Z" fill="#5E9034"/>
<path d="M113.054 22.4544V19.7474H118.985V22.4544H113.054Z" fill="#5E9034"/>
<path d="M121.01 26.913V14.9107C121.01 14.1279 121.249 13.5009 121.728 13.0298C122.207 12.5589 122.845 12.3233 123.641 12.3231H126.658C127.454 12.3231 128.092 12.5587 128.571 13.0298C129.05 13.5009 129.289 14.1279 129.29 14.9107V18.1949L126.536 17.2992V15.7865C126.537 15.6869 126.518 15.588 126.48 15.4957C126.442 15.4034 126.385 15.3195 126.314 15.2491C126.242 15.1786 126.157 15.1229 126.063 15.0853C125.969 15.0477 125.868 15.029 125.767 15.0301H124.532C124.431 15.029 124.33 15.0477 124.236 15.0853C124.142 15.1229 124.057 15.1786 123.985 15.2491C123.914 15.3195 123.857 15.4034 123.819 15.4957C123.781 15.588 123.762 15.6869 123.763 15.7865V26.0372C123.762 26.1369 123.781 26.2358 123.819 26.328C123.857 26.4203 123.914 26.5042 123.985 26.5746C124.057 26.6451 124.142 26.7008 124.236 26.7384C124.33 26.7759 124.431 26.7947 124.532 26.7935H125.767C125.868 26.7947 125.969 26.7759 126.063 26.7384C126.157 26.7008 126.242 26.6451 126.314 26.5746C126.385 26.5042 126.442 26.4203 126.48 26.328C126.518 26.2358 126.537 26.1369 126.536 26.0372V24.5245L129.29 25.4202V26.913C129.29 27.6961 129.05 28.3231 128.571 28.794C128.092 29.2651 127.454 29.5006 126.658 29.5006H123.641C122.845 29.5006 122.207 29.265 121.728 28.794C121.249 28.3231 121.009 27.6961 121.01 26.913Z" fill="#5E9034"/>
<path d="M130.544 12.3231H139.169V15.0102H136.233V29.5005H133.48V15.0102H130.544V12.3231Z" fill="#5E9034"/>
<path d="M140.788 12.3231H146.436C147.232 12.3231 147.87 12.5587 148.349 13.0298C148.828 13.5009 149.068 14.1279 149.068 14.9107V20.2649C149.068 21.0481 148.828 21.675 148.349 22.1459C147.87 22.6171 147.232 22.8526 146.436 22.8525H143.541V29.5005H140.788V12.3231ZM143.541 15.0102V20.1456H145.545C145.647 20.1467 145.747 20.128 145.841 20.0904C145.935 20.0528 146.02 19.9971 146.092 19.9266C146.164 19.8561 146.22 19.7723 146.258 19.68C146.297 19.5877 146.316 19.4888 146.314 19.3892V15.7666C146.316 15.667 146.297 15.5681 146.258 15.4758C146.22 15.3835 146.164 15.2996 146.092 15.2291C146.02 15.1587 145.935 15.103 145.841 15.0654C145.747 15.0278 145.647 15.0091 145.545 15.0102L143.541 15.0102Z" fill="#5E9034"/>
<path d="M150.788 15.1894C150.788 14.2871 151.065 13.564 151.618 13.0198C152.172 12.4758 152.907 12.2038 153.825 12.2037H156.315C157.233 12.2037 157.968 12.4758 158.522 13.0198C159.075 13.564 159.352 14.2872 159.352 15.1894V26.6144C159.352 27.517 159.075 28.2402 158.522 28.784C157.968 29.3282 157.233 29.6003 156.315 29.6001H153.825C152.907 29.6001 152.171 29.3281 151.618 28.784C151.065 28.2401 150.788 27.5169 150.788 26.6144V15.1894ZM154.311 26.8931H155.829C155.931 26.8942 156.031 26.8755 156.125 26.8378C156.219 26.8002 156.304 26.7446 156.376 26.6741C156.447 26.6036 156.504 26.5198 156.542 26.4275C156.581 26.3352 156.6 26.2363 156.598 26.1367V15.7666C156.607 15.6512 156.591 15.5353 156.553 15.4259C156.515 15.3165 156.454 15.2157 156.376 15.1297C156.305 15.0584 156.219 15.0023 156.125 14.9646C156.031 14.9269 155.931 14.9086 155.829 14.9107H154.311C154.209 14.9085 154.108 14.9269 154.014 14.9645C153.92 15.0022 153.835 15.0584 153.764 15.1297C153.686 15.2157 153.625 15.3164 153.587 15.4259C153.549 15.5353 153.533 15.6512 153.542 15.7666V26.1367C153.54 26.2363 153.559 26.3352 153.598 26.4275C153.636 26.5198 153.693 26.6036 153.764 26.6741C153.836 26.7446 153.921 26.8002 154.015 26.8378C154.109 26.8754 154.209 26.8942 154.311 26.8931Z" fill="#5E9034"/>
<path d="M164.149 12.3032L164.048 22.1956L166.659 13.8159C166.794 13.3707 167.075 12.9821 167.459 12.7112C167.839 12.4409 168.296 12.2978 168.765 12.3032H170V29.5005H167.247L167.348 19.6081L164.736 27.9878C164.602 28.4331 164.32 28.8217 163.937 29.0924C163.557 29.3629 163.099 29.506 162.631 29.5005H161.396V12.3032H164.149ZM168.218 8.80005L167.753 9.71561C167.606 9.97923 167.394 10.2018 167.135 10.3625C166.879 10.5264 166.58 10.6129 166.275 10.6113H163.603V8.80005L168.218 8.80005Z" fill="#5E9034"/>
<path d="M89.3679 26.7935V12.3032H83.74C82.9435 12.3032 82.3058 12.5388 81.8269 13.0099C81.3477 13.481 81.1081 14.108 81.1082 14.8908V26.7935H79.8734L78.9624 29.5006H91.0785V26.7935H89.3679ZM83.8615 26.7935V15.7666C83.8682 15.5681 83.9514 15.3795 84.0943 15.2391C84.2371 15.0986 84.4289 15.0168 84.6308 15.0102H86.6148V26.7935L83.8615 26.7935Z" fill="#5E9034"/>
</svg>
