<svg width="530" height="528" viewBox="0 0 530 528" fill="none" xmlns="http://www.w3.org/2000/svg">
<path d="M518.223 259.955C512.733 203.248 484.145 146.678 459.489 115.431C354.952 -16.9911 145.22 -16.7376 45.2409 149.593C17.0555 196.5 -0.635945 300.802 20.2991 377.942C47.0853 476.678 152.64 515.127 270.024 514.272C379.703 513.374 465.944 465.865 498.2 400.224C518.435 359.177 523.714 316.663 518.223 259.955Z" fill="#37474F"/>
<path d="M45.2409 149.593C17.0555 196.5 -0.635945 300.801 20.2991 377.942C24.7138 394.506 31.8215 410.237 41.3401 424.512L157.94 357.488L257.262 300.368L490.526 166.13C480.816 146.066 469.813 128.515 459.499 115.442C354.952 -16.9912 145.22 -16.7377 45.2409 149.593Z" fill="#263238"/>
<path opacity="0.2" d="M323.872 344.541V331.51L304.983 320.644V307.613L286.094 296.736V283.715L267.215 272.849L185.595 317.201L206.795 329.335V342.366L225.684 353.221V366.263L244.574 377.119V390.16L327.317 509.288C409.255 495.507 471.806 453.943 498.2 400.224C501.253 394.015 503.97 387.76 506.351 381.459L323.872 344.541Z" fill="#2E8FB8"/>
<path opacity="0.15" d="M207.527 90.4992C152.301 122.179 107.526 207.082 107.526 280.178C107.526 323.611 123.342 353.105 147.806 363.243L157.908 357.435L257.23 300.316L267.586 294.36C291.871 256.291 307.57 208.824 307.57 165.528C307.527 92.4528 262.763 58.8509 207.527 90.4992Z" fill="#2E8FB8"/>
<path opacity="0.15" d="M207.527 111.64C161.12 138.252 123.5 209.595 123.5 271.022C123.5 332.45 161.12 360.687 207.527 334.097C253.933 307.507 291.563 236.132 291.563 174.705C291.563 113.277 253.944 85.0397 207.527 111.64Z" fill="#2E8FB8"/>
<path opacity="0.15" d="M207.527 126.54C167.48 149.582 135.012 211.38 135.012 264.57C135.012 317.761 167.48 342.228 207.527 319.197C247.574 296.166 280.041 234.358 280.041 181.157C280.041 127.956 247.584 103.488 207.527 126.54Z" fill="#2E8FB8"/>
<path d="M164.766 267.094C164.766 221.01 192.899 167.471 227.592 147.502C242.888 138.716 256.891 137.903 267.777 143.69L253.668 135.559C242.644 129.223 228.228 129.751 212.498 138.811C177.783 158.78 149.661 212.319 149.661 258.403C149.661 283.631 158.088 301.393 171.412 309.038C173.691 310.337 182.161 315.227 185.616 317.212C172.78 309.281 164.766 291.752 164.766 267.094Z" fill="#2E8FB8"/>
<path opacity="0.3" d="M164.766 267.094C164.766 221.01 192.899 167.471 227.592 147.502C242.888 138.716 256.891 137.903 267.777 143.69L253.668 135.559C242.644 129.223 228.228 129.751 212.498 138.811C177.783 158.78 149.661 212.319 149.661 258.403C149.661 283.631 158.088 301.393 171.412 309.038C173.691 310.337 182.161 315.227 185.616 317.212C172.78 309.281 164.766 291.752 164.766 267.094Z" fill="white"/>
<path d="M252.28 157.164C257.76 164.451 260.696 176.046 260.039 191.125C258.46 228.085 235.892 272.057 209.647 289.259C201.675 294.487 194.266 296.651 187.885 296.071C195.856 306.631 209.212 308.141 224.752 297.95C251.008 280.748 273.575 236.808 275.155 199.806C276.236 174.06 266.887 158.463 252.28 157.164Z" fill="#2E8FB8"/>
<path opacity="0.15" d="M252.28 157.164C257.76 164.451 260.696 176.046 260.039 191.125C258.46 228.085 235.892 272.057 209.647 289.259C201.675 294.487 194.266 296.651 187.885 296.071C195.856 306.631 209.212 308.141 224.752 297.95C251.008 280.748 273.575 236.808 275.155 199.806C276.236 174.06 266.887 158.463 252.28 157.164Z" fill="black"/>
<path d="M180.772 168.485L195.877 177.176L197.086 175.56L181.981 166.848C181.567 167.408 181.175 167.904 180.772 168.485Z" fill="#2E8FB8"/>
<path d="M173.84 218.814L158.682 210.144C158.47 210.725 158.269 211.327 158.067 211.918L173.172 220.609C173.384 219.997 173.575 219.395 173.84 218.814Z" fill="#2E8FB8"/>
<path d="M242.74 131.725L257.855 140.448C258.47 140.554 259.085 140.659 259.689 140.786L244.574 132.095C243.969 131.937 243.355 131.821 242.74 131.725Z" fill="#2E8FB8"/>
<path d="M166.897 244.337C167.013 243.683 167.141 243.017 167.268 242.363L152.163 233.672C152.025 234.326 151.898 234.981 151.781 235.646L166.897 244.337Z" fill="#2E8FB8"/>
<path d="M195.623 151.589L210.728 160.28C211.247 159.783 211.788 159.287 212.297 158.812L197.16 150.121C196.662 150.596 196.1 151.092 195.623 151.589Z" fill="#2E8FB8"/>
<path d="M166.971 287.781C166.833 287.2 166.706 286.609 166.579 286.018L166.462 285.754L151.432 277.105C151.569 277.781 151.707 278.446 151.866 279.101L166.971 287.781Z" fill="#2E8FB8"/>
<path d="M229.564 132.116C228.928 132.243 228.271 132.412 227.625 132.57L242.74 141.261C243.397 141.092 244.055 140.944 244.701 140.818L229.564 132.116Z" fill="#2E8FB8"/>
<path d="M228.536 146.995L213.431 138.336C213.113 138.516 212.806 138.663 212.498 138.843L211.576 139.403L226.681 148.094L227.593 147.534L228.536 146.995Z" fill="#2E8FB8"/>
<path d="M167.968 189.024L183.073 197.715L183.963 196.067L168.858 187.377C168.54 187.905 168.254 188.454 167.968 189.024Z" fill="#2E8FB8"/>
<path d="M173.384 304.36C173.045 303.78 172.727 303.199 172.398 302.597L157.304 293.917C157.622 294.518 157.961 295.099 158.3 295.68L173.384 304.36Z" fill="#2E8FB8"/>
<path d="M149.661 258.572L164.766 267.274V267.094C164.766 266.45 164.766 265.785 164.766 265.13L149.651 256.439C149.651 257.094 149.651 257.759 149.651 258.403L149.661 258.572Z" fill="#2E8FB8"/>
<path d="M227.593 147.502C192.899 167.471 164.767 221.01 164.767 267.094C164.767 313.178 192.899 334.372 227.593 314.413C262.287 294.455 290.44 240.916 290.44 194.821C290.44 148.727 262.297 127.544 227.593 147.502ZM275.123 199.806C273.544 236.766 250.976 280.738 224.72 297.94C198.464 315.142 178.483 299.101 180.062 262.11C181.642 225.118 204.23 181.178 230.465 163.976C256.7 146.773 276.713 162.814 275.123 199.806Z" fill="#2E8FB8"/>
<g opacity="0.15">
<path d="M214.735 177.883C215.243 177.324 215.742 176.753 216.261 176.204L212.286 158.812C211.756 159.287 211.226 159.773 210.717 160.269L214.735 177.883Z" fill="black"/>
<path d="M226.67 148.051V166.7C227.285 166.225 227.9 165.76 228.525 165.317V146.985L227.593 147.502L226.67 148.051Z" fill="black"/>
<path d="M239.443 159.287C240.122 159.023 240.8 158.78 241.468 158.569L244.648 140.807C244.001 140.934 243.344 141.082 242.687 141.24L239.443 159.287Z" fill="black"/>
<path d="M188.224 223.46L188.892 221.707L173.84 218.803C173.628 219.395 173.416 219.986 173.214 220.577L188.224 223.46Z" fill="black"/>
<path d="M195.358 206.976L196.206 205.286L183.953 196.057L183.073 197.715L195.358 206.976Z" fill="black"/>
<path d="M287.864 172.688L274.54 185.138C274.646 185.877 274.741 186.627 274.826 187.408L288.405 174.736C288.203 174.06 288.044 173.363 287.864 172.688Z" fill="black"/>
<path d="M180.518 256.08L164.788 265.119C164.788 265.785 164.788 266.439 164.788 267.094V267.274L180.327 258.34C180.359 257.59 180.444 256.83 180.518 256.08Z" fill="black"/>
<path d="M183.062 240.768C183.221 240.103 183.39 239.437 183.549 238.762L167.257 242.341C167.13 242.996 167.003 243.661 166.886 244.316L183.062 240.768Z" fill="black"/>
<path d="M251.962 157.154C252.609 157.207 253.234 157.281 253.849 157.386L259.7 140.733C259.085 140.606 258.47 140.49 257.845 140.385L251.962 157.154Z" fill="black"/>
<path d="M270.448 171.009C270.745 171.632 271.031 172.286 271.307 172.952L282.225 158.305C281.896 157.714 281.546 157.143 281.165 156.584L270.448 171.009Z" fill="black"/>
<path d="M262.731 161.198C263.23 161.579 263.717 161.98 264.194 162.413L272.42 146.721C271.922 146.33 271.423 145.96 270.904 145.601L262.731 161.198Z" fill="black"/>
<path d="M204.23 191.601L205.375 189.879L197.075 175.549L195.867 177.176L204.23 191.601Z" fill="black"/>
<path d="M240.779 283.673C240.281 284.254 239.719 284.814 239.263 285.363L243.238 302.808C243.768 302.333 244.298 301.815 244.807 301.319L240.779 283.673Z" fill="black"/>
<path d="M260.484 253.672C260.209 254.243 259.922 254.802 259.636 255.362L271.922 264.613L272.78 262.933L260.484 253.672Z" fill="black"/>
<path d="M251.517 269.491L250.372 271.223L258.693 285.585C259.096 285.046 259.509 284.529 259.901 283.969L251.517 269.491Z" fill="black"/>
<path d="M267.565 236.787C267.353 237.378 267.152 237.97 266.929 238.55L281.981 241.444C282.193 240.852 282.395 240.261 282.596 239.67L267.565 236.787Z" fill="black"/>
<path d="M272.537 219.268C272.399 219.933 272.261 220.598 272.102 221.253L288.32 217.716C288.437 217.05 288.543 216.396 288.659 215.741L272.537 219.268Z" fill="black"/>
<path d="M290.44 192.878L275.006 201.696C275.006 202.435 274.911 203.174 274.858 203.924L290.44 195.001V194.821C290.44 194.167 290.44 193.523 290.44 192.878Z" fill="black"/>
<path d="M228.525 313.854V295.226C227.911 295.701 227.285 296.166 226.67 296.609V314.941L227.593 314.413C227.9 314.234 228.218 314.033 228.525 313.854Z" fill="black"/>
<path d="M184.239 289.809C183.952 289.164 183.677 288.499 183.412 287.802L172.398 302.586C172.716 303.188 173.056 303.78 173.395 304.35L184.239 289.809Z" fill="black"/>
<path d="M191.796 300.21C191.309 299.809 190.832 299.387 190.365 298.932L182.097 314.688C182.585 315.089 183.083 315.469 183.592 315.839L191.796 300.21Z" fill="black"/>
<path d="M215.392 302.787C214.713 303.04 214.046 303.262 213.378 303.473L210.198 321.182C210.855 321.056 211.512 320.918 212.169 320.76L215.392 302.787Z" fill="black"/>
<path d="M202.619 304.719C201.983 304.656 201.368 304.561 200.753 304.445L194.966 321.024C195.581 321.172 196.195 321.288 196.81 321.394L202.619 304.719Z" fill="black"/>
<path d="M180.486 275.204C180.401 274.444 180.327 273.662 180.263 272.87L166.483 285.68C166.632 286.387 166.78 287.084 166.939 287.792L180.486 275.204Z" fill="black"/>
</g>
<path d="M244.552 390.171L172.748 348.871V309.767L187.864 318.458L206.774 329.345V342.376L225.663 353.232V366.274L244.552 377.129V390.171Z" fill="#263238"/>
<path d="M187.885 318.479L267.215 272.849L286.094 283.715L206.774 329.345L187.885 318.479Z" fill="#455A64"/>
<path d="M206.774 329.345V342.376L286.094 296.747V283.716L206.774 329.345Z" fill="#37474F"/>
<path d="M206.774 342.376L286.094 296.747L304.983 307.613L225.664 353.232L206.774 342.376Z" fill="#455A64"/>
<path d="M225.664 353.232V366.274L304.983 320.644V307.613L225.664 353.232Z" fill="#37474F"/>
<path d="M225.664 366.274L304.983 320.644L323.873 331.51L244.553 377.129L225.664 366.274Z" fill="#455A64"/>
<path d="M244.553 377.129V390.171L323.873 344.541V331.51L244.553 377.129Z" fill="#37474F"/>
<path d="M267.268 195.36C265.689 232.32 243.111 276.292 216.865 293.505C207.113 299.893 198.231 301.699 190.98 299.534C183.56 292.787 179.32 279.861 180.062 262.131C181.652 225.171 204.23 181.199 230.465 163.997C240.228 157.597 249.132 155.802 256.372 157.978C263.834 164.736 268.032 177.619 267.268 195.36Z" fill="#2E8FB8"/>
<path opacity="0.9" d="M267.268 195.36C265.689 232.32 243.111 276.292 216.865 293.505C207.113 299.893 198.231 301.699 190.98 299.534C183.56 292.787 179.32 279.861 180.062 262.131C181.652 225.171 204.23 181.199 230.465 163.997C240.228 157.597 249.132 155.802 256.372 157.978C263.834 164.736 268.032 177.619 267.268 195.36Z" fill="white"/>
<path opacity="0.1" d="M216.749 274.56C208.555 275.505 200.973 279.345 195.379 285.384C192.357 288.615 189.893 292.323 188.086 296.356C188.959 297.492 189.927 298.552 190.98 299.524C192.541 299.978 194.148 300.255 195.771 300.348C196.195 299.292 196.513 298.183 196.884 297.116C198.718 292.15 201.984 287.835 206.273 284.714C210.562 281.593 215.682 279.805 220.989 279.576C224.625 279.481 228.229 280.136 231.843 280.421C233.274 278.847 234.673 277.253 236.083 275.521C229.681 275.194 223.077 273.926 216.749 274.56ZM215.18 220.482C222.6 221.443 230.698 221.855 237.186 218.075C244.531 213.787 248.019 205.286 251.559 197.588C254.856 190.439 259.361 182.889 266.558 180.122C265.064 170.122 261.481 162.592 256.361 157.946C252.869 156.945 249.188 156.789 245.623 157.492C242.032 161.588 239.416 166.44 237.97 171.684C236.274 177.598 235.68 183.881 232.956 189.383C230.182 194.915 225.473 199.245 219.717 201.559C215.18 203.354 210.251 203.787 205.428 204.526C202.064 205.021 198.738 205.748 195.475 206.701C192.957 211.684 190.713 216.799 188.754 222.024C190.056 221.361 191.41 220.806 192.803 220.366C200.001 218.159 207.76 219.532 215.18 220.482ZM222.77 183.522C225.144 179.436 225.95 174.673 227.253 170.122C227.72 168.421 228.313 166.764 228.865 165.106C227.169 166.295 225.487 167.591 223.819 168.992C221.423 174.789 219.091 180.608 214.671 184.98C212.418 187.178 209.728 188.883 206.774 189.985C206.216 190.171 205.641 190.302 205.057 190.376C203.976 191.96 202.916 193.579 201.877 195.233C204.269 195.042 206.638 194.639 208.958 194.029C214.701 192.313 219.617 188.565 222.78 183.491L222.77 183.522ZM267.29 189.932C265.216 191.002 263.339 192.412 261.735 194.103C257.792 198.412 255.672 203.998 253.255 209.32C249.884 216.902 245.485 224.622 238.161 228.55C233.285 231.158 227.561 231.813 222.081 231.961C211.64 232.246 201.04 230.905 190.832 233.133C188.632 233.612 186.481 234.294 184.408 235.171C183.702 237.699 183.083 240.215 182.553 242.722C184.93 241.468 187.445 240.494 190.047 239.818C205.131 236.016 221.847 244.358 236.295 238.762C246.895 234.633 253.351 224.147 258.555 214.072C260.675 209.964 262.954 205.624 266.611 202.9C266.894 200.387 267.092 197.894 267.205 195.423C267.343 193.47 267.364 191.664 267.332 189.9L267.29 189.932ZM229.66 251.486C221.498 251.782 213.346 251.022 205.184 250.906C201.002 250.679 196.81 251.107 192.761 252.173C189.216 253.367 185.883 255.11 182.882 257.337C181.96 257.991 181.069 258.667 180.189 259.354C180.126 260.293 180.062 261.223 180.02 262.141C179.564 272.86 180.931 281.804 183.719 288.71C185.521 287.152 187.123 285.379 188.489 283.43C194.097 275.88 199.503 267.527 208.004 263.483C217.13 259.142 227.889 260.695 237.811 258.709C242.151 257.826 246.321 256.254 250.16 254.052C251.729 251.124 253.209 248.139 254.601 245.098C254.177 245.351 253.743 245.594 253.308 245.837C246.132 249.755 237.853 251.159 229.702 251.455L229.66 251.486Z" fill="#2E8FB8"/>
<path d="M285.786 130.279C285.786 133.869 285.108 137.058 280.698 137.829C285.214 138.019 285.532 140.997 285.786 145.158C285.935 141.029 286.327 138.019 290.418 137.829C286.2 137.132 285.786 133.869 285.786 130.279Z" fill="#2E8FB8"/>
<path d="M182.903 321.425C182.903 325.016 182.225 328.205 177.815 328.976C182.331 329.166 182.649 332.144 182.903 336.304C183.051 332.165 183.444 329.166 187.535 328.976C183.295 328.268 182.903 325.016 182.903 321.425Z" fill="#2E8FB8"/>
<path d="M149.757 210.799C149.757 212.372 149.46 213.756 147.531 214.094C149.502 214.178 149.651 215.498 149.757 217.262C149.82 215.456 149.99 214.094 151.781 214.094C149.926 213.787 149.757 212.372 149.757 210.799Z" fill="#2E8FB8"/>
<path d="M141.086 216.976C141.086 220.556 140.397 223.745 135.998 224.516C140.514 224.706 140.832 227.684 141.086 231.855C141.224 227.716 141.616 224.717 145.718 224.516C141.478 223.872 141.086 220.556 141.086 216.976Z" fill="#E0E0E0"/>
<path d="M136.952 198.982C136.952 200.83 136.602 202.456 134.344 202.858C136.655 202.953 136.825 204.495 136.952 206.617C137.026 204.505 137.227 202.953 139.337 202.858C137.153 202.499 136.952 200.83 136.952 198.982Z" fill="#E0E0E0"/>
<path d="M273.543 119.486C273.543 121.598 273.49 123.605 270.448 124.08C273.628 124.08 273.416 126.055 273.575 128.589C273.66 126.055 273.883 124.238 276.395 124.122C273.798 123.689 273.872 122.496 273.543 119.486Z" fill="#E0E0E0"/>
<path d="M299.98 217.219C299.757 221.179 299.439 222.89 295.846 223.365C299.503 223.566 299.81 225.984 300.022 229.353C300.139 225.984 300.435 223.534 303.774 223.365C300.34 222.816 300.255 221.232 299.98 217.219Z" fill="#E0E0E0"/>
<path d="M168.296 321.457C168.169 323.77 167.988 324.762 165.89 325.047C168.01 325.164 168.2 326.558 168.328 328.522C168.391 326.558 168.561 325.132 170.511 325.047C168.54 324.71 168.455 323.801 168.296 321.457Z" fill="#E0E0E0"/>
<path d="M292.475 126.604C292.475 127.882 292.475 129.107 290.599 129.392C292.549 129.392 292.401 130.585 292.496 132.116C292.549 130.585 292.676 129.487 294.192 129.413C292.623 129.149 292.666 128.431 292.475 126.604Z" fill="#E0E0E0"/>
<path d="M296.471 228.73C296.471 229.997 296.471 231.222 294.595 231.507C296.535 231.507 296.387 232.711 296.482 234.242C296.535 232.711 296.673 231.602 298.189 231.539C296.62 231.264 296.662 230.546 296.471 228.73Z" fill="#E0E0E0"/>
<path d="M178.08 316.42C178.08 317.687 178.08 318.912 176.204 319.197C178.154 319.197 178.006 320.39 178.101 321.922C178.154 320.39 178.292 319.292 179.808 319.218C178.26 318.965 178.302 318.236 178.08 316.42Z" fill="#E0E0E0"/>
<path d="M389.285 305.796L422.665 286.598L473.057 315.575L497.236 301.668L446.854 272.691L463.22 263.271L436.72 248.012L420.354 257.432L391.14 240.652L366.951 254.57L396.133 271.392L333.9 307.127L353.373 318.321L510.443 360.328L513.496 358.575C514.994 352.577 516.235 346.456 517.217 340.212L389.285 305.796Z" fill="#263238"/>
<path d="M392.423 158.495L391.172 159.213V118.642L376.056 109.951L357.358 120.701L372.781 62.9376L357.676 54.2467L331.674 69.1997L289.656 225.72V248.16L304.761 256.851L351.92 229.712V245.879L367.036 254.57L391.14 240.652V207.113L407.496 197.704V167.186L392.423 158.495ZM351.92 181.822L339.126 189.214L351.92 141.251V181.822Z" fill="#2E8FB8"/>
<path opacity="0.3" d="M392.423 158.495L391.172 159.213V118.642L376.056 109.951L357.358 120.701L372.781 62.9376L357.676 54.2467L331.674 69.1997L289.656 225.72V248.16L304.761 256.851L351.92 229.712V245.879L367.036 254.57L391.14 240.652V207.113L407.496 197.704V167.186L392.423 158.495ZM351.92 181.822L339.126 189.214L351.92 141.251V181.822Z" fill="black"/>
<path d="M391.161 176.595V118.642L366.983 132.549V190.513L333.593 209.711L372.781 62.9376L346.779 77.8906L304.761 234.411V256.809L366.983 221.031V254.57L391.161 240.652V207.113L407.528 197.704V167.186L391.161 176.595Z" fill="#2E8FB8"/>
<path opacity="0.3" d="M391.161 176.595V118.642L366.983 132.549V190.513L333.593 209.711L372.781 62.9376L346.779 77.8906L304.761 234.411V256.809L366.983 221.031V254.57L391.161 240.652V207.113L407.528 197.704V167.186L391.161 176.595Z" fill="white"/>
<path d="M372.781 62.9376L357.676 54.2467L331.674 69.1997L346.779 77.8906L372.781 62.9376Z" fill="#2E8FB8"/>
<path opacity="0.5" d="M372.781 62.9376L357.676 54.2467L331.674 69.1997L346.779 77.8906L372.781 62.9376Z" fill="white"/>
<path d="M376.056 109.951L391.161 118.642L366.983 132.549L355.895 126.171L357.358 120.701L376.056 109.951Z" fill="#2E8FB8"/>
<path opacity="0.5" d="M376.056 109.951L391.161 118.642L366.983 132.549L355.895 126.171L357.358 120.701L376.056 109.951Z" fill="white"/>
<path d="M366.983 190.513L351.867 181.822L339.073 189.182L333.593 209.711L366.983 190.513Z" fill="#2E8FB8"/>
<path opacity="0.5" d="M366.983 190.513L351.867 181.822L339.073 189.182L333.593 209.711L366.983 190.513Z" fill="white"/>
<path d="M407.528 167.186L392.423 158.495L391.161 159.213V176.595L407.528 167.186Z" fill="#2E8FB8"/>
<path opacity="0.5" d="M391.161 176.595L407.528 167.186L392.423 158.495L391.161 159.213V176.595Z" fill="white"/>
<path d="M304.761 234.411L289.656 225.72L331.674 69.1997L346.779 77.8906L304.761 234.411Z" fill="#2E8FB8"/>
<path opacity="0.15" d="M304.761 234.411L289.656 225.72L331.674 69.1997L346.779 77.8906L304.761 234.411Z" fill="black"/>
<path d="M217.777 404.448L191.245 389.189L174.889 398.598L145.729 381.828L121.539 395.736L150.7 412.505L88.478 448.293L107.95 459.497L265.032 501.505L291.033 486.552L143.842 446.973L177.232 427.764L227.614 456.752L251.803 442.834L201.41 413.857L217.777 404.448Z" fill="#263238"/>
<path d="M146.979 299.661L145.729 300.39V259.776L130.613 251.085L111.915 261.888L127.338 204.125L112.233 195.434L86.2308 210.366L44.2124 366.897V389.294L59.3598 397.985L106.477 370.888V387.045L121.582 395.736L145.771 381.828V348.279L162.127 338.87V308.352L146.979 299.661ZM106.434 322.988L93.6402 330.38L106.434 282.459V322.988Z" fill="#2E8FB8"/>
<path opacity="0.3" d="M146.979 299.661L145.729 300.39V259.776L130.613 251.085L111.915 261.888L127.338 204.125L112.233 195.434L86.2308 210.366L44.2124 366.897V389.294L59.3598 397.985L106.477 370.888V387.045L121.582 395.736L145.771 381.828V348.279L162.127 338.87V308.352L146.979 299.661ZM106.434 322.988L93.6402 330.38L106.434 282.459V322.988Z" fill="black"/>
<path d="M145.729 317.772V259.808L121.539 273.715V331.679L88.1494 350.877L127.348 204.104L101.346 219.057L59.3174 375.577V397.985L121.539 362.198V395.736L145.729 381.829V348.279L162.084 338.87V308.352L145.729 317.772Z" fill="#2E8FB8"/>
<path opacity="0.3" d="M145.729 317.772V259.808L121.539 273.715V331.679L88.1494 350.877L127.348 204.104L101.346 219.057L59.3174 375.577V397.985L121.539 362.198V395.736L145.729 381.829V348.279L162.084 338.87V308.352L145.729 317.772Z" fill="white"/>
<path d="M127.348 204.104L112.233 195.413L86.231 210.366L101.347 219.057L127.348 204.104Z" fill="#2E8FB8"/>
<path opacity="0.5" d="M127.348 204.104L112.233 195.413L86.231 210.366L101.347 219.057L127.348 204.104Z" fill="white"/>
<path d="M130.613 251.117L145.728 259.808L121.539 273.715L110.452 267.348L111.914 261.877L130.613 251.117Z" fill="#2E8FB8"/>
<path opacity="0.5" d="M130.613 251.117L145.728 259.808L121.539 273.715L110.452 267.348L111.914 261.877L130.613 251.117Z" fill="white"/>
<path d="M121.539 331.679L106.434 322.988L93.6402 330.348L88.1494 350.877L121.539 331.679Z" fill="#2E8FB8"/>
<path opacity="0.5" d="M121.539 331.679L106.434 322.988L93.6402 330.348L88.1494 350.877L121.539 331.679Z" fill="white"/>
<path d="M162.084 308.352L146.979 299.661L145.729 300.39V317.772L162.084 308.352Z" fill="#2E8FB8"/>
<path opacity="0.5" d="M145.729 317.772L162.084 308.352L146.979 299.661L145.729 300.39V317.772Z" fill="white"/>
<path d="M59.3174 375.577L44.2124 366.897L86.2308 210.366L101.346 219.057L59.3174 375.577Z" fill="#2E8FB8"/>
<path opacity="0.15" d="M59.3174 375.577L44.2124 366.897L86.2308 210.366L101.346 219.057L59.3174 375.577Z" fill="black"/>
<path d="M162.572 119.814C163.187 116.92 151.347 123.732 150.732 126.625L154.548 136.858C154.676 137.165 154.899 137.424 155.184 137.597C156.021 138.114 159.106 139.846 159.371 140.004C159.584 140.137 159.824 140.219 160.074 140.245C160.323 140.27 160.576 140.238 160.811 140.152C161.046 140.065 161.259 139.926 161.432 139.745C161.605 139.564 161.734 139.345 161.809 139.107L166.759 122.211C167.067 120.796 162.572 119.814 162.572 119.814Z" fill="#2E8FB8"/>
<path opacity="0.25" d="M162.572 119.814C163.187 116.92 151.347 123.732 150.732 126.625L154.548 136.858C154.676 137.165 154.899 137.424 155.184 137.597C156.021 138.114 159.106 139.846 159.371 140.004C159.584 140.137 159.824 140.219 160.074 140.245C160.323 140.27 160.576 140.238 160.811 140.152C161.046 140.065 161.259 139.926 161.432 139.745C161.605 139.564 161.734 139.345 161.809 139.107L166.759 122.211C167.067 120.796 162.572 119.814 162.572 119.814Z" fill="black"/>
<path d="M202.831 63.36L104.039 120.131C103.579 120.433 103.196 120.84 102.922 121.316C102.647 121.793 102.489 122.327 102.459 122.876V154.989C102.488 155.538 102.647 156.072 102.923 156.548C103.2 157.023 103.586 157.427 104.049 157.724L105.035 158.294C105.529 158.541 106.073 158.67 106.625 158.67C107.177 158.67 107.722 158.541 108.215 158.294L207.007 101.376C207.47 101.078 207.856 100.675 208.133 100.199C208.409 99.7236 208.568 99.1897 208.597 98.641V66.6125C208.569 66.0637 208.41 65.5294 208.134 65.0538C207.857 64.5782 207.471 64.175 207.007 63.8775L206.011 63.3072C205.513 63.0684 204.967 62.9487 204.415 62.9579C203.862 62.9671 203.32 63.1048 202.831 63.36Z" fill="#2E8FB8"/>
<path opacity="0.25" d="M202.831 63.36L104.039 120.131C103.579 120.433 103.196 120.84 102.922 121.316C102.647 121.793 102.489 122.327 102.459 122.876V154.989C102.488 155.538 102.647 156.072 102.923 156.548C103.2 157.023 103.586 157.427 104.049 157.724L105.035 158.294C105.529 158.541 106.073 158.67 106.625 158.67C107.177 158.67 107.722 158.541 108.215 158.294L207.007 101.376C207.47 101.078 207.856 100.675 208.133 100.199C208.409 99.7236 208.568 99.1897 208.597 98.641V66.6125C208.569 66.0637 208.41 65.5294 208.134 65.0538C207.857 64.5782 207.471 64.175 207.007 63.8775L206.011 63.3072C205.513 63.0684 204.967 62.9487 204.415 62.9579C203.862 62.9671 203.32 63.1048 202.831 63.36Z" fill="black"/>
<path d="M208.597 66.6127V67.2357C208.598 66.9795 208.531 66.7275 208.403 66.5053C208.275 66.283 208.091 66.0983 207.868 65.9698C207.646 65.8413 207.393 65.7735 207.136 65.7733C206.879 65.773 206.626 65.8404 206.403 65.9685L108.82 122.127C108.152 122.506 107.6 123.057 107.219 123.721L102.979 121.25C103.247 120.755 103.642 120.339 104.124 120.046L202.831 63.3602C203.324 63.1132 203.869 62.9845 204.421 62.9845C204.973 62.9845 205.518 63.1132 206.011 63.3602L207.007 63.9304C207.464 64.2228 207.846 64.6177 208.122 65.0834C208.398 65.5492 208.561 66.073 208.597 66.6127Z" fill="#2E8FB8"/>
<path opacity="0.45" d="M208.597 66.6127V67.2357C208.598 66.9795 208.531 66.7275 208.403 66.5053C208.275 66.283 208.091 66.0983 207.868 65.9698C207.646 65.8413 207.393 65.7735 207.136 65.7733C206.879 65.773 206.626 65.8404 206.403 65.9685L108.82 122.127C108.152 122.506 107.6 123.057 107.219 123.721L102.979 121.25C103.247 120.755 103.642 120.339 104.124 120.046L202.831 63.3602C203.324 63.1132 203.869 62.9845 204.421 62.9845C204.973 62.9845 205.518 63.1132 206.011 63.3602L207.007 63.9304C207.464 64.2228 207.846 64.6177 208.122 65.0834C208.398 65.5492 208.561 66.073 208.597 66.6127Z" fill="white"/>
<path d="M207.135 66.338C206.977 66.3377 206.823 66.3816 206.689 66.4647L109.106 122.623C108.528 122.956 108.049 123.435 107.716 124.012C107.383 124.588 107.208 125.242 107.208 125.907V156.615C107.208 156.922 107.208 157.608 107.844 157.608C108.093 157.596 108.334 157.519 108.544 157.386L155.947 130.11L159.127 138.854C159.262 139.159 159.486 139.416 159.771 139.591C160.055 139.767 160.386 139.852 160.721 139.836C161.055 139.82 161.376 139.704 161.643 139.502C161.909 139.3 162.107 139.022 162.212 138.706L166.452 124.048L206.096 101.249C207.421 100.5 208.004 99.7287 208.004 98.7678V67.2356C208.004 67.0029 207.913 66.7793 207.751 66.6119C207.589 66.4444 207.368 66.3462 207.135 66.338Z" fill="#263238"/>
<path d="M107.844 158.178C107.113 158.178 106.636 157.566 106.636 156.615V125.907C106.636 125.143 106.839 124.393 107.222 123.731C107.605 123.07 108.156 122.52 108.819 122.137L206.403 65.979C206.624 65.8468 206.877 65.7774 207.134 65.7783C207.521 65.7811 207.892 65.9355 208.166 66.2082C208.439 66.4809 208.594 66.85 208.597 67.2356V98.7678C208.534 99.4149 208.297 100.033 207.911 100.557C207.525 101.082 207.004 101.492 206.403 101.746L166.96 124.429L162.72 138.864C162.587 139.296 162.323 139.676 161.964 139.952C161.606 140.228 161.17 140.387 160.717 140.406C160.271 140.424 159.83 140.308 159.452 140.072C159.074 139.837 158.776 139.493 158.597 139.086L155.64 130.944L108.83 157.883C108.533 158.066 108.193 158.168 107.844 158.178ZM207.134 66.9082C207.082 66.8938 207.027 66.8938 206.975 66.9082L109.392 123.109C108.9 123.394 108.492 123.802 108.207 124.293C107.923 124.784 107.772 125.34 107.77 125.907V156.615C107.761 156.768 107.79 156.92 107.855 157.059C107.998 157.031 108.134 156.978 108.258 156.901L156.244 129.286L159.636 138.663C159.719 138.871 159.866 139.048 160.056 139.167C160.246 139.286 160.469 139.342 160.693 139.327C160.917 139.311 161.13 139.226 161.302 139.082C161.474 138.938 161.596 138.743 161.65 138.526L165.996 123.679L166.187 123.563L205.831 100.764C207.262 99.9399 207.463 99.2958 207.463 98.7678V67.2356C207.46 67.1496 207.425 67.0679 207.364 67.0071C207.303 66.9462 207.221 66.9109 207.134 66.9082Z" fill="#2E8FB8"/>
<path opacity="0.3" d="M116.324 145.728C115.699 145.728 114.957 145.295 114.957 144.06V128.748C114.933 128.293 115.035 127.841 115.252 127.441C115.469 127.04 115.792 126.707 116.187 126.477L116.547 126.266C116.817 126.107 117.124 126.02 117.437 126.013C117.752 126.018 118.056 126.123 118.306 126.313C118.556 126.503 118.738 126.768 118.826 127.069L120.628 131.557V125.506C120.605 125.051 120.708 124.6 120.925 124.2C121.142 123.799 121.464 123.466 121.858 123.235L122.059 123.119C122.321 122.96 122.621 122.872 122.928 122.866C123.233 122.865 123.529 122.97 123.765 123.162C124.001 123.355 124.162 123.623 124.221 123.922C124.31 123.636 124.419 123.357 124.55 123.087L125.133 122.031C125.414 121.455 125.855 120.971 126.405 120.637L129.914 118.621C130.211 118.439 130.551 118.341 130.899 118.335C131.287 118.333 131.663 118.468 131.959 118.716C131.984 118.311 132.108 117.918 132.321 117.572C132.533 117.226 132.828 116.937 133.178 116.73L138.881 113.457C139.141 113.291 139.442 113.2 139.75 113.193C140.386 113.193 141.118 113.636 141.118 114.893V115.104C141.136 115.55 141.031 115.993 140.815 116.384C140.598 116.775 140.277 117.1 139.888 117.322L138.595 118.071C138.51 118.071 138.372 118.198 138.372 118.599V131.715C138.396 132.168 138.295 132.619 138.08 133.019C137.865 133.419 137.545 133.753 137.153 133.985L136.952 134.101C136.689 134.258 136.389 134.346 136.083 134.355C135.415 134.355 134.715 133.911 134.715 132.665V120.321L134.185 120.627C133.922 120.793 133.617 120.884 133.306 120.891H133.242V133.225C133.235 133.872 133.075 134.509 132.776 135.084L132.193 136.203C131.912 136.777 131.47 137.257 130.921 137.586L127.433 139.593C127.115 139.79 126.748 139.893 126.373 139.888C126.016 139.889 125.669 139.77 125.387 139.55L124.783 139.107C124.549 138.926 124.363 138.69 124.243 138.421V139.867C124.264 140.317 124.16 140.764 123.943 141.159C123.727 141.554 123.405 141.881 123.013 142.106L122.812 142.222C122.545 142.389 122.237 142.481 121.921 142.486C121.609 142.478 121.307 142.372 121.059 142.182C120.811 141.992 120.631 141.729 120.543 141.43L118.572 136.573V143.067C118.592 143.518 118.489 143.966 118.272 144.363C118.055 144.759 117.734 145.089 117.342 145.316L117.141 145.432C116.898 145.598 116.617 145.7 116.324 145.728ZM127.984 124.196C127.91 124.196 127.772 124.323 127.772 124.703V134.904L129.405 133.975C129.479 133.975 129.617 133.848 129.617 133.468V123.267L127.984 124.196ZM144.467 129.561C143.842 129.561 143.1 129.128 143.1 127.892V112.601C143.081 112.151 143.186 111.703 143.403 111.307C143.619 110.911 143.939 110.581 144.33 110.352L150.022 107.089C150.281 106.922 150.582 106.83 150.891 106.825C151.155 106.823 151.414 106.902 151.632 107.051C151.85 107.201 152.017 107.413 152.11 107.659C152.173 107.482 152.248 107.309 152.333 107.142L152.916 106.086C153.193 105.507 153.636 105.022 154.188 104.692L157.696 102.675C157.993 102.492 158.333 102.394 158.682 102.39C159.068 102.383 159.444 102.514 159.742 102.759L160.283 103.171C160.521 103.355 160.71 103.594 160.834 103.868V102.369C160.813 101.918 160.916 101.469 161.133 101.073C161.35 100.676 161.672 100.347 162.063 100.119L162.265 100.003C162.527 99.8437 162.827 99.7563 163.134 99.7498C163.759 99.7498 164.501 100.183 164.501 101.418V113.805L166.123 112.865C166.208 112.865 166.346 112.739 166.346 112.337V99.2007C166.315 98.7589 166.404 98.3171 166.604 97.9214C166.803 97.5257 167.106 97.1907 167.48 96.9514L167.681 96.8352C167.944 96.6757 168.243 96.5883 168.551 96.5818C168.786 96.5792 169.019 96.642 169.221 96.7632C169.423 96.8844 169.587 97.0593 169.695 97.2682C169.672 96.8138 169.774 96.3617 169.991 95.9613C170.208 95.5609 170.531 95.2276 170.925 94.9978L171.285 94.7971C171.548 94.6297 171.853 94.5383 172.165 94.5331C172.481 94.5364 172.788 94.6408 173.04 94.8309C173.292 95.0211 173.476 95.2869 173.564 95.5891L175.366 100.077V93.984C175.345 93.5314 175.448 93.0815 175.665 92.6831C175.881 92.2848 176.203 91.9531 176.596 91.7242L176.787 91.608C177.047 91.4434 177.348 91.3522 177.656 91.344C177.896 91.3426 178.131 91.4081 178.335 91.5332C178.539 91.6583 178.704 91.8378 178.811 92.0515C178.787 91.5892 178.893 91.1293 179.118 90.7241C179.343 90.319 179.677 89.9849 180.083 89.76L184.684 87.12C184.984 86.9358 185.328 86.8338 185.68 86.8243C186.067 86.8236 186.442 86.9581 186.74 87.2045L187.281 87.6163C187.539 87.8293 187.743 88.1001 187.875 88.4067C188.008 88.7132 188.066 89.0467 188.044 89.3799V101.714C188.035 102.364 187.875 103.004 187.578 103.583L186.995 104.639C186.709 105.216 186.264 105.7 185.712 106.033L181.09 108.768C180.827 108.925 180.528 109.012 180.221 109.021C179.983 109.026 179.749 108.964 179.545 108.843C179.341 108.722 179.175 108.546 179.066 108.335C179.087 108.785 178.984 109.232 178.769 109.628C178.555 110.024 178.236 110.355 177.847 110.584L177.645 110.69C177.375 110.859 177.063 110.951 176.744 110.954C176.442 110.948 176.148 110.85 175.903 110.673C175.659 110.495 175.475 110.247 175.377 109.961L173.395 105.093V111.598C173.415 112.046 173.312 112.492 173.097 112.886C172.882 113.28 172.564 113.609 172.176 113.837L171.974 113.953C171.711 114.119 171.406 114.21 171.095 114.217C170.789 114.218 170.494 114.113 170.258 113.92C170.022 113.728 169.86 113.459 169.801 113.161C169.723 113.442 169.617 113.714 169.483 113.974L168.9 115.03C168.626 115.617 168.183 116.109 167.628 116.445L164.141 118.452C163.839 118.632 163.496 118.73 163.145 118.737C162.759 118.741 162.383 118.61 162.085 118.367L161.523 117.945C161.287 117.758 161.099 117.519 160.972 117.248C160.963 117.892 160.803 118.524 160.505 119.096L159.922 120.152C159.641 120.728 159.2 121.212 158.65 121.546L155.163 123.552C154.842 123.742 154.476 123.844 154.103 123.848C153.742 123.847 153.392 123.728 153.106 123.51L152.513 123.056C152.255 122.843 152.051 122.572 151.918 122.265C151.786 121.959 151.728 121.625 151.75 121.292V118.314C151.542 118.638 151.258 118.907 150.923 119.096L146.874 121.429C146.789 121.482 146.662 121.556 146.662 121.936V126.868C146.682 127.319 146.579 127.767 146.362 128.164C146.145 128.56 145.824 128.89 145.432 129.117L145.231 129.233C144.998 129.411 144.725 129.527 144.436 129.571L144.467 129.561ZM155.735 108.24C155.65 108.24 155.523 108.367 155.523 108.747V118.948L157.145 118.008C157.23 118.008 157.368 117.881 157.368 117.501V107.3L155.735 108.24ZM151.856 110.204C151.652 110.534 151.367 110.806 151.029 110.996L146.98 113.319C146.895 113.372 146.768 113.446 146.768 113.826V117.121L150.022 115.252C150.281 115.085 150.582 114.993 150.891 114.988C151.074 114.986 151.254 115.024 151.421 115.099C151.588 115.173 151.736 115.283 151.856 115.421V110.204ZM182.765 92.7379C182.67 92.7379 182.553 92.8647 182.553 93.2448V103.393L184.175 102.464C184.26 102.464 184.398 102.337 184.398 101.957V91.872L182.765 92.7379ZM197.913 100.954C197.594 100.952 197.284 100.848 197.028 100.658C196.773 100.468 196.585 100.202 196.492 99.8976L195.496 97.3104C195.346 96.9197 195.246 96.5117 195.199 96.096L194.584 91.2807C194.584 90.89 194.584 90.6682 194.584 90.5731C194.584 90.4781 194.584 90.2141 194.584 89.8762L195.199 84.3111C195.253 83.8302 195.342 83.3538 195.464 82.8855L196.471 79.1261C196.56 78.7579 196.721 78.4108 196.945 78.1046C197.168 77.7983 197.45 77.539 197.775 77.3415L198.135 77.1408C198.399 76.9748 198.703 76.8836 199.015 76.8768H199.238H199.418C199.687 76.975 199.917 77.1582 200.072 77.3984C200.227 77.6386 200.298 77.9227 200.276 78.2074C200.277 78.468 200.241 78.7274 200.17 78.9783L199.11 82.5475C199.003 82.9169 198.928 83.295 198.888 83.6775L198.347 88.9575C198.347 89.2003 198.347 89.3799 198.347 89.4749C198.347 89.57 198.347 89.7389 198.347 89.9712L198.888 94.5859C198.91 94.8366 198.971 95.0824 199.068 95.3146L200.128 97.7011C200.227 97.9572 200.277 98.2293 200.276 98.5037C200.269 98.8737 200.171 99.2362 199.99 99.5597C199.797 99.9206 199.502 100.218 199.142 100.415L198.782 100.626C198.52 100.787 198.22 100.875 197.913 100.88V100.954ZM192.263 98.3981C191.637 98.3981 190.917 97.9757 190.917 96.7719V95.7159C190.889 95.2592 190.988 94.8039 191.203 94.3997C191.418 93.9955 191.741 93.6581 192.136 93.4243L192.517 93.2026C192.78 93.0445 193.079 92.9571 193.386 92.9491C194.044 92.9491 194.754 93.3927 194.754 94.6599V95.7159C194.77 96.1589 194.663 96.5978 194.447 96.985C194.23 97.3722 193.911 97.6929 193.524 97.9123L193.143 98.1235C192.872 98.3026 192.556 98.4015 192.231 98.4087L192.263 98.3981ZM192.263 89.6016C191.637 89.6016 190.917 89.1687 190.917 87.9648V86.9088C190.89 86.4524 190.99 85.9975 191.205 85.5935C191.42 85.1895 191.742 84.8519 192.136 84.6173L192.517 84.3955C192.779 84.236 193.079 84.1486 193.386 84.1421C194.044 84.1421 194.754 84.5962 194.754 85.8634V86.9194C194.771 87.3626 194.665 87.802 194.448 88.1894C194.231 88.5768 193.912 88.8973 193.524 89.1159L193.143 89.3376C192.871 89.5129 192.555 89.6081 192.231 89.6122L192.263 89.6016Z" fill="#2E8FB8"/>
<path opacity="0.3" d="M116.324 145.242C116.123 145.242 115.465 145.158 115.465 144.07V128.748C115.439 128.381 115.517 128.015 115.689 127.69C115.861 127.365 116.122 127.095 116.441 126.91L116.801 126.699C116.993 126.581 117.212 126.515 117.437 126.509C117.647 126.516 117.849 126.59 118.015 126.719C118.181 126.848 118.301 127.026 118.359 127.227L121.126 134.112C121.132 134.049 121.132 133.985 121.126 133.922V125.474C121.1 125.107 121.177 124.741 121.349 124.416C121.522 124.091 121.782 123.821 122.101 123.636L122.302 123.52C122.487 123.405 122.699 123.339 122.917 123.33C123.119 123.33 123.776 123.425 123.776 124.524V139.857C123.797 140.218 123.717 140.578 123.545 140.897C123.373 141.216 123.115 141.481 122.801 141.662L122.599 141.779C122.408 141.896 122.188 141.962 121.963 141.969C121.758 141.966 121.558 141.898 121.394 141.774C121.23 141.651 121.11 141.478 121.052 141.282L118.126 134.112C118.126 134.175 118.126 134.249 118.126 134.313V143.162C118.148 143.525 118.069 143.887 117.897 144.208C117.724 144.528 117.466 144.795 117.151 144.978L116.96 145.094C116.764 145.196 116.545 145.247 116.324 145.242ZM126.426 139.381C126.176 139.387 125.932 139.305 125.737 139.149L125.143 138.706C124.947 138.538 124.794 138.325 124.696 138.087C124.599 137.848 124.559 137.59 124.581 137.333V124.967C124.586 124.396 124.728 123.835 124.995 123.33L125.578 122.221C125.813 121.733 126.18 121.32 126.638 121.028L130.136 119.022C130.359 118.884 130.615 118.808 130.878 118.8C131.143 118.795 131.4 118.889 131.599 119.064L132.16 119.486C132.356 119.652 132.51 119.863 132.607 120.1C132.705 120.337 132.745 120.593 132.722 120.849V133.225C132.715 133.795 132.573 134.356 132.309 134.862L131.726 135.918C131.493 136.405 131.125 136.815 130.666 137.1L127.178 139.107C126.952 139.246 126.692 139.323 126.426 139.329V139.381ZM127.708 123.774C127.546 123.867 127.414 124.006 127.329 124.173C127.244 124.34 127.21 124.528 127.231 124.714C127.231 124.714 127.231 135.759 127.231 135.78L129.606 134.418C129.769 134.325 129.9 134.186 129.985 134.019C130.07 133.852 130.104 133.664 130.083 133.478C130.083 133.478 130.083 122.433 130.083 122.401L127.708 123.774ZM136.082 133.88C135.817 133.88 135.213 133.764 135.213 132.686V119.455L133.931 120.194C133.742 120.31 133.527 120.376 133.305 120.384C133.104 120.384 132.457 120.3 132.457 119.233V118.969C132.433 118.604 132.512 118.24 132.684 117.917C132.856 117.594 133.115 117.326 133.432 117.142L139.135 113.858C139.32 113.742 139.532 113.677 139.75 113.668C139.951 113.668 140.609 113.752 140.609 114.861V115.104C140.629 115.461 140.55 115.817 140.38 116.132C140.21 116.448 139.955 116.709 139.644 116.889L138.34 117.638C138.177 117.736 138.046 117.879 137.963 118.049C137.88 118.22 137.849 118.411 137.874 118.599V131.715C137.9 132.081 137.823 132.448 137.65 132.773C137.478 133.097 137.217 133.368 136.899 133.552L136.697 133.668C136.512 133.784 136.301 133.85 136.082 133.859V133.88ZM144.435 129.075C144.234 129.075 143.577 128.99 143.577 127.903V112.601C143.554 112.238 143.634 111.876 143.806 111.556C143.978 111.235 144.236 110.968 144.552 110.785L150.233 107.522C150.42 107.403 150.637 107.337 150.859 107.332C151.06 107.332 151.717 107.416 151.717 108.493V108.768C151.741 109.131 151.662 109.494 151.49 109.815C151.317 110.136 151.058 110.402 150.742 110.584L146.704 112.908C146.539 112.999 146.406 113.137 146.321 113.305C146.236 113.472 146.203 113.661 146.227 113.847V118.008L150.233 115.706C150.423 115.591 150.638 115.526 150.859 115.516C151.06 115.516 151.717 115.6 151.717 116.688V116.952C151.741 117.314 151.663 117.675 151.49 117.994C151.318 118.314 151.058 118.578 150.742 118.758L146.704 121.081C146.538 121.174 146.404 121.314 146.319 121.484C146.234 121.653 146.202 121.844 146.227 122.031V126.963C146.25 127.326 146.171 127.689 145.999 128.009C145.827 128.33 145.568 128.597 145.251 128.779L145.061 128.885C144.873 129.003 144.657 129.069 144.435 129.075ZM154.177 123.425C153.928 123.425 153.686 123.343 153.488 123.193L152.894 122.749C152.698 122.581 152.545 122.369 152.447 122.131C152.349 121.892 152.31 121.633 152.332 121.377V109C152.338 108.433 152.48 107.876 152.746 107.374L153.329 106.265C153.561 105.775 153.929 105.361 154.389 105.072L157.887 103.055C158.11 102.917 158.366 102.841 158.629 102.833C158.892 102.836 159.147 102.929 159.349 103.097L159.911 103.52C160.107 103.688 160.261 103.9 160.358 104.139C160.456 104.377 160.495 104.636 160.473 104.892V117.269C160.467 117.836 160.325 118.393 160.06 118.895L159.477 119.951C159.241 120.439 158.874 120.852 158.417 121.144L154.929 123.151C154.702 123.289 154.443 123.365 154.177 123.372V123.425ZM155.449 107.818C155.287 107.911 155.157 108.051 155.074 108.218C154.991 108.385 154.959 108.572 154.982 108.757V119.824L157.367 118.452C157.53 118.358 157.662 118.219 157.746 118.052C157.831 117.886 157.865 117.698 157.844 117.512C157.844 117.512 157.844 106.466 157.844 106.445L155.449 107.818ZM163.144 118.272C162.881 118.269 162.626 118.176 162.423 118.008L161.851 117.575C161.656 117.406 161.503 117.194 161.405 116.956C161.308 116.717 161.268 116.459 161.289 116.202V102.369C161.266 102.005 161.345 101.643 161.517 101.322C161.689 101.001 161.948 100.735 162.264 100.552L162.466 100.436C162.651 100.32 162.863 100.255 163.081 100.246C163.282 100.246 163.939 100.331 163.939 101.418V114.671L166.324 113.298C166.488 113.201 166.619 113.058 166.702 112.887C166.785 112.717 166.816 112.525 166.791 112.337V99.2006C166.768 98.8376 166.848 98.4756 167.02 98.1549C167.192 97.8342 167.45 97.5674 167.766 97.3843L167.967 97.2682C168.156 97.152 168.371 97.0865 168.593 97.0781C168.794 97.0781 169.451 97.1626 169.451 98.2502V112.094C169.441 112.662 169.296 113.22 169.027 113.721L168.455 114.777C168.226 115.274 167.858 115.696 167.395 115.991L163.907 117.997C163.685 118.136 163.428 118.213 163.165 118.219L163.144 118.272ZM171.094 113.731C170.893 113.731 170.246 113.647 170.246 112.559V97.2365C170.222 96.8717 170.301 96.5075 170.473 96.1847C170.645 95.862 170.904 95.5935 171.221 95.4096L171.582 95.1984C171.77 95.0809 171.986 95.0153 172.207 95.0083C172.418 95.0083 172.622 95.0778 172.789 95.2057C172.956 95.3337 173.076 95.5131 173.129 95.7158L175.96 102.612C175.96 102.548 175.96 102.485 175.96 102.421V93.984C175.935 93.6192 176.014 93.255 176.186 92.9323C176.358 92.6095 176.618 92.3411 176.935 92.1571L177.126 92.041C177.31 91.9252 177.522 91.8597 177.74 91.8509C177.942 91.8509 178.61 91.9354 178.61 93.0442V108.367C178.634 108.729 178.555 109.09 178.382 109.409C178.21 109.728 177.951 109.993 177.634 110.172L177.433 110.289C177.241 110.416 177.017 110.485 176.786 110.489C176.583 110.484 176.386 110.415 176.224 110.292C176.062 110.169 175.944 109.997 175.885 109.803L172.949 102.569C172.944 102.64 172.944 102.71 172.949 102.78V111.63C172.973 111.992 172.894 112.353 172.722 112.672C172.549 112.991 172.29 113.256 171.974 113.436L171.773 113.552C171.568 113.675 171.333 113.737 171.094 113.731ZM180.221 108.451C180.019 108.451 179.362 108.367 179.362 107.279V92.0198C179.34 91.6568 179.419 91.2948 179.592 90.9741C179.764 90.6534 180.022 90.3866 180.337 90.2035L184.938 87.5635C185.161 87.4245 185.417 87.3479 185.68 87.3418C185.945 87.3369 186.202 87.4311 186.401 87.6058L186.952 88.0282C187.152 88.1912 187.309 88.4007 187.408 88.6382C187.508 88.8757 187.548 89.134 187.524 89.3904V101.714C187.515 102.285 187.37 102.846 187.1 103.351L186.517 104.407C186.283 104.895 185.916 105.309 185.457 105.6L180.846 108.24C180.664 108.363 180.451 108.433 180.231 108.441L180.221 108.451ZM182.479 92.2733C182.318 92.3681 182.188 92.5074 182.105 92.6742C182.023 92.8411 181.99 93.0283 182.012 93.2131V104.28L184.397 102.907C184.559 102.813 184.689 102.674 184.772 102.507C184.855 102.34 184.887 102.152 184.864 101.967V90.9427L182.479 92.2733ZM197.88 100.415C197.66 100.413 197.447 100.337 197.276 100.199C197.104 100.061 196.985 99.869 196.937 99.6547L195.93 97.152C195.806 96.8099 195.717 96.456 195.665 96.096L195.04 91.1856C195.04 90.8371 195.04 90.6365 195.04 90.5414C195.04 90.4464 195.04 90.2035 195.04 89.8867L195.654 84.3322C195.705 83.8793 195.79 83.431 195.909 82.991L196.916 79.2317C196.984 78.9272 197.113 78.6394 197.296 78.3855C197.478 78.1316 197.709 77.9166 197.976 77.7533L198.336 77.5421C198.524 77.4231 198.739 77.354 198.962 77.3414H199.057L199.237 77.3942C199.399 77.4637 199.534 77.5835 199.622 77.7358C199.71 77.8881 199.746 78.0646 199.725 78.239C199.724 78.4537 199.691 78.6671 199.629 78.8726L198.569 82.4419C198.453 82.8384 198.375 83.2451 198.336 83.6563L197.785 88.9363C197.785 89.2109 197.785 89.401 197.785 89.5066C197.775 89.6859 197.775 89.8657 197.785 90.0451L198.326 94.681C198.348 94.9792 198.42 95.2717 198.538 95.5469L199.598 97.9334C199.676 98.1244 199.716 98.329 199.714 98.5354C199.708 98.8339 199.632 99.1268 199.492 99.3907C199.331 99.6668 199.101 99.8961 198.824 100.056L198.463 100.267C198.277 100.377 198.065 100.439 197.849 100.447L197.88 100.415ZM192.231 97.8701C192.029 97.8701 191.383 97.7856 191.383 96.7402V95.6842C191.355 95.3146 191.431 94.9446 191.604 94.6161C191.776 94.2877 192.037 94.0138 192.358 93.8256L192.739 93.6038C192.924 93.4881 193.136 93.4226 193.354 93.4138C193.609 93.4138 194.213 93.5405 194.213 94.6282V95.6842C194.232 96.038 194.15 96.39 193.978 96.7C193.805 97.0099 193.549 97.2654 193.238 97.4371L192.856 97.6589C192.67 97.7825 192.454 97.852 192.231 97.8595V97.8701ZM192.231 89.063C192.029 89.063 191.383 88.9891 191.383 87.9331V86.8771C191.357 86.5079 191.435 86.1388 191.607 85.8108C191.779 85.4828 192.039 85.2086 192.358 85.0186L192.739 84.8074C192.924 84.6916 193.136 84.6261 193.354 84.6173C193.609 84.6173 194.213 84.7334 194.213 85.8317V86.8877C194.243 87.2518 194.167 87.6167 193.994 87.9388C193.821 88.261 193.558 88.5266 193.238 88.704L192.856 88.9258C192.668 89.0419 192.452 89.1074 192.231 89.1158V89.063Z" fill="#2E8FB8"/>
<path d="M116.896 144.503L116.695 144.609C116.207 144.894 115.974 144.704 115.974 144.07V128.748C115.949 128.47 116.003 128.19 116.131 127.942C116.259 127.693 116.454 127.486 116.695 127.343L117.055 127.142C117.448 126.91 117.723 126.995 117.882 127.406L120.787 134.63C120.832 134.747 120.914 134.847 121.02 134.915C121.057 134.941 121.102 134.954 121.147 134.954C121.193 134.954 121.237 134.941 121.274 134.915C121.403 134.835 121.497 134.711 121.539 134.566C121.613 134.36 121.649 134.141 121.645 133.922V125.474C121.621 125.196 121.676 124.917 121.804 124.669C121.931 124.421 122.126 124.213 122.366 124.07L122.557 123.964C123.044 123.679 123.288 123.869 123.288 124.524V139.857C123.309 140.131 123.251 140.405 123.122 140.648C122.992 140.891 122.796 141.093 122.557 141.23L122.366 141.346C121.963 141.567 121.688 141.494 121.529 141.103L118.465 133.531C118.338 133.214 118.19 133.109 117.988 133.214C117.861 133.309 117.768 133.443 117.723 133.595C117.647 133.808 117.611 134.034 117.617 134.26V143.109C117.639 143.385 117.583 143.662 117.456 143.908C117.329 144.155 117.135 144.361 116.896 144.503Z" fill="#2E8FB8"/>
<path d="M131.874 134.629L131.302 135.685C131.107 136.095 130.798 136.439 130.412 136.678L126.924 138.684C126.796 138.776 126.642 138.826 126.484 138.826C126.326 138.826 126.173 138.776 126.044 138.684L125.451 138.23C125.318 138.108 125.216 137.957 125.154 137.788C125.091 137.619 125.069 137.438 125.09 137.259V124.967C125.096 124.473 125.219 123.988 125.451 123.552L126.023 122.496C126.221 122.092 126.53 121.751 126.914 121.514L130.412 119.497C130.54 119.401 130.696 119.349 130.857 119.349C131.017 119.349 131.174 119.401 131.302 119.497L131.874 119.94C132.007 120.06 132.109 120.21 132.172 120.377C132.234 120.545 132.256 120.724 132.235 120.901V133.278C132.221 133.75 132.098 134.213 131.874 134.629ZM130.592 133.478V122.496C130.592 121.852 130.359 121.672 129.871 121.947L127.454 123.341C127.215 123.477 127.02 123.679 126.892 123.922C126.764 124.165 126.709 124.44 126.733 124.714V135.696C126.733 136.34 126.967 136.52 127.454 136.245L129.871 134.851C130.109 134.714 130.304 134.512 130.431 134.269C130.559 134.026 130.615 133.752 130.592 133.478Z" fill="#2E8FB8"/>
<path d="M133.677 117.575L139.39 114.291C139.867 114.016 140.111 114.206 140.111 114.861V115.104C140.13 115.374 140.072 115.644 139.945 115.883C139.817 116.121 139.625 116.32 139.39 116.456L138.086 117.205C137.847 117.347 137.653 117.553 137.525 117.799C137.398 118.046 137.342 118.323 137.365 118.599V131.715C137.388 131.993 137.333 132.271 137.205 132.519C137.078 132.767 136.884 132.975 136.645 133.119L136.443 133.236C135.966 133.51 135.722 133.32 135.722 132.665V119.571C135.722 118.906 135.479 118.726 135.002 119.001L133.677 119.761C133.2 120.036 132.956 119.856 132.956 119.233V118.969C132.933 118.693 132.988 118.415 133.115 118.169C133.243 117.922 133.437 117.717 133.677 117.575Z" fill="#2E8FB8"/>
<path d="M144.807 111.229L150.488 107.955C150.976 107.68 151.209 107.86 151.209 108.494V108.768C151.231 109.043 151.176 109.318 151.048 109.563C150.921 109.808 150.727 110.012 150.488 110.151L146.45 112.475C146.21 112.611 146.015 112.813 145.887 113.056C145.76 113.299 145.705 113.574 145.729 113.847V117.924C145.729 118.568 145.962 118.747 146.45 118.473L150.52 116.16C151.008 115.886 151.241 116.065 151.241 116.709V116.973C151.25 117.234 151.187 117.493 151.06 117.722C150.933 117.95 150.747 118.141 150.52 118.272L146.481 120.595C146.244 120.733 146.05 120.936 145.923 121.178C145.795 121.421 145.739 121.695 145.761 121.968V126.91C145.782 127.185 145.725 127.46 145.596 127.703C145.466 127.946 145.27 128.147 145.029 128.283L144.838 128.399C144.351 128.684 144.118 128.494 144.118 127.861V112.601C144.09 112.331 144.141 112.059 144.263 111.816C144.384 111.573 144.573 111.369 144.807 111.229Z" fill="#2E8FB8"/>
<path d="M159.625 118.673L159.053 119.729C158.855 120.137 158.547 120.481 158.163 120.722L154.675 122.718C154.547 122.81 154.393 122.859 154.235 122.859C154.077 122.859 153.923 122.81 153.795 122.718L153.202 122.274C153.069 122.152 152.967 122 152.904 121.832C152.842 121.663 152.82 121.482 152.841 121.303V109C152.847 108.51 152.97 108.028 153.202 107.596L153.774 106.54C153.969 106.131 154.278 105.786 154.665 105.547L158.163 103.53C158.29 103.433 158.447 103.38 158.608 103.38C158.769 103.38 158.925 103.433 159.053 103.53L159.625 103.963C159.758 104.085 159.86 104.237 159.923 104.406C159.985 104.575 160.007 104.756 159.986 104.935V117.311C159.974 117.787 159.85 118.253 159.625 118.673ZM158.343 117.512V106.529C158.343 105.896 158.099 105.706 157.622 105.991L155.205 107.374C154.967 107.514 154.773 107.718 154.645 107.963C154.518 108.207 154.462 108.483 154.484 108.757V119.74C154.484 120.373 154.718 120.553 155.205 120.278L157.622 118.885C157.86 118.746 158.053 118.544 158.181 118.301C158.308 118.059 158.364 117.785 158.343 117.512Z" fill="#2E8FB8"/>
<path d="M168.021 97.8173L168.222 97.7117C168.699 97.4266 168.943 97.6167 168.943 98.2503V112.094C168.938 112.585 168.814 113.066 168.582 113.499L168 114.555C167.822 114.989 167.515 115.357 167.12 115.611L163.632 117.617C163.507 117.716 163.352 117.769 163.192 117.769C163.033 117.769 162.878 117.716 162.752 117.617L162.18 117.216C162.046 117.094 161.943 116.943 161.878 116.774C161.814 116.606 161.79 116.424 161.809 116.244V102.369C161.789 102.093 161.847 101.817 161.976 101.573C162.105 101.328 162.301 101.125 162.54 100.985L162.731 100.88C163.219 100.595 163.452 100.785 163.452 101.418V114.565C163.452 115.22 163.696 115.41 164.183 115.125L166.6 113.742C166.839 113.597 167.032 113.389 167.159 113.141C167.287 112.893 167.343 112.615 167.321 112.337V99.2007C167.299 98.9283 167.353 98.6552 167.476 98.4112C167.599 98.1672 167.788 97.9617 168.021 97.8173Z" fill="#2E8FB8"/>
<path d="M171.72 112.992L171.518 113.108C171.041 113.383 170.798 113.203 170.798 112.559V97.2365C170.774 96.9602 170.83 96.683 170.957 96.4365C171.085 96.1901 171.279 95.9842 171.518 95.8426L171.879 95.6314C172.282 95.3991 172.557 95.4941 172.716 95.8954L175.621 103.118C175.66 103.236 175.738 103.337 175.843 103.404C175.883 103.429 175.929 103.443 175.976 103.443C176.023 103.443 176.069 103.429 176.108 103.404C176.238 103.325 176.333 103.201 176.373 103.055C176.442 102.851 176.475 102.637 176.469 102.421V93.9841C176.445 93.7078 176.501 93.4305 176.628 93.1841C176.756 92.9376 176.95 92.7318 177.189 92.5901L177.391 92.474C177.868 92.1994 178.112 92.3895 178.112 93.0442V108.367C178.133 108.64 178.077 108.914 177.95 109.157C177.822 109.399 177.628 109.601 177.391 109.74L177.189 109.856C176.797 110.088 176.522 110.004 176.363 109.613L173.289 102.052C173.172 101.725 173.013 101.619 172.822 101.735C172.692 101.824 172.595 101.954 172.547 102.105C172.475 102.323 172.439 102.551 172.441 102.781V111.63C172.461 111.901 172.405 112.173 172.277 112.414C172.15 112.655 171.957 112.856 171.72 112.992Z" fill="#2E8FB8"/>
<path d="M186.655 103.129L186.072 104.185C185.878 104.592 185.573 104.936 185.192 105.178L180.592 107.818C180.104 108.092 179.86 107.913 179.86 107.279V92.0199C179.839 91.7454 179.896 91.4705 180.025 91.2273C180.155 90.9841 180.352 90.7828 180.592 90.6471L185.192 87.9965C185.319 87.9014 185.473 87.85 185.632 87.85C185.791 87.85 185.945 87.9014 186.072 87.9965L186.655 88.44C186.788 88.56 186.89 88.7098 186.952 88.8769C187.015 89.0441 187.037 89.2238 187.015 89.401V101.714C187.01 102.208 186.887 102.693 186.655 103.129ZM182.235 104.734L184.652 103.34C184.889 103.202 185.083 103 185.21 102.757C185.338 102.514 185.394 102.241 185.373 101.967V91.0378C185.373 90.3936 185.129 90.2141 184.652 90.4887L182.235 91.872C181.995 92.0078 181.798 92.2091 181.668 92.4523C181.539 92.6954 181.482 92.9704 181.503 93.2448V104.196C181.503 104.829 181.747 105.009 182.235 104.734Z" fill="#2E8FB8"/>
<path d="M192.994 88.2606L192.612 88.4718C192.125 88.7569 191.892 88.5879 191.892 87.9754V86.9194C191.866 86.6399 191.919 86.3587 192.047 86.1083C192.175 85.8579 192.371 85.6486 192.612 85.5044L192.994 85.2826C193.471 85.0081 193.715 85.1982 193.715 85.874V86.93C193.732 87.1968 193.674 87.463 193.546 87.6983C193.419 87.9336 193.227 88.1284 192.994 88.2606ZM192.994 97.057L192.612 97.2788C192.125 97.5534 191.892 97.3844 191.892 96.7825V95.7265C191.864 95.4452 191.916 95.1618 192.044 94.9093C192.172 94.6569 192.369 94.4458 192.612 94.3009L192.994 94.0791C193.471 93.8046 193.715 94.0052 193.715 94.6705V95.7265C193.733 95.9935 193.675 96.2602 193.548 96.4957C193.42 96.7312 193.228 96.9259 192.994 97.057Z" fill="#2E8FB8"/>
<path d="M199.28 98.5459C199.279 98.7601 199.224 98.9706 199.121 99.1584C199.01 99.3583 198.845 99.523 198.644 99.6336L198.284 99.8448C197.888 100.07 197.612 99.9645 197.457 99.528L196.397 96.9197C196.272 96.601 196.19 96.2672 196.153 95.927L195.549 91.1222C195.549 90.816 195.549 90.6259 195.549 90.5414C195.549 90.4569 195.549 90.2246 195.549 89.929L196.153 84.3955C196.199 83.9671 196.28 83.5432 196.397 83.1283L197.457 79.3584C197.542 78.8699 197.816 78.4341 198.22 78.144L198.58 77.9328C198.718 77.8341 198.889 77.7925 199.057 77.8166C199.163 77.8589 199.216 77.9856 199.216 78.1968C199.217 78.365 199.192 78.5323 199.142 78.6931L198.082 82.2624C197.964 82.6846 197.879 83.1153 197.828 83.5507L197.287 88.8307C197.287 89.137 197.287 89.3376 197.287 89.4537C197.287 89.5699 197.287 89.76 197.287 90.0346L197.828 94.681C197.867 95.0424 197.952 95.3973 198.082 95.737L199.142 98.113C199.221 98.2447 199.268 98.3929 199.28 98.5459Z" fill="#2E8FB8"/>
<path opacity="0.6" d="M150.52 107.955L144.838 111.228C144.599 111.365 144.404 111.566 144.276 111.81C144.148 112.053 144.093 112.328 144.117 112.601V127.903C144.117 128.536 144.35 128.726 144.838 128.441L145.029 128.325C145.269 128.189 145.466 127.988 145.595 127.745C145.725 127.502 145.782 127.227 145.76 126.952V122.01C145.739 121.737 145.795 121.463 145.922 121.221C146.05 120.978 146.244 120.776 146.481 120.637L150.52 118.272C150.758 118.135 150.952 117.933 151.08 117.69C151.208 117.447 151.263 117.173 151.24 116.899V116.635C151.24 115.991 151.007 115.812 150.52 116.086L146.481 118.42C145.993 118.694 145.76 118.515 145.76 117.871V113.837C145.736 113.563 145.791 113.289 145.919 113.045C146.047 112.802 146.242 112.6 146.481 112.464L150.52 110.141C150.758 110.001 150.952 109.797 151.08 109.552C151.207 109.308 151.263 109.032 151.24 108.757V108.493C151.209 107.86 150.975 107.712 150.52 107.955ZM122.557 123.974L122.366 124.08C122.125 124.223 121.929 124.43 121.799 124.678C121.67 124.926 121.613 125.206 121.635 125.484V133.932C121.641 134.151 121.609 134.369 121.539 134.577C121.497 134.721 121.403 134.845 121.274 134.925C121.237 134.951 121.193 134.965 121.147 134.965C121.102 134.965 121.057 134.951 121.02 134.925C120.914 134.857 120.832 134.757 120.787 134.64L117.882 127.417C117.723 127.005 117.448 126.921 117.055 127.153L116.695 127.354C116.454 127.496 116.259 127.704 116.131 127.952C116.003 128.201 115.949 128.48 115.974 128.758V144.081C115.974 144.714 116.207 144.904 116.695 144.619L116.896 144.514C117.133 144.372 117.326 144.168 117.453 143.923C117.58 143.679 117.637 143.405 117.617 143.13V134.281C117.611 134.055 117.647 133.829 117.723 133.616C117.768 133.464 117.861 133.33 117.988 133.236C118.19 133.13 118.338 133.236 118.465 133.552L121.529 141.124C121.688 141.515 121.963 141.588 122.366 141.367L122.557 141.251C122.796 141.114 122.992 140.912 123.122 140.669C123.251 140.426 123.309 140.152 123.288 139.878V124.534C123.288 123.879 123.044 123.689 122.557 123.974ZM159.053 103.488C158.925 103.39 158.768 103.337 158.607 103.337C158.446 103.337 158.29 103.39 158.162 103.488L154.664 105.505C154.278 105.744 153.969 106.088 153.774 106.498L153.201 107.554C152.97 107.986 152.846 108.468 152.841 108.958V121.334C152.82 121.513 152.842 121.694 152.904 121.863C152.967 122.032 153.069 122.184 153.201 122.306L153.795 122.749C153.923 122.841 154.077 122.891 154.235 122.891C154.393 122.891 154.547 122.841 154.675 122.749L158.162 120.754C158.546 120.512 158.855 120.168 159.053 119.761L159.625 118.705C159.857 118.272 159.98 117.791 159.985 117.3V104.892C160.007 104.714 159.985 104.532 159.922 104.364C159.86 104.195 159.758 104.043 159.625 103.921L159.053 103.488ZM158.342 117.512C158.364 117.785 158.308 118.059 158.18 118.301C158.053 118.544 157.859 118.746 157.622 118.884L155.205 120.278C154.717 120.553 154.484 120.373 154.484 119.74V108.768C154.462 108.493 154.517 108.218 154.645 107.973C154.772 107.728 154.966 107.525 155.205 107.385L157.622 106.001C158.099 105.716 158.342 105.906 158.342 106.54V117.512ZM131.302 119.444C131.173 119.348 131.017 119.296 130.857 119.296C130.696 119.296 130.54 119.348 130.411 119.444L126.913 121.461C126.53 121.698 126.221 122.039 126.023 122.443L125.451 123.499C125.219 123.935 125.095 124.421 125.09 124.914V137.28C125.069 137.459 125.091 137.64 125.153 137.809C125.216 137.978 125.318 138.129 125.451 138.252L126.044 138.706C126.172 138.798 126.326 138.847 126.484 138.847C126.642 138.847 126.796 138.798 126.924 138.706L130.411 136.699C130.798 136.461 131.107 136.116 131.302 135.707L131.874 134.651C132.106 134.218 132.23 133.736 132.235 133.246V120.849C132.256 120.671 132.234 120.492 132.171 120.325C132.109 120.157 132.007 120.008 131.874 119.888L131.302 119.444ZM130.592 133.478C130.615 133.752 130.559 134.026 130.431 134.269C130.304 134.512 130.109 134.714 129.871 134.851L127.454 136.224C126.966 136.499 126.733 136.319 126.733 135.675V124.714C126.709 124.44 126.764 124.165 126.892 123.922C127.02 123.679 127.215 123.477 127.454 123.341L129.871 121.947C130.358 121.672 130.592 121.852 130.592 122.496V133.478ZM139.39 114.291L133.676 117.575C133.437 117.717 133.243 117.922 133.115 118.169C132.988 118.415 132.932 118.693 132.955 118.969V119.233C132.955 119.856 133.199 120.036 133.676 119.761L135.001 119.001C135.478 118.726 135.722 118.906 135.722 119.571V132.686C135.722 133.341 135.966 133.531 136.443 133.257L136.644 133.14C136.884 132.996 137.078 132.788 137.205 132.54C137.332 132.292 137.388 132.014 137.365 131.736V118.62C137.342 118.344 137.397 118.067 137.525 117.82C137.652 117.574 137.847 117.368 138.086 117.227L139.39 116.477C139.625 116.341 139.817 116.143 139.944 115.904C140.072 115.665 140.129 115.395 140.11 115.125V114.861C140.11 114.206 139.92 114.048 139.39 114.291ZM168.222 97.7117L168.02 97.8173C167.784 97.959 167.591 98.1633 167.464 98.4075C167.336 98.6517 167.28 98.9262 167.299 99.2006V112.337C167.321 112.615 167.265 112.893 167.138 113.141C167.011 113.389 166.817 113.597 166.579 113.742L164.162 115.104C163.674 115.389 163.43 115.199 163.43 114.544V101.376C163.43 100.742 163.197 100.552 162.71 100.837L162.519 100.943C162.279 101.082 162.084 101.286 161.955 101.531C161.825 101.775 161.767 102.051 161.787 102.326V116.16C161.768 116.34 161.792 116.521 161.857 116.69C161.921 116.859 162.024 117.01 162.158 117.132L162.752 117.575C162.877 117.674 163.032 117.727 163.192 117.727C163.352 117.727 163.507 117.674 163.632 117.575L167.119 115.569C167.514 115.315 167.822 114.946 167.999 114.513L168.582 113.457C168.814 113.024 168.937 112.542 168.942 112.052V98.208C168.942 97.6166 168.699 97.4266 168.222 97.7117ZM192.994 94.0579L192.612 94.2797C192.369 94.4246 192.172 94.6357 192.044 94.8881C191.916 95.1406 191.863 95.424 191.891 95.7053V96.7613C191.891 97.3632 192.125 97.5322 192.612 97.2576L192.994 97.0358C193.226 96.9054 193.417 96.7125 193.545 96.479C193.672 96.2456 193.731 95.9811 193.715 95.7158V94.6598C193.715 93.984 193.471 93.7834 192.994 94.0579ZM198.135 95.7581C198.005 95.4184 197.919 95.0635 197.88 94.7021L197.34 90.0557C197.34 89.7811 197.34 89.591 197.34 89.4749C197.34 89.3587 197.34 89.1581 197.34 88.8518L197.88 83.5718C197.932 83.1365 198.017 82.7057 198.135 82.2835L199.195 78.7142C199.245 78.5535 199.27 78.3861 199.269 78.2179C199.269 78.0067 199.216 77.88 199.11 77.8378C198.942 77.8136 198.771 77.8552 198.633 77.9539L198.22 78.144C197.801 78.4123 197.504 78.833 197.393 79.3162L196.333 83.0861C196.221 83.5022 196.14 83.9256 196.089 84.3533L195.485 89.8867C195.485 90.1824 195.485 90.3936 195.485 90.4992C195.485 90.6048 195.485 90.7738 195.485 91.08L196.089 95.8848C196.131 96.224 196.213 96.5572 196.333 96.8774L197.393 99.4858C197.548 99.9152 197.824 100.021 198.22 99.8026L198.58 99.5914C198.781 99.4808 198.946 99.3161 199.057 99.1162C199.16 98.9283 199.215 98.7178 199.216 98.5037C199.221 98.3627 199.196 98.2223 199.142 98.0918L198.135 95.7581ZM192.994 85.2614L192.612 85.4832C192.37 85.6274 192.174 85.8367 192.047 86.0871C191.919 86.3375 191.865 86.6187 191.891 86.8982V87.9542C191.891 88.5667 192.125 88.7357 192.612 88.4506L192.994 88.2394C193.227 88.1072 193.418 87.9124 193.546 87.6771C193.673 87.4418 193.732 87.1756 193.715 86.9088V85.8528C193.715 85.177 193.471 84.9869 192.994 85.2614ZM177.338 92.4634L177.136 92.5795C176.897 92.7211 176.703 92.927 176.575 93.1734C176.448 93.4199 176.392 93.6971 176.415 93.9734V102.421C176.422 102.637 176.389 102.851 176.32 103.055C176.276 103.199 176.182 103.322 176.055 103.404C176.016 103.429 175.97 103.443 175.923 103.443C175.876 103.443 175.83 103.429 175.79 103.404C175.685 103.337 175.607 103.236 175.567 103.118L172.663 95.8954C172.504 95.4941 172.228 95.399 171.826 95.6314L171.465 95.8426C171.226 95.9842 171.032 96.19 170.904 96.4365C170.777 96.683 170.721 96.9602 170.744 97.2365V112.559C170.744 113.203 170.988 113.383 171.465 113.108L171.72 112.992C171.958 112.855 172.152 112.653 172.28 112.41C172.408 112.167 172.463 111.893 172.44 111.619V102.77C172.439 102.54 172.475 102.312 172.546 102.094C172.594 101.944 172.691 101.814 172.822 101.724C173.013 101.608 173.172 101.724 173.288 102.041L176.362 109.602C176.521 109.993 176.797 110.077 177.189 109.845L177.391 109.729C177.628 109.591 177.822 109.389 177.949 109.146C178.077 108.903 178.133 108.629 178.111 108.356V93.0336C178.08 92.3789 177.815 92.1888 177.338 92.4634ZM186.072 87.9859C185.945 87.8908 185.791 87.8394 185.632 87.8394C185.473 87.8394 185.319 87.8908 185.192 87.9859L180.592 90.6365C180.351 90.7723 180.155 90.9736 180.025 91.2167C179.896 91.4599 179.839 91.7348 179.86 92.0093V107.311C179.86 107.944 180.104 108.124 180.592 107.849L185.192 105.209C185.573 104.967 185.878 104.623 186.072 104.217L186.655 103.161C186.887 102.724 187.01 102.239 187.015 101.746V89.3904C187.037 89.2132 187.015 89.0335 186.952 88.8664C186.89 88.6992 186.788 88.5494 186.655 88.4294L186.072 87.9859ZM185.372 101.967C185.394 102.241 185.338 102.514 185.21 102.757C185.083 103 184.889 103.202 184.652 103.34L182.235 104.734C181.747 105.009 181.503 104.829 181.503 104.196V93.2554C181.482 92.9809 181.539 92.706 181.668 92.4628C181.798 92.2196 181.994 92.0183 182.235 91.8826L184.652 90.4886C185.129 90.2141 185.372 90.3936 185.372 91.0378V101.967Z" fill="white"/>
<path d="M356.965 399.823C352.738 397.901 348.265 396.569 343.673 395.863C340.863 395.399 337.994 395.424 335.193 395.937C333.198 396.343 331.267 397.011 329.448 397.922C323.215 401.005 322.314 404.437 322.113 407.341C321.911 410.245 323.522 414.132 328.674 417.722L417.089 479.424C433.182 470.883 448.138 460.368 461.609 448.124C423.194 430.341 360.506 401.333 356.965 399.823Z" fill="#263238"/>
<path d="M385.257 269.966C390.684 271.022 392.804 271.392 395.401 275.869C397.998 280.347 402.408 296.989 403.616 300.443C404.824 303.896 405.185 305.152 404.676 308.996C404.157 313.009 401.782 320.137 400.786 324.044C400.319 325.85 400.012 327.613 399.673 329.461C399.204 331.353 398.602 333.209 397.871 335.016C397.558 335.897 397.012 336.678 396.291 337.276C395.846 337.667 395.231 337.709 394.807 338.068C394.383 338.427 394.267 339.061 393.673 339.356C393.08 339.652 392.253 339.483 391.67 339.821C391.095 340.241 390.497 340.629 389.878 340.982C389.309 341.147 388.789 341.448 388.363 341.859C387.981 342.271 387.621 343.2 386.932 343.126C386.243 343.052 386.041 342.313 386.009 341.679C386.034 340.436 386.457 339.233 387.218 338.247C387.894 337.15 388.634 336.092 389.433 335.079C390.212 334.141 390.769 333.04 391.066 331.859C391.309 331.067 391.235 330.063 390.207 330.517C389.009 331.067 387.737 332.207 386.296 331.954C385.299 331.785 385.236 331.003 385.819 330.349C386.777 329.269 387.656 328.122 388.447 326.917C389.253 325.681 389.921 324.382 390.758 323.178C391.211 322.553 391.703 321.957 392.232 321.394C393.694 319.81 393.631 317.645 393.8 315.628C394.034 312.829 394.235 305.649 394.235 305.649L387.663 289.524L385.257 269.966Z" fill="#FFBDA7"/>
<path d="M393.811 315.628C393.875 312.301 394.013 308.975 394.14 305.649C392.02 300.517 389.751 294.867 387.674 289.524C389.963 294.867 392.189 300.235 394.352 305.628C394.182 308.965 394.034 312.301 393.811 315.628Z" fill="white"/>
<path d="M348.613 395.198C350.478 394.543 351.867 394.479 351.846 395.398C351.593 396.53 351.19 397.624 350.648 398.651L349.164 400.689L348.454 402.695C348.454 402.695 347.584 403.751 347.531 403.857C347.478 403.962 347.192 400.108 347.192 400.108C347.192 400.108 346.143 395.673 348.613 395.198Z" fill="#263238"/>
<path d="M368.647 316.8C368.647 316.8 364.407 321.816 361.894 331.214C359.577 339.949 357.807 348.819 356.594 357.773C355.99 361.775 355.015 366.823 353.573 374.669C352.46 380.709 348.962 399.231 348.962 399.231C348.962 399.231 350.976 402.568 353.414 403.582C356.912 405.039 360.283 404.374 360.728 401.259C360.728 401.259 363.039 397.584 366.548 388.101C368.235 383.748 369.581 379.271 370.576 374.711C370.923 371.849 371.026 368.963 370.883 366.084L384.96 341.701C386.516 339.029 388.38 336.548 390.514 334.309C391.833 332.964 392.867 331.37 393.557 329.62C395.889 323.284 392.497 314.762 392.497 314.762L368.647 316.8Z" fill="#263238"/>
<path d="M356.647 357.762C354.379 371.649 351.782 385.482 349.015 399.274C351.453 385.419 354.061 371.596 356.647 357.762Z" fill="white"/>
<path d="M351.156 409.95L350.404 409.802C350.457 409.517 356.096 380.604 360.039 368.46C363.982 356.316 374.317 332.197 374.423 331.954L375.134 332.26C375.028 332.492 364.714 356.601 360.781 368.703C356.849 380.804 351.22 409.665 351.156 409.95Z" fill="black"/>
<path d="M387.175 324.921H364.057C363.211 326.966 362.503 329.065 361.937 331.204C359.8 339.246 358.153 347.41 357.008 355.65C357.57 359.42 358.206 363.296 358.789 365.957C360.347 372.99 361.322 377.953 362.552 380.857C363.739 383.312 365.14 385.658 366.739 387.869C368.385 383.604 369.699 379.219 370.671 374.753C371.018 371.891 371.121 369.005 370.979 366.126L384.759 342.313L385.744 338.564C389.168 332.894 388.776 328.638 387.175 324.921Z" fill="black"/>
<path d="M329.66 404.564C329.246 404.374 328.737 405.99 328.695 406.571C328.653 407.152 329.755 409.517 332.649 411.259C335.543 413.002 340.514 413.973 342.38 414.554C344.245 415.135 345.74 416.666 348.199 417.859C350.383 418.915 353.679 419.475 355.121 418.831C355.399 418.666 355.638 418.442 355.821 418.176C356.004 417.91 356.127 417.607 356.181 417.289C356.573 416.096 356.541 415.821 356.393 415.779L329.66 404.564Z" fill="#37474F"/>
<path d="M357.421 413.139C357.231 414.358 356.826 415.535 356.223 416.613C355.802 416.929 355.321 417.158 354.81 417.287C354.298 417.416 353.766 417.442 353.245 417.363C351 417.203 348.838 416.452 346.98 415.188C345.561 414.268 344.029 413.533 342.422 413.002C340.211 412.471 338.04 411.786 335.924 410.953C334.346 410.289 332.878 409.392 331.568 408.292C330.508 407.299 329.522 406.18 329.628 404.786C329.866 403.908 330.371 403.126 331.073 402.545C331.775 401.965 332.64 401.615 333.55 401.544C335.291 401.456 337.032 401.718 338.67 402.315C340.26 402.851 341.907 403.206 343.578 403.371C344.722 403.466 346.069 404.427 346.959 403.424C348.019 402.262 348.432 399.517 349.143 398.144C349.259 397.922 349.418 397.679 349.662 397.626C349.906 397.573 350.309 397.869 350.531 398.165C351.569 399.455 352.898 400.483 354.411 401.164C358.502 403.181 360.4 402.114 360.4 402.114L360.781 401.269C360.781 401.269 361.598 401.724 360.559 403.624C359.683 405.187 358.945 406.823 358.354 408.514C357.838 410.007 357.525 411.563 357.421 413.139Z" fill="#455A64"/>
<path d="M329.66 404.786C330.942 400.055 336.327 401.322 339.804 402.516C341.036 402.948 342.312 403.242 343.609 403.392C342.298 403.334 341.001 403.103 339.751 402.706C336.316 401.65 331.154 400.298 329.66 404.818V404.786Z" fill="white"/>
<path d="M339.433 402.526C337.684 402.684 337.207 405.504 337.207 405.504C338.774 406.342 340.479 406.893 342.242 407.13C343.468 407.342 344.728 407.09 345.777 406.424C346.826 405.758 347.588 404.725 347.913 403.529C348.655 401.174 347.977 397.88 347.839 396.813C347.758 396.447 347.824 396.064 348.022 395.744C348.22 395.425 348.534 395.195 348.899 395.102C348.599 395.13 348.308 395.219 348.044 395.364C347.78 395.509 347.549 395.707 347.365 395.944C347.181 396.182 347.048 396.455 346.974 396.746C346.901 397.038 346.888 397.341 346.938 397.637C346.991 398.904 346.938 401.407 346.397 402.241C345.857 403.075 343.154 403.445 339.433 402.526Z" fill="#455A64"/>
<path d="M383.253 316.8C385.799 319.798 387.289 323.544 387.493 327.466C387.668 331.275 386.468 335.021 384.112 338.026C383.232 350.867 380.688 375.588 380.688 375.588C384.09 379.072 384.928 381.332 386.942 387.584C388.14 391.385 392.634 403.603 393.747 407.004C387.79 407.732 384.546 413.635 384.546 413.635C384.546 413.635 374.052 398.197 369.007 389.115C365.265 382.399 363.537 379.949 362.424 375.978C361.046 371.026 360.675 368.47 359.445 360.138C358.216 351.806 357.039 341.204 356.435 332.989C355.831 324.773 355.375 316.093 355.375 316.093L383.253 316.8Z" fill="#263238"/>
<path d="M384.589 413.604C378.473 404.628 372.473 395.546 367.215 386.042C365.486 383.271 364 380.356 362.774 377.33C361.793 374.221 361.042 371.044 360.527 367.826C357.822 350.669 356.109 333.371 355.396 316.019L356.287 329.007C357.092 342.007 358.714 354.943 360.792 367.784C361.544 372.008 362.329 376.369 364.258 380.255C370.445 391.724 377.232 402.863 384.589 413.625V413.604Z" fill="white"/>
<path d="M369.76 379.59C366.675 371.754 362.976 329.102 363.166 314.361H362.393C362.329 319.292 362.7 327.328 363.336 336.146C360.824 334.879 359.202 332.556 359.202 320.876H358.428C358.428 332.619 359.965 335.46 363.4 337.033C364.693 354.499 367.004 374.701 369.039 379.886C372.06 387.552 387.822 413.456 387.97 413.678L388.638 413.276C388.479 413.044 372.759 387.204 369.76 379.59Z" fill="black"/>
<path d="M383.72 412.294C382.776 413.625 381.706 414.564 384.387 416.339C386.507 417.701 386.582 418.799 387.228 420.256C387.649 421.677 387.821 423.16 387.737 424.639C387.737 424.639 391.299 419.285 390.26 415.832C389.221 412.379 383.72 412.294 383.72 412.294Z" fill="#455A64"/>
<path d="M395.136 409.232C396.139 410.286 397.319 411.158 398.623 411.808C399.524 412.368 400.457 412.864 400.743 413.92C400.743 414.037 400.213 414.67 400.224 414.786C400.27 415.29 400.252 415.797 400.171 416.296C399.969 418.039 399.015 419.327 398.803 421.059C398.734 421.75 398.61 422.435 398.432 423.108C398.28 423.926 398.212 424.757 398.231 425.589C398.178 426.455 398.114 427.321 398.072 428.187C398.024 428.555 398.024 428.928 398.072 429.296C398.146 429.665 392.231 432.633 389.846 433.773C389.705 433.841 389.56 433.901 389.412 433.953C387.957 434.347 386.407 434.197 385.055 433.53C380.306 431.809 380.603 430.098 380.603 430.098C380.627 429.39 380.852 428.702 381.252 428.116C381.651 427.529 382.209 427.067 382.861 426.782C383.15 426.615 383.456 426.477 383.773 426.371C384.954 425.934 386.243 425.871 387.461 426.191C387.702 425.488 387.813 424.748 387.79 424.005C387.887 422.896 387.905 421.78 387.843 420.668C387.633 419.412 387.144 418.218 386.412 417.173C385.405 415.789 384.292 414.005 383.624 413.033C382.956 412.062 382.776 409.717 386.73 406.898C390.525 404.205 393.302 404.786 393.843 405.895C394.144 407.053 394.578 408.173 395.136 409.232Z" fill="#455A64"/>
<path d="M380.54 430.109C380.54 426.846 384.716 425.209 387.44 426.17C384.652 425.653 380.942 426.941 380.54 430.109Z" fill="white"/>
<path opacity="0.1" d="M384.928 427.881C385.244 427.075 385.843 426.411 386.613 426.012C386.892 426.044 387.169 426.097 387.44 426.17C386.963 426.624 385.256 427.3 384.928 427.881Z" fill="black"/>
<path d="M401.294 414.945C402.354 415.388 401.475 417.057 400.234 419.644C399.114 421.556 398.666 423.786 398.962 425.98C399.217 428.271 398.676 429.391 397.68 430.204C396.683 431.017 389.285 434.238 389.285 434.238C391.044 432.024 392.063 429.317 392.2 426.497C392.602 421.45 393.09 418.208 395.613 416.001C396.397 415.368 397.328 414.941 398.32 414.756C399.311 414.572 400.334 414.637 401.294 414.945Z" fill="black"/>
<path d="M380.54 430.098C380.656 431.091 383.486 433.097 386.825 433.055C390.164 433.013 390.451 432.305 390.97 428.409C391.489 424.512 391.85 419.095 393.546 416.793C395.242 414.491 397.468 413.097 400.722 413.942C401.093 414.121 402.1 415.124 401.729 416.054C401.729 416.054 401.729 415.314 400.393 414.924C399.249 414.596 397.881 414.628 395.973 416.275C393.737 418.187 393.238 422.696 392.984 426.561C392.73 430.426 391.521 434.132 388.309 434.481C386.923 434.668 385.512 434.551 384.176 434.139C382.839 433.727 381.609 433.029 380.571 432.094C380.37 431.445 380.359 430.753 380.54 430.098Z" fill="#37474F"/>
<path d="M361.396 245.721C360.963 245.114 360.697 244.405 360.622 243.665C360.548 242.924 360.669 242.177 360.972 241.497C361.513 240.124 362.636 238.677 365.912 236.988C369.812 234.981 380.518 233.545 385.818 240.525C386.582 241.581 376.045 261.276 376.565 265.362C373.83 262.501 364.809 252.437 364.809 252.437C362.689 251.529 361.375 250.758 360.919 248.751C360.754 247.716 360.921 246.656 361.396 245.721Z" fill="#263238"/>
<path d="M364.809 252.384C361.629 251.55 359.605 248.772 361.396 245.689C360.039 248.857 361.852 251.159 364.809 252.384Z" fill="white"/>
<path d="M361.396 245.721C360.061 244.263 360.389 241.919 361.396 240.356C362.566 238.84 364.127 237.668 365.912 236.966C365.098 237.433 364.312 237.948 363.559 238.508C361.343 240.039 359.69 243.26 361.439 245.721H361.396Z" fill="white"/>
<path d="M363.007 251.328C363.007 251.328 360.113 256.027 360.442 256.418C361.107 256.945 361.817 257.415 362.562 257.822L363.007 251.328Z" fill="#F0997A"/>
<path d="M363.007 251.328C362.287 252.838 361.417 254.264 360.707 255.763C360.612 256.006 360.41 256.291 360.548 256.46C360.73 256.669 360.945 256.848 361.184 256.988C360.898 256.83 360.421 256.703 360.357 256.323C360.941 254.516 361.838 252.826 363.007 251.328Z" fill="white"/>
<path d="M366.59 242.732C364.651 243.651 362.976 245.129 362.35 249.364C362.191 250.473 363.061 251.983 362.668 253.451C360.983 259.787 362.986 265.067 364.216 266.175C365.043 266.957 369.389 267.305 371.636 266.672C374.487 265.88 380.688 263.092 383.646 258.646C387.123 253.366 387.886 246.396 384.059 243.577C378.664 239.606 368.657 241.761 366.59 242.732Z" fill="#FFBDA7"/>
<path d="M362.371 249.364C362.371 250.8 363.219 252.205 362.732 253.672C361.831 257.759 361.767 262.617 364.237 266.175C361.523 262.733 361.523 257.727 362.562 253.63C363.05 252.236 362.244 250.811 362.371 249.406V249.364Z" fill="white"/>
<path d="M381.42 261.635L382.543 269.417C384.292 269.787 384.451 271.846 383.603 273.398L384.017 275.595L372.06 277.728L370.724 266.841L381.42 261.635Z" fill="#FFBDA7"/>
<path d="M364.47 266.334C365.53 266.894 367.703 267.305 370.735 266.883L370.555 265.341C369.593 265.701 368.604 265.983 367.597 266.186C366.568 266.389 365.514 266.439 364.47 266.334Z" fill="#F0997A"/>
<path d="M363.728 244.992C363.647 245.906 363.888 246.819 364.408 247.576C364.928 248.333 365.695 248.886 366.58 249.142C366.108 250.154 365.931 251.277 366.071 252.384C366.111 253.038 366.337 253.667 366.724 254.196C367.111 254.726 367.642 255.134 368.254 255.372C369.092 255.658 369.314 255.288 369.643 254.623C370.067 253.683 370.608 252.247 372.632 252.511C374.954 252.827 375.568 256.312 374.212 258.593C373.951 259.075 373.576 259.487 373.12 259.793C372.664 260.098 372.14 260.288 371.593 260.346C371.293 260.342 370.996 260.273 370.724 260.146C370.451 260.019 370.21 259.835 370.014 259.607C370.014 259.607 370.162 262.648 374.095 264.454C376.555 265.757 379.404 266.132 382.119 265.51C383.947 263.487 385.67 261.372 387.281 259.174C391.521 253.007 392.422 241.718 385.161 239.691C384.812 239.596 378.208 238.635 374.985 239.374C365.053 241.486 363.749 244.517 363.728 244.992Z" fill="#263238"/>
<path d="M381.653 238.899C380.775 239.529 380.172 240.47 379.967 241.528C379.877 242.056 379.927 242.598 380.113 243.101C380.299 243.603 380.614 244.048 381.027 244.39C383.147 246.048 386.455 244.116 386.847 241.666C387.292 238.772 383.794 237.315 381.653 238.899Z" fill="#2E8FB8"/>
<path d="M383.38 239.818C381.207 241.148 379.851 244.285 381.006 246.544C381.324 247.157 381.769 247.706 382.066 248.35C382.903 250.409 381.684 252.68 381.419 254.887C381.238 256.639 381.542 258.406 382.299 259.998C383.02 261.17 384.61 261.466 385.246 262.691C385.681 263.535 385.384 264.57 385.553 265.51C385.924 267.527 388.32 268.499 390.387 268.541C391.261 268.618 392.141 268.503 392.965 268.203C393.79 267.904 394.538 267.428 395.157 266.809C395.631 266.076 396.148 265.37 396.705 264.697C397.934 263.546 399.885 263.641 401.241 262.585C401.743 262.144 402.136 261.593 402.39 260.976C402.644 260.359 402.751 259.692 402.704 259.026C402.579 257.693 402.22 256.392 401.644 255.182C400.764 253.07 401.464 251.708 401.909 249.565C402.118 248.407 401.925 247.213 401.363 246.178C400.8 245.144 399.902 244.331 398.814 243.873C397.319 243.281 395.496 243.376 394.288 242.31C393.715 241.634 393.177 240.929 392.677 240.198C390.408 237.716 385.935 238.265 383.38 239.818Z" fill="#263238"/>
<path d="M391.914 275.785C391.437 274.494 390.683 273.323 389.703 272.354C388.723 271.386 387.542 270.643 386.243 270.178C385.183 269.861 382.543 269.417 382.543 269.417C383.148 270.79 382.13 271.698 380.339 272.11C378.038 272.649 374.53 272.702 372.145 271.128L371.17 270.526C368.567 271.163 365.999 271.932 363.474 272.828C362.955 273.071 360.082 274.032 355.566 284.138C353.637 288.457 354.21 292.839 357.761 295.955C357.962 298.69 356.192 304.846 356.192 304.846C355.292 309.984 355.085 315.219 355.577 320.412C355.577 320.412 357.697 326.008 374.509 325.945C387.515 325.945 394.055 319.609 394.055 319.609C393.896 316.441 388.893 305.321 389.391 301.583C390.165 296.134 395.179 286.366 391.914 275.785Z" fill="#2E8FB8"/>
<path d="M363.474 272.828C366.897 275.605 367.162 279.418 366.654 284.56C366.145 289.703 360.961 305.775 359.901 309.271C358.841 312.766 357.326 313.98 354.654 316.811C351.983 319.641 345.74 324.139 342.634 326.716C341.192 327.909 339.91 329.155 338.542 330.454C337.049 331.709 335.469 332.86 333.815 333.897C333.042 334.424 332.142 334.737 331.207 334.805C330.614 334.805 330.094 334.53 329.532 334.572C328.971 334.615 328.472 335.058 327.858 334.953C327.243 334.847 326.628 334.224 325.96 334.15C325.252 334.16 324.544 334.128 323.84 334.055C323.282 333.849 322.68 333.787 322.091 333.876C321.54 333.981 320.703 334.52 320.183 334.066C319.664 333.612 319.95 332.883 320.289 332.344C321.039 331.336 322.095 330.596 323.3 330.232C324.492 329.741 325.714 329.322 326.957 328.976C328.126 328.663 329.212 328.097 330.137 327.318C330.794 326.821 331.324 325.955 330.232 325.734C328.939 325.47 327.232 325.649 326.204 324.604C325.504 323.886 325.918 323.22 326.776 323.03C328.188 322.72 329.573 322.303 330.921 321.784C332.299 321.256 333.603 320.591 334.991 320.105C335.732 319.867 336.486 319.673 337.249 319.524C339.369 319.091 340.588 317.307 341.903 315.776C343.747 313.664 346.916 309.63 349.068 306.736L352.322 291.055C354.379 282.543 355.1 275.405 363.474 272.828Z" fill="#FFBDA7"/>
<path d="M366.633 284.56C365.806 289.207 364.669 293.793 363.23 298.288C363.124 298.658 363.007 299.017 362.901 299.344C361.598 303.748 360.336 307.718 359.87 309.26C358.916 312.428 357.57 313.738 355.333 316.061L354.623 316.8C351.835 319.746 345.708 324.129 342.602 326.716C341.171 327.909 339.878 329.145 338.521 330.444C337.024 331.702 335.441 332.856 333.783 333.897C333.009 334.42 332.109 334.73 331.176 334.794C330.582 334.847 330.063 334.52 329.501 334.562C328.939 334.604 328.441 335.048 327.826 334.942C327.211 334.837 326.596 334.214 325.929 334.15C325.22 334.156 324.513 334.121 323.809 334.045C323.249 333.843 322.649 333.781 322.06 333.865C321.89 333.865 321.689 333.981 321.477 334.055L321.212 334.14C321.092 334.184 320.967 334.212 320.841 334.224C320.722 334.248 320.6 334.245 320.482 334.216C320.365 334.186 320.256 334.132 320.162 334.055C319.579 333.548 319.918 332.883 320.258 332.344C321.007 331.336 322.063 330.595 323.268 330.232C324.461 329.738 325.682 329.315 326.925 328.965C328.095 328.652 329.18 328.086 330.105 327.307C330.762 326.811 331.292 325.956 330.2 325.723C328.907 325.459 327.201 325.639 326.183 324.604C325.473 323.875 325.886 323.21 326.745 323.02C328.156 322.711 329.542 322.294 330.889 321.774C332.267 321.246 333.582 320.581 334.96 320.105C335.698 319.86 336.452 319.666 337.218 319.525C339.338 319.092 340.557 317.296 341.871 315.776C343.715 313.664 346.885 309.619 349.047 306.726L352.291 291.044C354.347 282.491 355.1 275.352 363.442 272.786C364.303 273.481 365.023 274.334 365.562 275.299C366.982 277.791 367.014 280.822 366.633 284.56Z" fill="#FFBDA7"/>
<path d="M320.12 334.066C319.922 333.866 319.805 333.601 319.789 333.321C319.773 333.041 319.861 332.765 320.035 332.545C320.83 331.014 322.558 330.359 324.084 329.842C325.099 329.366 326.166 329.012 327.264 328.786C328.306 328.465 329.285 327.968 330.158 327.318C329.332 328.056 328.366 328.624 327.317 328.986C325.2 329.504 323.166 330.314 321.275 331.394C320.576 331.954 319.357 333.126 320.162 334.023L320.12 334.066Z" fill="white"/>
<path d="M326.204 324.646C324.89 323.147 327.434 322.956 328.388 322.64C330.911 321.995 333.137 320.612 335.617 319.915C336.889 319.721 338.105 319.264 339.189 318.574C340.917 317.212 342.772 314.477 344.203 312.756L348.973 306.705C350.033 301.425 351.718 293.198 352.98 287.834C354.326 281.498 356.393 274.729 363.474 272.828C356.499 274.803 354.464 281.53 353.171 287.876C351.899 293.325 350.372 301.298 349.174 306.884L344.362 312.924C342.889 314.656 341.076 317.339 339.285 318.743C338.186 319.435 336.955 319.892 335.67 320.084C333.19 320.771 330.932 322.122 328.409 322.724C327.444 323.03 324.922 323.168 326.204 324.678V324.646Z" fill="white"/>
<path opacity="0.3" d="M387.44 341.521C387.44 341.931 387.554 342.333 387.769 342.683C387.991 342.408 388.182 342.07 388.373 341.859C388.799 341.448 389.32 341.147 389.889 340.982C390.507 340.629 391.105 340.241 391.68 339.821C392.253 339.483 393.016 339.684 393.684 339.356C394.351 339.029 394.373 338.448 394.818 338.068C395.263 337.688 395.878 337.667 396.302 337.276C397.023 336.678 397.568 335.897 397.881 335.016C398.612 333.209 399.214 331.353 399.683 329.461C400.022 327.613 400.33 325.85 400.796 324.044C401.793 320.137 404.167 313.009 404.686 308.996C405.185 305.152 404.824 303.885 403.626 300.443C402.429 297 398.008 280.379 395.411 275.869C392.952 271.645 390.906 271.075 386.073 270.125L385.787 270.051L385.299 269.945L384.917 269.861L384.43 269.766L384.144 269.713L383.444 269.576L382.914 269.481H382.776H382.554L381.992 265.584H382.13C382.988 264.528 383.932 263.525 384.917 262.342C385.038 262.481 385.141 262.633 385.225 262.796C385.67 263.641 385.363 264.665 385.532 265.605C385.903 267.633 388.299 268.594 390.366 268.646C391.24 268.719 392.12 268.601 392.944 268.3C393.768 267.999 394.516 267.523 395.136 266.904C395.613 266.173 396.13 265.468 396.683 264.792C397.913 263.641 399.863 263.736 401.231 262.68C401.732 262.236 402.123 261.683 402.375 261.064C402.627 260.445 402.732 259.777 402.683 259.111C402.563 257.777 402.204 256.475 401.623 255.267C400.743 253.155 401.443 251.793 401.888 249.66C402.098 248.501 401.907 247.307 401.347 246.271C400.787 245.235 399.89 244.419 398.803 243.957C397.298 243.366 395.475 243.471 394.267 242.394C393.697 241.718 393.163 241.013 392.666 240.282C390.97 238.434 388.055 238.276 385.617 238.952C385.015 238.536 384.293 238.324 383.561 238.35C380.253 235.794 375.939 235.182 372.24 235.477C370.848 236.06 369.589 236.919 368.54 238.001C365.212 241.285 363.24 246.111 364.11 250.673C364.279 251.529 364.544 252.352 364.682 253.208C365.032 255.394 364.544 257.622 364.555 259.839C364.565 262.057 365.265 264.507 367.194 265.595C368.657 266.408 370.448 266.249 372.113 266.46C374.847 266.809 374.529 268.488 374.635 270.801C374.681 271.155 374.653 271.514 374.551 271.857C374.508 271.98 374.444 272.095 374.36 272.195C373.65 273.071 371.636 273.42 370.745 273.715C368.98 274.141 367.257 274.721 365.594 275.447C364.83 275.833 364.169 276.394 363.664 277.084C361.64 279.914 360.781 283.283 359.923 286.588C359.128 289.65 358.29 292.713 357.41 295.754C356.619 298.514 355.792 301.259 354.93 303.991C354.259 306.476 353.254 308.86 351.941 311.076C350.298 313.579 347.945 315.522 345.825 317.655C341.023 322.492 337.005 328.68 330.582 331.003C328.112 331.89 325.462 332.133 322.929 332.809C322.049 333.041 321.052 333.506 320.809 334.319C320.935 334.307 321.06 334.279 321.18 334.235L321.445 334.15C321.657 334.076 321.858 334.002 322.028 333.96C322.617 333.876 323.217 333.938 323.777 334.14C324.481 334.216 325.188 334.251 325.897 334.245C326.564 334.308 327.063 334.921 327.794 335.037C328.525 335.153 328.854 334.699 329.469 334.657C330.084 334.615 330.529 334.942 331.144 334.889C332.077 334.825 332.977 334.515 333.751 333.992C335.409 332.951 336.992 331.797 338.489 330.539C339.846 329.24 341.139 328.004 342.57 326.811C345.676 324.224 351.803 319.841 354.591 316.895L355.301 316.156C357.527 313.843 358.873 312.544 359.827 309.366C360.294 307.824 361.555 303.853 362.859 299.45L363.187 298.394C363.677 298.988 363.933 299.738 363.908 300.506C364.3 305.638 365.53 310.834 366.367 315.945C366.961 319.588 367.565 323.231 367.841 326.906C368.053 329.567 368.085 332.186 368.127 334.889L368.381 353.897C368.381 354.953 368.381 356.009 368.434 357.129C368.448 360.12 368.653 363.108 369.049 366.073C369.395 368.687 369.966 371.266 370.756 373.782C370.947 374.394 371.148 375.007 371.371 375.619C373.565 381.691 377.01 387.235 380.328 392.705C383.694 398.55 386.713 404.587 389.369 410.784C389.914 411.868 390.313 413.018 390.557 414.205C390.896 416.254 390.334 418.334 390.175 420.404C390.016 422.474 390.249 424.459 390.175 426.487C390.221 428.527 389.628 430.531 388.479 432.221C387.65 433.284 386.503 434.058 385.204 434.428C386.222 434.604 387.261 434.636 388.288 434.523C388.881 434.469 389.452 434.273 389.952 433.953C392.575 432.851 395.137 431.61 397.627 430.236C398.623 429.444 399.164 428.314 398.92 426.012C398.614 423.818 399.058 421.586 400.181 419.676C400.861 418.515 401.382 417.268 401.729 415.969C401.994 415.071 401.061 414.142 400.669 413.963C400.404 412.907 399.471 412.4 398.549 411.851C397.248 411.2 396.071 410.328 395.072 409.274C394.498 408.211 394.054 407.084 393.747 405.916C393.611 405.659 393.401 405.449 393.143 405.314C391.511 400.636 387.96 390.91 386.91 387.605C384.939 381.343 384.059 379.083 380.656 375.598C380.656 375.598 382.532 357.35 383.624 344.076L384.939 341.785C385.076 341.542 385.214 341.31 385.363 341.077C386.834 338.687 388.554 336.457 390.493 334.425C390.684 334.224 390.875 333.992 391.065 333.77C390.779 334.245 390.504 334.72 390.186 335.185C388.924 337.107 387.345 339.166 387.44 341.521ZM393.927 319.746L394.055 319.63C393.991 318.943 393.859 318.264 393.662 317.603C393.419 316.705 393.079 315.638 392.708 314.487C392.592 314.128 392.465 313.759 392.337 313.431C391.903 312.143 391.436 310.77 391.012 309.44C390.875 309.028 390.747 308.616 390.631 308.215C390.514 307.813 390.355 307.328 390.239 306.905C390.122 306.483 390.069 306.303 389.995 306.008C389.995 305.913 389.942 305.807 389.921 305.712C389.899 305.617 389.825 305.321 389.783 305.142C389.698 304.793 389.624 304.466 389.571 304.149L389.507 303.801C389.502 303.72 389.502 303.639 389.507 303.558C389.476 303.404 389.455 303.249 389.444 303.093V302.776C389.433 302.586 389.433 302.396 389.444 302.206C389.432 302.023 389.432 301.84 389.444 301.657C389.73 300.018 390.123 298.399 390.62 296.81C390.959 295.585 391.341 294.276 391.68 292.882C392.687 294.751 393.662 296.62 394.638 298.5C395.475 299.986 396.185 301.54 396.758 303.146C397.924 306.8 397.637 310.76 397.192 314.572C396.727 318.92 395.759 323.201 394.309 327.328C394.619 324.798 394.49 322.233 393.927 319.746Z" fill="black"/>
</svg>
