<svg width="228" height="51" viewBox="0 0 228 51" fill="none" xmlns="http://www.w3.org/2000/svg">
<path d="M1.9849 33.9317V25.5317C1.9849 25.261 1.97557 24.9857 1.9569 24.7057C1.93823 24.4257 1.91023 24.1457 1.8729 23.8657H3.1049L3.2589 25.4897H3.1049C3.2449 24.9484 3.54357 24.5237 4.0009 24.2157C4.45823 23.8984 5.00423 23.7397 5.6389 23.7397C6.26423 23.7397 6.81023 23.8844 7.2769 24.1737C7.74357 24.463 8.1029 24.883 8.3549 25.4337C8.61623 25.975 8.7469 26.6237 8.7469 27.3797C8.7469 28.1357 8.61623 28.789 8.3549 29.3397C8.1029 29.8904 7.74357 30.3104 7.2769 30.5997C6.81023 30.889 6.26423 31.0337 5.6389 31.0337C5.01357 31.0337 4.47223 30.8797 4.0149 30.5717C3.5669 30.2544 3.26357 29.8297 3.1049 29.2977H3.2589V33.9317H1.9849ZM5.3449 30.0257C5.9889 30.0257 6.50223 29.8017 6.8849 29.3537C7.26757 28.9057 7.4589 28.2477 7.4589 27.3797C7.4589 26.5117 7.26757 25.8584 6.8849 25.4197C6.50223 24.981 5.9889 24.7617 5.3449 24.7617C4.7009 24.7617 4.18757 24.981 3.8049 25.4197C3.43157 25.8584 3.2449 26.5117 3.2449 27.3797C3.2449 28.2477 3.43157 28.9057 3.8049 29.3537C4.18757 29.8017 4.7009 30.0257 5.3449 30.0257ZM13.4295 31.0337C12.7388 31.0337 12.1415 30.889 11.6375 30.5997C11.1335 30.301 10.7415 29.881 10.4615 29.3397C10.1815 28.789 10.0415 28.1357 10.0415 27.3797C10.0415 26.633 10.1815 25.989 10.4615 25.4477C10.7415 24.897 11.1335 24.477 11.6375 24.1877C12.1415 23.889 12.7388 23.7397 13.4295 23.7397C14.1201 23.7397 14.7175 23.889 15.2215 24.1877C15.7348 24.477 16.1268 24.897 16.3975 25.4477C16.6775 25.989 16.8175 26.633 16.8175 27.3797C16.8175 28.1357 16.6775 28.789 16.3975 29.3397C16.1268 29.881 15.7348 30.301 15.2215 30.5997C14.7175 30.889 14.1201 31.0337 13.4295 31.0337ZM13.4295 30.0257C14.0641 30.0257 14.5728 29.8017 14.9555 29.3537C15.3381 28.9057 15.5295 28.2477 15.5295 27.3797C15.5295 26.5117 15.3381 25.8584 14.9555 25.4197C14.5728 24.981 14.0641 24.7617 13.4295 24.7617C12.7855 24.7617 12.2721 24.981 11.8895 25.4197C11.5161 25.8584 11.3295 26.5117 11.3295 27.3797C11.3295 28.2477 11.5161 28.9057 11.8895 29.3537C12.2721 29.8017 12.7855 30.0257 13.4295 30.0257ZM20.3225 30.9077L17.6905 23.8657H19.0205L21.1485 29.8997H20.7845L22.9685 23.8657H24.0045L26.1745 29.8997H25.8245L27.9665 23.8657H29.2405L26.5945 30.9077H25.3905L23.1505 24.7757H23.7665L21.5405 30.9077H20.3225ZM33.7241 31.0337C32.6041 31.0337 31.7174 30.7117 31.0641 30.0677C30.4201 29.4237 30.0981 28.537 30.0981 27.4077C30.0981 26.661 30.2381 26.017 30.5181 25.4757C30.8074 24.925 31.2041 24.5004 31.7081 24.2017C32.2121 23.8937 32.8001 23.7397 33.4721 23.7397C34.1161 23.7397 34.6621 23.8797 35.1101 24.1597C35.5581 24.4304 35.8988 24.8177 36.1321 25.3217C36.3654 25.8257 36.4821 26.423 36.4821 27.1137V27.5337H31.0921V26.7777H35.6141L35.3761 26.9597C35.3761 26.2317 35.2128 25.667 34.8861 25.2657C34.5688 24.8644 34.0974 24.6637 33.4721 24.6637C32.7908 24.6637 32.2634 24.9017 31.8901 25.3777C31.5168 25.8444 31.3301 26.4837 31.3301 27.2957V27.4217C31.3301 28.2804 31.5401 28.929 31.9601 29.3677C32.3894 29.8064 32.9821 30.0257 33.7381 30.0257C34.1581 30.0257 34.5501 29.965 34.9141 29.8437C35.2781 29.7224 35.6281 29.5217 35.9641 29.2417L36.3841 30.1237C36.0668 30.413 35.6701 30.637 35.1941 30.7957C34.7274 30.9544 34.2374 31.0337 33.7241 31.0337ZM38.133 30.9077V25.5877C38.133 25.3077 38.1237 25.023 38.105 24.7337C38.0957 24.435 38.0723 24.1457 38.035 23.8657H39.267L39.421 25.6297L39.211 25.6437C39.3043 25.2144 39.463 24.8597 39.687 24.5797C39.9203 24.2904 40.1957 24.0804 40.513 23.9497C40.8397 23.8097 41.1757 23.7397 41.521 23.7397C41.6703 23.7397 41.7963 23.7444 41.899 23.7537C42.0017 23.763 42.1043 23.7864 42.207 23.8237L42.179 24.9577C42.039 24.9017 41.9083 24.869 41.787 24.8597C41.675 24.841 41.535 24.8317 41.367 24.8317C40.9563 24.8317 40.6017 24.925 40.303 25.1117C40.0137 25.2984 39.7897 25.5457 39.631 25.8537C39.4817 26.1617 39.407 26.493 39.407 26.8477V30.9077H38.133ZM46.4389 31.0337C45.3189 31.0337 44.4323 30.7117 43.7789 30.0677C43.1349 29.4237 42.8129 28.537 42.8129 27.4077C42.8129 26.661 42.9529 26.017 43.2329 25.4757C43.5223 24.925 43.9189 24.5004 44.4229 24.2017C44.9269 23.8937 45.5149 23.7397 46.1869 23.7397C46.8309 23.7397 47.3769 23.8797 47.8249 24.1597C48.2729 24.4304 48.6136 24.8177 48.8469 25.3217C49.0803 25.8257 49.1969 26.423 49.1969 27.1137V27.5337H43.8069V26.7777H48.3289L48.0909 26.9597C48.0909 26.2317 47.9276 25.667 47.6009 25.2657C47.2836 24.8644 46.8123 24.6637 46.1869 24.6637C45.5056 24.6637 44.9783 24.9017 44.6049 25.3777C44.2316 25.8444 44.0449 26.4837 44.0449 27.2957V27.4217C44.0449 28.2804 44.2549 28.929 44.6749 29.3677C45.1043 29.8064 45.6969 30.0257 46.4529 30.0257C46.8729 30.0257 47.2649 29.965 47.6289 29.8437C47.9929 29.7224 48.3429 29.5217 48.6789 29.2417L49.0989 30.1237C48.7816 30.413 48.3849 30.637 47.9089 30.7957C47.4423 30.9544 46.9523 31.0337 46.4389 31.0337ZM53.5499 31.0337C52.9339 31.0337 52.3925 30.889 51.9259 30.5997C51.4592 30.3104 51.0952 29.8904 50.8339 29.3397C50.5725 28.789 50.4419 28.1357 50.4419 27.3797C50.4419 26.6237 50.5725 25.975 50.8339 25.4337C51.0952 24.883 51.4592 24.463 51.9259 24.1737C52.3925 23.8844 52.9339 23.7397 53.5499 23.7397C54.1659 23.7397 54.7025 23.8937 55.1599 24.2017C55.6265 24.5097 55.9392 24.9344 56.0979 25.4757H55.9299V20.6037H57.2039V30.9077H55.9439V29.2697H56.0979C55.9485 29.8204 55.6405 30.2544 55.1739 30.5717C54.7165 30.8797 54.1752 31.0337 53.5499 31.0337ZM53.8439 30.0257C54.4785 30.0257 54.9872 29.8017 55.3699 29.3537C55.7619 28.9057 55.9579 28.2477 55.9579 27.3797C55.9579 26.5117 55.7619 25.8584 55.3699 25.4197C54.9872 24.981 54.4785 24.7617 53.8439 24.7617C53.2092 24.7617 52.6959 24.981 52.3039 25.4197C51.9212 25.8584 51.7299 26.5117 51.7299 27.3797C51.7299 28.2477 51.9212 28.9057 52.3039 29.3537C52.6959 29.8017 53.2092 30.0257 53.8439 30.0257ZM66.6838 31.0337C66.0585 31.0337 65.5172 30.8797 65.0598 30.5717C64.6025 30.2544 64.2992 29.8204 64.1498 29.2697H64.3038V30.9077H63.0298V20.6037H64.3038V25.4757H64.1498C64.3085 24.9344 64.6118 24.5097 65.0598 24.2017C65.5172 23.8937 66.0585 23.7397 66.6838 23.7397C67.3092 23.7397 67.8552 23.889 68.3218 24.1877C68.7885 24.477 69.1478 24.8924 69.3998 25.4337C69.6612 25.975 69.7918 26.6284 69.7918 27.3937C69.7918 28.1497 69.6612 28.803 69.3998 29.3537C69.1478 29.895 68.7838 30.3104 68.3078 30.5997C67.8412 30.889 67.2998 31.0337 66.6838 31.0337ZM66.3898 30.0257C67.0245 30.0257 67.5332 29.8064 67.9158 29.3677C68.3078 28.9197 68.5038 28.2617 68.5038 27.3937C68.5038 26.5257 68.3078 25.8724 67.9158 25.4337C67.5332 24.9857 67.0245 24.7617 66.3898 24.7617C65.7458 24.7617 65.2325 24.981 64.8498 25.4197C64.4765 25.8584 64.2898 26.5117 64.2898 27.3797C64.2898 28.2477 64.4765 28.9057 64.8498 29.3537C65.2325 29.8017 65.7458 30.0257 66.3898 30.0257ZM71.159 34.0857L70.865 33.0497C71.3037 32.947 71.6677 32.8257 71.957 32.6857C72.2463 32.555 72.489 32.3824 72.685 32.1677C72.881 31.953 73.0537 31.6824 73.203 31.3557L73.553 30.5157L73.525 31.0477L70.459 23.8657H71.831L74.281 29.8997H73.917L76.367 23.8657H77.683L74.449 31.4537C74.253 31.911 74.0383 32.2937 73.805 32.6017C73.581 32.9097 73.3337 33.1617 73.063 33.3577C72.8017 33.5537 72.5123 33.7077 72.195 33.8197C71.8777 33.9317 71.5323 34.0204 71.159 34.0857ZM78.6655 25.4057V23.8657H80.2195V25.4057H78.6655ZM78.6655 30.9077V29.3537H80.2195V30.9077H78.6655Z" fill="#1C2020"/>
<g clip-path="url(#clip0_750_8301)">
<path d="M111.5 46.9077L114.5 49.4077L117.5 46.9077L115.5 45.4077H113.5L111.5 46.9077Z" fill="#1C2020"/>
<path d="M131.938 30.9077L135 34.4077L130.5 39.4077L121.5 43.9077L114.5 49.4077M131.938 30.9077L128 26.4077M131.938 30.9077L136 21.9077L135.9 16.4077M118.5 16.4077L120 13.4077L135.5 1.90771L135.722 4.90771M118.5 16.4077L119.5 22.9077L116.5 30.9077L115.5 45.4077M118.5 16.4077H110.5M132.5 20.9077L133.5 20.4077L135.9 16.4077M135.9 16.4077L136.5 15.4077L135.722 4.90771M110.5 16.4077L109 13.4077L93.5 1.90771L93.2778 4.90771M110.5 16.4077L109.5 22.9077L112.5 30.9077L113.5 45.4077M124.5 22.4077L126.5 15.9077L135.722 4.90771M114.5 49.4077L107.5 43.9077L98.5 39.4077L94 34.4077L101 26.4077M114.5 49.4077L111.5 46.9077L113.5 45.4077M114.5 49.4077L117.5 46.9077L115.5 45.4077M115.5 45.4077H113.5M96.5 20.9077L95.5 20.4077L93.1 16.4077M97 30.9077L93 21.9077L93.1 16.4077M93.1 16.4077L92.5 15.4077L93.2778 4.90771M104.5 22.4077L102.5 15.9077L93.2778 4.90771" stroke="#1C2020"/>
<path d="M108.5 35.3552L109.5 35.9077L108 32.4077L103.5 30.9077L105.5 34.9077L108.5 35.3552Z" fill="#1C2020"/>
<path d="M120.5 35.3552L119.5 35.9077L121 32.4077L125.5 30.9077L123.5 34.9077L120.5 35.3552Z" fill="#1C2020"/>
<path d="M113.5 45.4077L111.5 46.9077L114.5 49.4077L117.5 46.9077L115.5 45.4077H113.5Z" fill="#1C2020"/>
<path d="M108.5 35.3552L109.5 35.9077L108 32.4077L103.5 30.9077L105.5 34.9077L108.5 35.3552Z" stroke="#1C2020"/>
<path d="M120.5 35.3552L119.5 35.9077L121 32.4077L125.5 30.9077L123.5 34.9077L120.5 35.3552Z" stroke="#1C2020"/>
<path d="M113.5 45.4077L111.5 46.9077L114.5 49.4077L117.5 46.9077L115.5 45.4077H113.5Z" stroke="#1C2020"/>
</g>
<path d="M153.5 14.4077L152.5 15.4077L152.499 16.8957H160.496V22.3802L158.497 24.3997H149.5V21.8984H156.5L157.497 20.9077V19.3971H149.5V13.9088L151.499 11.9077H160.496V14.3944L153.5 14.4077Z" fill="#1C2020"/>
<path d="M164.994 21.8984H167.494V22.3987L165.494 24.3997H161.996V14.3944L163.661 12.3933H164.994V21.8984Z" fill="#1C2020"/>
<path d="M179.989 15.3844V25.9005L177.99 27.9016H169.493V25.4149L176.49 25.4149L176.99 24.9147V24.4144L168.993 24.4144V17.396L170.992 15.3949H171.992V21.8984L176.99 21.8984V15.3949L179.989 15.3844Z" fill="#1C2020"/>
<path d="M185.5 14.4077L184.5 15.4077L184.487 16.8957H192.485V22.3802L190.485 24.3997H181.489V21.8984L188.5 21.9077L189.5 20.9077L189.486 19.3971H181.489V13.9088L183.488 11.9077H192.485V14.3944L185.5 14.4077Z" fill="#1C2020"/>
<path fill-rule="evenodd" clip-rule="evenodd" d="M193.984 17.4088L195.983 15.4077H204.982L204.98 22.4115L202.981 24.4125H193.984V17.4088ZM202 20.9205L201 21.9205L196.983 21.9112L197 18.9205L198 17.9205L201.981 17.909L202 20.9205Z" fill="#1C2020"/>
<path d="M211.5 17.8962V24.3997H208.506V17.8962H206.507V15.3949H208.506V14.3944L210.539 12.3933H215.504V14.3944L212 14.4077L211.5 14.9077L211.5 15.3949H213.977V17.8962H211.5Z" fill="#1C2020"/>
<path d="M220.002 21.8984H226V22.3986L224.001 24.3997H217.003L216.976 17.8962H215.476V15.3949H216.975L218.987 13.3938H220.002V15.3949H224.001V17.8962H220.002V21.8984Z" fill="#1C2020"/>
<path d="M151.615 33.0206V35.1496H157.256V35.5045L155.846 36.9238H149.5V31.9561L150.932 30.5376H157.256V32.3109L152.32 32.3109L151.615 33.0206Z" fill="#1C2020"/>
<path d="M194.624 30.5367L196.74 30.5376V35.5045L195.33 36.9238L188.984 36.9238V31.9561L190.394 30.5367L191.099 30.5376V35.2034L194.624 35.2025V30.5367Z" fill="#1C2020"/>
<path d="M208.726 36.9238L206.611 36.9238V30.5368L208.726 30.5367V36.9238ZM208.726 30.1819H206.611V28.4077H208.726V30.1819Z" fill="#1C2020"/>
<path d="M212.956 35.1497H217.187V35.5045L215.777 36.9238H210.841V32.3109H209.732V30.5367H210.841L212.251 29.1174H212.956V30.5367H215.777V32.3109H212.956V35.1497Z" fill="#1C2020"/>
<path d="M226 30.5367V37.9884L224.59 39.4077H218.949L218.944 37.6335H223.532L223.885 37.2787V36.9238H218.244V31.9561L219.654 30.5367H220.494V35.1497H223.885V30.5367H226Z" fill="#1C2020"/>
<path fill-rule="evenodd" clip-rule="evenodd" d="M158.313 31.9593L159.724 30.5376H166.069V35.5045L164.659 36.9238L158.313 36.9238V31.9593ZM163.954 34.44L163.249 35.1497H160.429V33.0206L161.134 32.3109L163.954 32.3109V34.44Z" fill="#1C2020"/>
<path d="M176.998 30.5376V35.5045L175.588 36.9238L174.883 36.9238V32.3109H174.177L173.12 33.3755V36.9238H171.005V33.3755L169.947 32.3109H169.595L169.242 32.6658V36.9238H167.127V31.9561L168.537 30.5367L170.764 30.5376L172.036 31.7694L173.319 30.5376H176.998Z" fill="#1C2020"/>
<path d="M205.553 35.5045L204.143 36.9238H203.438V32.3109H200.618L199.912 33.0206V36.9238H197.797V31.9561L199.207 30.5367H205.553V35.5045Z" fill="#1C2020"/>
<path d="M187.926 30.5376V35.5045L186.516 36.9238L185.811 36.9238V32.3109H185.106L184.048 33.3755V36.9238H181.933V33.3755L180.876 32.3109H180.523L180.171 32.6658V36.9238H178.055V31.9561L179.465 30.5367L181.693 30.5376L182.965 31.7694L184.247 30.5376H187.926Z" fill="#1C2020"/>
<defs>
<clipPath id="clip0_750_8301">
<rect width="50" height="50" fill="white" transform="translate(89.5 0.907715)"/>
</clipPath>
</defs>
</svg>
