<svg width="1440" height="636" viewBox="0 0 1440 636" fill="none" xmlns="http://www.w3.org/2000/svg">
  <path fill-rule="evenodd" clip-rule="evenodd"
    d="M1440 24.4616H1330.66L1332.08 24.4419C1340.14 24.3306 1348.17 24.2197 1356.27 24.156C1359.4 24.1297 1362.45 24.0303 1365.5 23.9309C1369.06 23.8148 1372.62 23.6987 1376.3 23.6987C1390.64 23.7272 1405.04 23.3556 1418.97 22.5266C1420.36 22.4475 1421.85 22.4676 1423.33 22.4875C1426.14 22.5251 1428.9 22.5621 1430.82 21.9263L1430.91 21.8963C1434 20.8578 1435.69 20.292 1440 19.7823C1438.01 19.4261 1435.72 19.4398 1433.44 19.4535C1432.43 19.4596 1431.41 19.4657 1430.42 19.4393C1428.98 19.3947 1427.58 19.3283 1426.18 19.2623C1423.99 19.159 1421.82 19.0565 1419.57 19.0391C1413.78 18.9842 1408 18.9504 1402.22 18.9165C1392.96 18.8624 1383.7 18.8083 1374.43 18.6675C1370.31 18.6062 1366.16 18.6179 1362.02 18.6296C1360.37 18.6343 1358.72 18.6389 1357.08 18.6389C1351.06 18.6532 1345.05 18.532 1339.04 18.4107C1333.01 18.289 1326.98 18.1672 1320.91 18.1815C1303.79 18.225 1286.69 17.9965 1269.6 17.7682C1252.98 17.5462 1236.38 17.3243 1219.77 17.3525C1206.44 17.3811 1193.18 17.3811 1179.92 17.1524C1176.81 17.0994 1173.69 16.9663 1170.56 16.8332C1166.95 16.6794 1163.35 16.5256 1159.76 16.495C1153.26 16.4378 1146.96 16.3234 1140.4 16.0947C1138.57 16.0288 1136.57 16.0063 1134.52 15.9833C1130.36 15.9365 1125.99 15.8875 1122.45 15.4658C1119.29 15.0965 1119.66 14.3753 1120.05 13.6013C1120.36 12.9975 1120.69 12.3615 1119.37 11.8354C1117.89 11.2513 1113.23 11.038 1110.01 10.8902C1109.13 10.8499 1108.35 10.8145 1107.78 10.7777C1104.43 10.5776 1101.15 10.4061 1097.8 10.2632C1092.37 10.0345 1088.02 9.72002 1082.93 9.20547C1081.68 9.06816 1080.56 8.90643 1079.45 8.74635C1078.49 8.60647 1077.53 8.46786 1076.5 8.34789C1072.63 7.89119 1068.09 7.94738 1063.82 8.0004C1062.47 8.01708 1061.15 8.03344 1059.89 8.03344C1056.63 8.03987 1053.36 8.05641 1050.09 8.073C1038.78 8.13018 1027.38 8.18788 1016.22 7.83334C1003.13 7.4228 989.811 7.49867 976.567 7.57409C971.368 7.60369 966.18 7.63323 961.025 7.63323H937.917C933.173 7.63323 928.523 7.74088 923.876 7.84846C918.945 7.96264 914.016 8.07674 908.982 8.06202C908.181 8.06202 907.368 8.06968 906.552 8.07737C904.639 8.09541 902.709 8.11361 900.877 8.03344C899.452 7.96274 898.061 7.81509 896.661 7.66663C895.231 7.51495 893.793 7.36242 892.304 7.29019C889.173 7.15243 885.917 7.05617 882.618 6.95861C872.225 6.65126 861.396 6.33104 852.651 4.66027C851.06 4.35841 849.735 4.01997 848.448 3.69093C846.321 3.14747 844.294 2.62968 841.332 2.34479C840.992 2.31429 840.655 2.28431 840.32 2.25449C838.142 2.0607 836.045 1.87407 833.897 1.60155C831.059 1.26247 828.222 1.27224 825.059 1.28314C824.488 1.2851 823.907 1.2871 823.314 1.2871C807.976 1.31569 792.57 1.31569 777.232 1.2871C772.172 1.2871 767.144 1.39434 762.11 1.50172C756.747 1.6161 751.376 1.73064 745.952 1.7159C741.397 1.70161 736.943 1.8088 732.489 1.916C728.035 2.0232 723.581 2.1304 719.026 2.1161C716.225 2.09903 713.496 2.20436 710.753 2.31023C708.904 2.38159 707.049 2.4532 705.161 2.48773C701.939 2.54145 698.726 2.61941 695.515 2.69731C690.184 2.82665 684.859 2.95584 679.508 2.97369C672.108 3.01151 664.912 3.27455 657.67 3.53931C653.966 3.67474 650.249 3.81062 646.487 3.91703C639.115 4.12418 631.716 4.1906 624.314 4.25704C615.373 4.3373 606.429 4.4176 597.524 4.74602C592.674 4.92343 587.883 5.1383 583.112 5.35224C571.74 5.86222 560.484 6.36699 548.83 6.34685C546.399 6.34685 543.961 6.34368 541.52 6.34051L541.519 6.34051C536.629 6.33416 531.73 6.32779 526.86 6.34685C520.631 6.34685 513.933 5.88947 507.905 5.37492C507.41 5.33434 506.909 5.29607 506.406 5.25764L506.406 5.25762C503.365 5.02537 500.252 4.78766 498.126 4.00279C497.118 3.63716 496.555 3.23107 496.021 2.84541L496.021 2.84534C495.136 2.20584 494.328 1.6225 491.696 1.37286C487.677 0.97265 484.328 0.915483 479.974 0.886897C475.376 0.84712 470.821 0.64744 466.263 0.447604C460.994 0.216604 455.72 -0.0146047 450.369 0.00072224H428.064C421.232 0.00072224 414.601 0.143661 407.77 0.343764C402.551 0.495287 397.407 0.775315 392.249 1.05613C387.675 1.3051 383.091 1.55469 378.432 1.7159C372.587 1.9267 366.717 2.05114 360.853 2.17545C357.175 2.25344 353.498 2.33138 349.832 2.43055C346.451 2.52407 343.045 2.63007 339.624 2.73652C328.406 3.08564 317.031 3.43961 305.893 3.37389C297.624 3.32922 289.683 3.6161 281.621 3.90732C279.365 3.98884 277.099 4.0707 274.814 4.14572C271.9 4.24577 268.987 4.26721 266.073 4.28865C263.159 4.31008 260.246 4.33152 257.332 4.43157C252.356 4.60305 247.38 4.62845 242.411 4.65382C236.611 4.68343 230.819 4.71299 225.048 4.97472C221.596 5.12506 218.088 5.19633 214.583 5.26755C211.423 5.33174 208.266 5.39588 205.155 5.51785L203.641 5.58025C195.803 5.90319 187.705 6.23683 179.903 6.74706C177.82 6.88311 175.616 6.99901 173.379 7.11668L173.379 7.11669C168.564 7.3699 163.593 7.63129 159.34 8.11919C159.726 8.21257 160.083 8.29223 160.41 8.36547C161.788 8.67338 162.658 8.86781 163.091 9.49133C163.789 10.6089 162.213 10.734 159.679 10.935L159.679 10.935C159.296 10.9654 158.891 10.9975 158.469 11.035C157.851 11.0845 157.332 11.1364 156.845 11.1852C155.645 11.3054 154.634 11.4066 152.776 11.4066C150.27 11.4066 148.016 11.5142 145.719 11.6237C144.273 11.6928 142.809 11.7626 141.256 11.8068C125.357 12.3103 109.223 12.291 93.0912 12.2716H93.091C89.9889 12.2679 86.8869 12.2642 83.7867 12.2642H53.7796C53.0688 12.2642 51.9115 12.2431 50.5175 12.2178C45.2121 12.1214 36.4793 11.9626 35.8959 12.6644C35.6279 13.036 38.1062 14.4367 39.0439 14.7226C39.548 14.8839 40.2627 15.0256 40.9981 15.1714C42.6084 15.4905 44.3183 15.8294 44.1344 16.4378C40.0935 16.7432 35.4178 16.6534 30.8552 16.5659H30.8552H30.8551C28.1575 16.5141 25.4995 16.4631 23.0357 16.495C19.6867 16.5235 18.749 16.7808 19.6197 17.9814C20.1556 18.7532 21.3612 18.9819 23.7055 19.2392C25.9818 19.4869 28.5258 19.4552 31.0798 19.4235H31.0798H31.0799C32.3586 19.4076 33.6398 19.3917 34.8912 19.4107C38.5751 19.4679 43.2637 19.6966 46.8806 19.9539C49.3914 20.1475 51.8065 20.4461 54.2186 20.7444C57.1473 21.1065 60.0715 21.468 63.1568 21.6404C63.2101 22.2326 61.8178 22.3711 60.3349 22.5186L60.3348 22.5186C59.9566 22.5563 59.5725 22.5945 59.2049 22.641C57.5633 22.8499 56.0207 23.1593 54.476 23.4691L54.4759 23.4691C52.4615 23.8731 50.4435 24.2779 48.1975 24.4616H4.15524e-09V27.4268V611.538H51.2437C52.2401 611.677 53.2296 611.823 54.2186 611.97C57.1473 612.405 60.0715 612.839 63.1568 613.045C63.2101 613.756 61.8178 613.922 60.3349 614.099C59.9566 614.144 59.5725 614.19 59.2049 614.246C57.5633 614.497 56.0207 614.868 54.4761 615.24C52.4284 615.733 50.377 616.226 48.0863 616.441C46.2966 616.608 44.3587 616.56 42.4226 616.511C41.1704 616.48 39.9191 616.449 38.709 616.476C37.0845 616.515 35.5269 616.635 33.9589 616.756C32.8118 616.844 31.6591 616.932 30.4705 616.99C29.2827 617.036 28.3582 617.142 27.4519 617.246C26.3139 617.377 25.2045 617.505 23.6385 617.505C19.2178 617.471 -3.75635 617.436 0.53038 620.764C1.06622 621.175 3.27657 622.307 3.94637 622.547C5.5151 623.135 10.5623 623.416 13.2618 623.566C13.559 623.582 13.8278 623.597 14.0604 623.611C42.393 622.582 58.4682 622.342 74.6104 622.719C85.3644 622.879 96.1083 623.148 106.854 623.417C123.749 623.84 140.649 624.263 157.599 624.263C170.191 624.263 182.582 624.537 195.108 625.017C200.391 625.229 205.689 625.364 210.98 625.498C216.826 625.646 222.663 625.794 228.464 626.046C232.485 626.227 236.318 626.233 240.217 626.239C241.513 626.242 242.817 626.244 244.137 626.252C247.998 626.287 251.741 626.545 255.476 626.803C259.193 627.06 262.901 627.316 266.709 627.35C266.97 627.353 267.232 627.355 267.497 627.358C274.33 627.428 282.699 627.515 287.406 625.566C288.293 625.193 288.978 624.822 289.617 624.475C291.151 623.644 292.431 622.951 295.645 622.685C302.104 622.12 308.728 622.167 315.323 622.213C317.14 622.226 318.954 622.239 320.762 622.239C321.922 622.239 323.076 622.234 324.225 622.229C329.71 622.204 335.082 622.18 340.454 622.719C344.733 623.13 349.012 623.575 353.291 624.02L353.315 624.023C355.86 624.296 358.304 624.427 360.756 624.559C362.305 624.643 363.856 624.726 365.438 624.846C366.767 624.966 368.005 625.179 369.231 625.391C370.106 625.542 370.975 625.692 371.868 625.806C373.99 626.065 376.263 626.187 378.46 626.305C379.176 626.344 379.884 626.382 380.576 626.424C385.465 626.732 390.355 627.007 395.311 627.281C415.74 628.345 436.638 628.928 457.268 629.271C462.965 629.358 468.651 629.347 474.335 629.336C482.148 629.322 489.958 629.307 497.791 629.545C503.283 629.717 508.575 629.82 514.067 629.786C528.161 629.709 542.031 630.205 555.984 630.704C560.73 630.874 565.486 631.044 570.263 631.192C574.224 631.319 578.184 631.441 582.144 631.563C592.049 631.867 601.953 632.172 611.858 632.564C625.388 633.113 638.985 633.627 652.582 633.833C657.379 633.9 662.175 634.122 666.972 634.343C672.021 634.576 677.071 634.81 682.12 634.862C689.279 634.926 695.801 635.316 702.709 635.729C703.234 635.76 703.761 635.791 704.29 635.823C708.752 636.079 713.523 636.003 718.224 635.928C720.44 635.892 722.641 635.857 724.786 635.857C725.51 635.857 726.321 635.888 727.15 635.92C728.622 635.977 730.151 636.036 731.35 635.926C734.029 635.687 734.278 635.319 734.781 634.573C734.857 634.461 734.938 634.341 735.034 634.211C735.188 634.014 735.282 633.849 735.364 633.706C735.637 633.226 735.774 632.987 737.58 632.564C739.251 632.163 741.656 631.991 743.81 631.837C744.417 631.794 745.005 631.752 745.55 631.706C756.87 630.712 768.39 630.197 780.045 629.786C784.617 629.609 789.21 629.378 793.811 629.146C800.805 628.794 807.818 628.442 814.808 628.276C819.968 628.135 825.16 628.172 830.34 628.208C832.69 628.225 835.038 628.242 837.38 628.242C845.384 628.242 853.338 628.37 861.292 628.499C869.246 628.628 877.2 628.756 885.204 628.756H906.637C907.354 628.756 908.052 628.76 908.735 628.764C911.63 628.779 914.282 628.794 917.153 628.516C919.213 628.317 920.439 627.922 921.732 627.504C922.669 627.202 923.64 626.889 924.99 626.63C928.015 626.054 931.207 625.807 934.44 625.557C936.219 625.419 938.01 625.281 939.793 625.086C943.315 624.679 946.596 624.691 950.126 624.704C950.759 624.706 951.399 624.709 952.05 624.709C953.816 624.709 955.593 624.698 957.372 624.687C960.046 624.67 962.724 624.654 965.379 624.674C971.892 624.708 978.264 625.078 984.624 625.448C991.41 625.842 998.183 626.236 1005.1 626.218C1013.9 626.198 1022.25 626.826 1030.62 627.456C1036.41 627.891 1042.2 628.326 1048.17 628.551C1059.56 628.976 1071.14 628.908 1082.66 628.841C1086.91 628.816 1091.16 628.791 1095.39 628.791H1145.96C1167.26 628.791 1188.36 628.997 1209.66 629.271C1220.19 629.39 1230.78 629.36 1241.35 629.331C1246.04 629.318 1250.73 629.305 1255.4 629.305C1258.48 629.305 1261.57 629.322 1264.66 629.339C1272.41 629.381 1280.18 629.423 1287.89 629.202C1291.2 629.099 1294.52 628.945 1297.83 628.791C1301.15 628.636 1304.47 628.482 1307.78 628.379C1310.73 628.293 1313.66 628.302 1316.58 628.31C1319.5 628.319 1322.42 628.328 1325.33 628.242C1327.12 628.188 1328.9 628.117 1330.67 628.046C1334.54 627.892 1338.39 627.738 1342.34 627.762C1343.31 627.762 1344.27 627.771 1345.24 627.78C1347.52 627.802 1349.8 627.823 1352.06 627.727C1356.01 627.521 1368.6 626.389 1365.85 624.263C1356.95 623.304 1347.15 623.461 1337.54 623.615C1333.06 623.686 1328.61 623.758 1324.33 623.714C1321.14 623.683 1318.02 623.563 1314.89 623.442C1311.03 623.294 1307.18 623.146 1303.23 623.165H1292.04H1206.71H1185.48H1173.89H1164.35C1171.13 623.1 1310.61 621 1308.85 620.867C1303.03 618.195 1220.17 618.613 1191.88 618.756C1185.66 618.787 1182.08 618.805 1182.53 618.774C1194.12 617.922 1205.77 617.976 1217.46 618.031C1219.41 618.04 1221.36 618.049 1223.32 618.054C1228.12 618.072 1232.88 617.926 1237.65 617.779C1241.86 617.65 1246.07 617.521 1250.31 617.505C1253.96 617.488 1257.61 617.513 1261.26 617.539C1264.91 617.565 1268.56 617.591 1272.21 617.573C1282.5 617.532 1292.79 617.269 1303.08 617.005C1309.94 616.83 1316.8 616.654 1323.66 616.544C1326.47 616.5 1329.28 616.454 1332.08 616.407C1340.14 616.274 1348.17 616.141 1356.27 616.064C1359.4 616.032 1362.45 615.913 1365.5 615.794C1369.06 615.655 1372.62 615.515 1376.3 615.515C1390.64 615.55 1405.04 615.104 1418.97 614.109C1420.36 614.014 1421.85 614.038 1423.33 614.062C1426.14 614.107 1428.9 614.151 1430.82 613.388L1430.91 613.352C1432.87 612.562 1434.27 612 1436.12 611.538H1440V610.816V24.4616Z"
    fill="#DDF28A" fill-opacity="0.4" />
</svg>
